<svg width="28" height="26" viewBox="0 0 28 26" fill="none" xmlns="http://www.w3.org/2000/svg">
<path d="M15.0319 5.40785L15.032 5.40779C16.0347 4.40489 16.0347 2.77899 15.0319 1.77611L15.0319 1.77608C14.029 0.773208 12.403 0.773207 11.4001 1.77608L1.99215 11.1841C0.989256 12.187 0.989297 13.8129 1.99212 14.8158L1.99215 14.8158L11.4001 24.2238L11.4002 24.2239C12.4031 25.2266 14.029 25.2267 15.0319 24.2239L15.032 24.2238C16.0347 23.2209 16.0347 21.595 15.0319 20.5921L15.0319 20.5921L10.0077 15.568H24.1921C25.6103 15.568 26.76 14.4182 26.76 12.9999C26.76 11.5817 25.6103 10.4319 24.1921 10.4319H10.0077L15.0319 5.40785Z" fill="white" stroke="#5418FF" stroke-width="2"/>
</svg>
