<svg width="21" height="22" viewBox="0 0 21 22" fill="none" xmlns="http://www.w3.org/2000/svg">
<path d="M17.6386 5.41701L18.2965 4.76325C18.7664 4.29628 18.7664 3.54913 18.2965 3.05103C17.8265 2.58406 17.0746 2.58406 16.5733 3.05103L15.8214 3.79818C14.5056 2.83311 12.8765 2.21048 11.1533 1.99256C11.6859 1.99256 12.1559 1.55672 12.1559 0.996357C12.1559 0.435992 11.7173 0.000152588 11.1533 0.000152588H8.96026C8.39633 0.000152588 7.95771 0.435992 7.95771 0.996357C7.95771 1.52559 8.39633 1.99256 8.96026 1.99256C7.2058 2.21048 5.57667 2.83311 4.22949 3.79818L3.47758 3.05103C3.00764 2.58406 2.25573 2.58406 1.75446 3.05103C1.28451 3.518 1.28451 4.26515 1.75446 4.76325L2.41238 5.41701C0.908558 7.16037 0 9.43296 0 11.9235C0 17.4337 4.51146 21.8855 10.0255 21.8855C15.5708 21.8855 20.0509 17.4026 20.0509 11.9235C20.0823 9.43296 19.1737 7.16037 17.6386 5.41701ZM10.0255 21.045C4.95007 21.045 0.845899 16.9356 0.845899 11.9235C0.845899 6.88019 4.9814 2.80198 10.0255 2.80198C15.1009 2.80198 19.205 6.91132 19.205 11.9235C19.2364 16.9668 15.1009 21.045 10.0255 21.045Z" fill="url(#paint0_linear_1_12445)"/>
<path d="M10.0255 4.01575C5.63932 4.01575 2.06775 7.56472 2.06775 11.9231C2.06775 16.2815 5.63932 19.8305 10.0255 19.8305C14.4116 19.8305 17.9832 16.2815 17.9832 11.9231C18.0145 7.53359 14.4429 4.01575 10.0255 4.01575ZM14.8815 9.526L10.7147 13.6665C10.5267 13.8533 10.2761 13.9467 10.0568 13.9467C9.80615 13.9467 9.55552 13.8533 9.39887 13.6665L7.08048 11.3628C6.70453 10.9892 6.70453 10.3977 7.08048 10.0241C7.45644 9.65053 8.0517 9.65053 8.42765 10.0241L10.0881 11.6741L13.597 8.18735C13.973 7.81378 14.5683 7.81378 14.9442 8.18735C15.2575 8.56093 15.2575 9.15242 14.8815 9.526Z" fill="url(#paint1_linear_1_12445)"/>
<defs>
<linearGradient id="paint0_linear_1_12445" x1="0" y1="10.9645" x2="20.08" y2="10.9645" gradientUnits="userSpaceOnUse">
<stop stop-color="#EF7CF2"/>
<stop offset="1" stop-color="#7056D1"/>
</linearGradient>
<linearGradient id="paint1_linear_1_12445" x1="-3.42645e-06" y1="10.9641" x2="20.08" y2="10.9641" gradientUnits="userSpaceOnUse">
<stop stop-color="#EF7CF2"/>
<stop offset="1" stop-color="#7056D1"/>
</linearGradient>
</defs>
</svg>
