<svg width="76" height="142" viewBox="0 0 76 142" fill="none" xmlns="http://www.w3.org/2000/svg">
<path opacity="0.5" d="M62.057 134.422C61.2056 135.166 59.9993 135.838 58.5092 136.44C58.5092 136.44 58.1544 136.582 57.8706 136.688C55.8128 137.467 52.9036 138.21 51.1297 138.529C46.2691 139.449 41.0893 139.838 36.2997 139.838C29.5233 139.838 15.4738 138.812 10.4359 134.351C10.3295 134.245 10.223 134.139 10.1166 134.033C9.40703 133.325 9.05225 132.581 9.05225 131.802C9.05225 124.616 32.8583 123.412 41.4795 123.908C57.7287 124.829 67.4498 129.82 62.057 134.422Z" fill="#EDEDED"/>
<path opacity="0.5" d="M62.057 134.422C61.2056 135.166 59.9993 135.838 58.5092 136.44C58.5092 136.44 58.1544 136.582 57.8706 136.688C55.8128 137.467 52.9036 138.21 51.1297 138.529C39.8475 140.653 19.3765 138.6 19.3765 131.767C19.3765 125.855 35.1644 123.873 41.4795 123.873C57.7287 124.829 67.4498 129.82 62.057 134.422Z" fill="#D8D8D8"/>
<path d="M62.0571 134.422C59.2543 138.069 48.4689 141.503 36.2643 141.503C23.7404 141.503 12.4937 137.786 10.0812 134.033C10.1876 134.139 10.294 134.245 10.4005 134.352C15.4739 138.848 29.4524 139.839 36.2643 139.839C41.1248 139.839 46.2692 139.449 51.0943 138.529C52.8682 138.21 55.671 137.502 57.8352 136.688C58.119 136.582 58.4738 136.44 58.4738 136.44C59.9994 135.839 61.2056 135.166 62.0571 134.422Z" fill="#BCBCBC"/>
<path opacity="0.5" d="M49.8879 130.634C49.8879 132.085 44.1404 133.749 37.0447 133.749C36.0868 133.749 35.1289 133.714 34.2065 133.678C28.4944 133.324 24.2015 131.873 24.2015 130.634C24.2015 129.784 26.2593 129.006 29.4169 128.545C33.9936 126.74 35.0934 124.226 35.2353 119.27C35.3772 114.314 35.2353 71.0192 35.2353 65.9922H38.2155C38.4284 65.9922 38.8541 65.9922 38.8541 66.0276C38.8541 66.1338 38.7122 114.066 38.8541 119.306C38.9961 124.262 40.0959 126.811 44.6726 128.581C47.8657 129.006 49.8879 129.784 49.8879 130.634Z" fill="#EDEDED"/>
<path d="M49.8879 130.635C49.8879 132.086 44.1404 133.75 37.0447 133.75C36.0868 133.75 35.1289 133.715 34.2064 133.679C40.4861 133.644 44.4597 131.909 45.4531 130.883C46.5529 129.821 42.4729 129.361 40.5571 127.201C37.1511 123.378 38.2155 125.289 38.1445 68.2589V65.9578C38.18 65.9578 38.8541 65.9932 38.8186 65.9932C38.8186 66.064 38.6767 113.678 38.8186 119.271C38.9605 124.227 40.0604 126.776 44.6371 128.546C47.8656 129.007 49.8879 129.785 49.8879 130.635Z" fill="#BCBCBC"/>
<path d="M38.3929 127.802C37.0447 126.457 36.7254 123.058 36.7254 123.058C36.7254 123.058 36.548 126.457 35.1289 127.731C33.355 129.324 30.6941 130.068 30.6941 130.068C30.6941 130.068 32.6454 130.634 36.7609 130.634C38.2865 130.634 42.8277 130.068 42.8277 130.068C42.8277 130.068 39.883 129.254 38.3929 127.802Z" fill="white"/>
<path d="M36.761 65.9578C37.1867 89.7825 36.761 119.732 36.761 119.802C36.761 116.475 36.3707 88.2603 36.761 65.9578Z" fill="white"/>
<path opacity="0.5" d="M38.8541 68.2583H35.2708V65.9573H38.109C38.1445 65.9573 38.2864 65.9573 38.2509 65.9573C38.4638 65.9927 38.8541 65.5678 38.8541 68.2583Z" fill="#BCBCBC"/>
<path opacity="0.2" d="M67.7691 57.6026C62.6247 62.4879 53.2584 65.9572 37.1866 66.0988C37.1512 66.0988 37.3995 66.0988 36.3352 66.0988C20.2634 65.9926 10.9326 62.4879 5.75274 57.6026C-6.66472 45.885 5.04317 26.1314 5.04317 26.1314L6.88805 24.1489C16.3253 19.4406 58.6156 19.1574 67.2014 24.4675L68.4431 26.1314C68.4431 26.1314 68.4431 26.1668 68.4786 26.2022C69.2592 27.5828 79.7253 46.2744 67.7691 57.6026Z" fill="#D8D8D8"/>
<path d="M71.0686 36.5396C71.0686 36.752 70.9621 36.9644 70.7138 37.2122C68.3013 39.4071 53.9325 41.1063 36.619 41.1063C19.8732 41.1063 5.89467 39.5487 2.80805 37.46C2.3823 37.1768 2.16943 36.8936 2.16943 36.575C2.16943 36.221 2.48874 35.867 3.12735 35.513C6.74615 33.5305 20.3699 32.0437 36.619 32.0437C53.4358 32.0437 67.4498 33.6367 70.4654 35.7254C70.8557 35.9732 71.0686 36.2564 71.0686 36.5396Z" fill="url(#paint0_linear_1_3619)"/>
<path d="M23.8822 19.6169C25.2304 21.564 25.5497 21.6348 26.2947 22.272C27.4655 23.2632 29.9135 26.8741 30.9424 27.8299C32.0422 28.8919 35.6965 32.1488 36.1932 32.9276C36.2642 33.0692 36.3706 33.1754 36.5125 33.317C37.2221 34.0604 38.5703 34.9809 38.8896 35.5827C39.1379 36.0075 39.3153 36.2199 39.5637 36.5031C39.5991 36.5385 39.6701 36.6093 39.7056 36.6447C39.8475 36.7863 40.0249 36.9633 40.2732 37.1757C41.0538 37.9191 40.628 37.4235 41.9762 38.9457C43.5018 40.6804 44.708 41.0698 46.482 43.0876C49.6041 46.8047 47.0851 44.8223 52.939 49.8138C53.2938 50.0262 49.9588 54.5575 42.9696 56.6461C40.7344 56.2567 19.7667 60.1862 15.0126 37.9899C15.2609 34.2728 15.6157 29.3521 17.9573 25.4935C19.5183 22.98 23.8822 19.6169 23.8822 19.6169Z" fill="#B3DB21"/>
<path d="M26.2948 22.272C27.4301 23.2987 29.9136 26.8741 30.9425 27.8299C32.0423 28.892 35.6966 32.1488 36.1933 32.9277C36.2642 33.0339 36.3707 33.1755 36.5126 33.3171C35.3773 33.5295 34.987 32.9631 33.7453 32.7152C32.5035 32.5028 31.8649 32.0072 30.6586 31.9364C29.4524 31.8656 28.459 31.0868 27.3591 30.5204C26.2238 29.954 25.4078 30.485 24.4144 30.131C23.4565 29.777 22.7824 28.8566 23.8822 28.8566C24.9821 28.8212 23.3855 27.1573 24.0596 25.9537C24.7337 24.7501 23.9177 24.2191 24.8047 23.8651C25.053 23.7589 25.1949 23.6173 25.3369 23.4757C25.6562 23.1571 25.8336 22.6968 26.2948 22.272Z" fill="#D2ED62"/>
<path d="M23.8822 19.6169C23.9177 19.6523 24.8756 21.1038 25.798 21.918C23.1017 23.7588 23.35 24.1482 22.4631 24.7854C21.2213 25.6705 18.9862 30.5558 20.973 31.4762C21.4697 31.724 22.7114 31.9364 22.4985 31.9364C22.2857 31.9364 20.1924 32.0072 19.5893 33.1754C18.9862 34.2728 19.5183 37.5651 20.086 38.3439C20.5827 39.0519 21.3277 42.4504 22.1438 43.123C22.9598 43.7956 23.9531 45.5303 24.982 45.3887C25.9754 45.2471 26.5431 45.0701 26.5786 45.0347C26.5431 45.0701 25.6206 46.0967 26.0109 47.1587C26.4012 48.2561 27.7493 49.3181 28.9201 49.6722C30.0554 49.9908 31.3681 51.8316 32.7873 51.7962C34.2064 51.7254 34.7386 50.5926 34.7386 50.5926C34.7386 50.628 34.5257 52.398 35.1643 52.6104C35.803 52.8228 38.8896 53.6724 40.1313 53.2476C41.3731 52.8228 42.1536 52.9644 42.9341 52.7874C43.3599 52.6812 44.1404 52.3626 44.85 52.0086C45.4886 51.69 46.0207 51.336 46.1981 51.0882C46.5529 50.5572 46.3401 49.8846 46.3046 49.743C46.3755 49.92 46.7658 50.8404 47.7592 50.5572C48.8235 50.274 50.4555 49.3181 50.9522 48.0791C51.6973 48.7163 52.2295 49.1765 53.0455 49.8846C53.4003 50.097 50.0653 54.6283 43.076 56.7169C40.8409 56.3275 19.8731 60.257 15.119 38.0607C15.3674 34.3436 15.7222 29.4229 18.0637 25.5643C19.5183 22.98 23.8822 19.6169 23.8822 19.6169Z" fill="#FFF6D3"/>
<path d="M23.8822 19.6169C23.9532 19.7231 24.0241 19.8293 24.308 20.2188C21.4342 22.8384 22.5695 22.2012 20.8666 23.865C19.4474 25.2811 20.5473 23.2278 19.3055 27.3697V27.4051C18.8443 29.1397 18.8088 28.3255 18.7024 29.9186C18.7733 36.5739 17.3542 34.3436 18.5605 37.6359C19.0217 38.9103 18.9862 37.5651 19.5184 39.8308C20.6182 44.5745 20.0506 42.0964 20.9375 44.1142C21.0794 44.4683 21.1504 44.6807 21.3278 44.9285C21.5407 45.1763 21.86 45.4241 22.1083 45.6365C22.2147 45.7427 22.3212 45.8135 22.3921 45.8489C22.8534 46.2029 24.2015 48.7517 25.7626 49.7784C29.0976 52.0086 28.1396 51.4776 28.317 51.5484C28.4235 51.6192 28.5654 51.7608 28.7073 51.867C31.0489 53.814 30.6231 52.9644 35.4482 54.6991C36.9738 55.2655 38.2155 55.2655 39.6347 55.2655C40.8764 55.2301 43.2889 55.1947 44.1049 54.9823C45.8789 54.5221 46.7303 53.3538 48.043 53.0352C51.5554 52.1502 48.5397 52.7874 52.4069 49.2827C52.4779 49.3181 52.9036 49.7076 52.9746 49.7784C53.3293 49.9908 49.9944 54.5221 43.0051 56.6107C40.77 56.2213 19.8022 60.1508 15.0481 37.9545C15.2964 34.2374 15.6512 29.3167 17.9928 25.4581C19.5184 22.98 23.8822 19.6169 23.8822 19.6169Z" fill="#C4CE32"/>
<path d="M23.8822 19.6169C23.8822 19.6169 23.9532 19.7231 24.0596 19.9002C23.492 20.3604 22.4986 21.033 21.6471 21.8826C21.5052 22.0242 21.3632 22.1658 21.2213 22.3074C18.7024 24.7854 18.525 27.5821 18.3476 27.7591C16.5027 34.9455 17.7799 40.8574 21.4342 45.9197C21.4697 45.9551 28.2815 56.1859 40.0604 56.0797C40.6635 56.0797 41.1602 56.0443 41.7279 55.9735C43.0761 55.4071 46.7303 56.6815 52.8326 49.8138C53.5067 50.3802 49.2138 54.8407 42.9696 56.7169C40.9828 56.7523 35.0934 57.4249 29.8426 55.5487C21.0439 52.4334 16.077 48.1145 15.0126 38.7333C14.9771 38.3085 14.9417 37.7775 14.9417 37.0341C14.9417 32.0426 16.4317 28.0423 17.9573 25.5643C19.5184 22.98 23.8822 19.6169 23.8822 19.6169Z" fill="#729409"/>
<path d="M21.2923 22.4134C21.0085 22.0594 21.5762 21.6346 21.8245 22.024C21.9664 22.1302 21.5762 22.7674 21.2923 22.4134Z" fill="#729409"/>
<path d="M19.3766 24.5735C19.0927 24.2195 19.6604 23.7947 19.9087 24.1841C20.0506 24.3257 19.6604 24.9275 19.3766 24.5735Z" fill="#729409"/>
<path d="M18.0638 28.0068C18.1348 27.5466 18.8089 27.6882 18.7379 28.113C18.7024 28.3254 17.9929 28.467 18.0638 28.0068Z" fill="#729409"/>
<path d="M17.8864 28.9978C17.9574 28.5376 18.6315 28.6792 18.5605 29.104C18.4896 29.5642 17.8155 29.458 17.8864 28.9978Z" fill="#729409"/>
<path d="M17.0349 35.9004C16.9994 35.4402 18.0638 35.4048 18.0993 35.8296C18.0993 36.042 17.0704 36.3606 17.0349 35.9004Z" fill="#729409"/>
<path d="M17.4962 33.6345C17.5672 33.1743 18.2412 33.3159 18.1703 33.7407C18.1348 33.9532 17.4252 34.0948 17.4962 33.6345Z" fill="#729409"/>
<path d="M17.6735 29.6698C17.78 29.1033 18.7734 29.2803 18.7024 29.8468C18.596 30.3778 17.6026 30.2362 17.6735 29.6698Z" fill="#729409"/>
<path d="M17.709 30.8737C17.8154 30.3073 18.8088 30.4843 18.7379 31.0507C18.6314 31.6172 17.6026 31.4401 17.709 30.8737Z" fill="#729409"/>
<path d="M20.2989 23.4757C19.8732 23.0863 20.6537 22.272 21.044 22.6614C21.2214 22.8384 20.6892 23.8651 20.2989 23.4757Z" fill="#729409"/>
<path d="M18.0993 38.5914C17.4607 38.7684 17.1414 37.5294 17.7445 37.3524C18.0284 37.2816 18.7379 38.4144 18.0993 38.5914Z" fill="#729409"/>
<path d="M18.8797 26.0598C18.383 25.5996 19.1281 24.7854 19.6248 25.2456C19.8377 25.458 19.3764 26.52 18.8797 26.0598Z" fill="#729409"/>
<path d="M19.2701 27.6169C18.9863 28.2187 18.0284 27.7939 18.3477 27.1567C18.596 26.5549 19.554 27.0151 19.2701 27.6169Z" fill="#729409"/>
<path d="M18.2767 32.3611C17.9929 32.9629 17.035 32.5381 17.3543 31.9009C17.6381 31.2991 18.5605 31.7593 18.2767 32.3611Z" fill="#729409"/>
<path d="M18.8443 42.1671C18.2412 41.8839 18.6669 40.928 19.3055 41.2467C19.5184 41.3529 19.4474 42.4857 18.8443 42.1671Z" fill="#729409"/>
<path d="M20.902 45.9199C20.2989 45.5659 20.8311 44.6808 21.4342 45.0348C22.0019 45.3534 21.5052 46.2739 20.902 45.9199Z" fill="#729409"/>
<path d="M21.5052 45.9195C21.86 45.3177 22.7469 45.8487 22.3921 46.4505C22.2502 46.6983 21.1504 46.5213 21.5052 45.9195Z" fill="#729409"/>
<path d="M22.8179 47.9364C23.1727 47.3346 24.0597 47.8656 23.7049 48.4674C23.3501 49.0338 22.4631 48.5028 22.8179 47.9364Z" fill="#729409"/>
<path d="M24.9821 50.3798C24.379 50.0258 24.9112 49.1408 25.5143 49.4948C26.0819 49.8488 25.5498 50.7338 24.9821 50.3798Z" fill="#729409"/>
<path d="M33.9582 54.9117C33.8872 55.4428 33.1067 55.372 33.1422 54.8409C33.2131 54.3099 34.0291 54.3807 33.9582 54.9117Z" fill="#729409"/>
<path d="M41.3377 56.3972C40.8055 56.3264 40.8765 55.5476 41.4087 55.583C41.9763 55.6538 41.9054 56.468 41.3377 56.3972Z" fill="#729409"/>
<path d="M44.3533 55.548C44.1759 56.079 43.4663 55.8312 43.6437 55.3002C43.8211 54.8046 44.5307 55.017 44.3533 55.548Z" fill="#729409"/>
<path d="M45.0274 55.3007C45.1693 55.7609 44.3888 56.0087 44.2469 55.5485C44.105 55.0883 44.8855 54.8404 45.0274 55.3007Z" fill="#729409"/>
<path d="M48.5043 53.8142C48.6462 54.2744 47.8657 54.5222 47.7238 54.062C47.6528 53.885 47.7947 53.6726 48.0076 53.6018C48.2205 53.531 48.4333 53.6372 48.5043 53.8142Z" fill="#729409"/>
<path d="M47.5464 54.6283C47.0142 54.8053 46.8014 54.0973 47.3335 53.9203C47.5464 53.8849 48.0786 54.4867 47.5464 54.6283Z" fill="#729409"/>
<path d="M46.9077 54.9819C46.3756 55.1589 46.1627 54.4508 46.6949 54.2738C47.1916 54.0968 47.4044 54.8048 46.9077 54.9819Z" fill="#729409"/>
<path d="M45.9853 55.3712C44.9564 55.6898 44.7435 54.9818 45.7724 54.6632C46.8013 54.3446 47.0142 55.0526 45.9853 55.3712Z" fill="#729409"/>
<path d="M34.5967 55.5485C34.0645 55.4777 34.171 54.3803 34.7031 54.4511C34.916 54.4511 35.1289 55.5839 34.5967 55.5485Z" fill="#729409"/>
<path d="M42.1891 56.1503C41.657 56.2211 41.4796 55.1236 42.0118 55.0528C42.5439 54.982 42.7213 56.0795 42.1891 56.1503Z" fill="#729409"/>
<path d="M36.1224 55.2292C36.0514 55.9727 35.129 55.8665 35.1999 55.123C35.2709 54.415 36.1933 54.5212 36.1224 55.2292Z" fill="#729409"/>
<path d="M36.4062 56.2909C35.803 56.2201 35.9095 55.1227 36.5126 55.1935C36.7964 55.1935 37.0448 56.3263 36.4062 56.2909Z" fill="#729409"/>
<path d="M37.577 56.2909C36.9738 56.2201 37.0803 55.1227 37.6834 55.1935C38.2865 55.2289 38.1801 56.3617 37.577 56.2909Z" fill="#729409"/>
<path d="M40.4861 56.4684C39.883 56.3976 39.9894 55.3002 40.5926 55.371C41.2312 55.4418 41.1247 56.5392 40.4861 56.4684Z" fill="#729409"/>
<path d="M38.3219 56.6807C37.7188 56.6099 37.8252 55.5124 38.4284 55.5832C38.6767 55.5832 38.9251 56.7161 38.3219 56.6807Z" fill="#729409"/>
<path d="M42.8278 56.4684C42.2247 56.3976 42.3311 55.3002 42.9342 55.371C43.1826 55.371 43.4309 56.5392 42.8278 56.4684Z" fill="#729409"/>
<path d="M50.2073 52.4686C49.9235 52.2208 50.6685 51.3712 50.9523 51.6544C51.0588 51.7252 50.4911 52.7164 50.2073 52.4686Z" fill="#729409"/>
<path d="M39.4573 56.398C38.4994 56.4688 38.393 55.3714 39.3509 55.3006C40.3443 55.1944 40.4153 56.3272 39.4573 56.398Z" fill="#729409"/>
<path d="M27.7494 51.8661C28.1042 51.2642 28.9911 51.7953 28.6363 52.3971C28.317 52.9635 27.3946 52.4679 27.7494 51.8661Z" fill="#729409"/>
<path d="M20.0151 43.7595C19.4474 44.1489 18.3476 42.4851 18.9508 42.1311C19.1991 41.9895 19.6248 42.2019 19.9087 42.6621C20.228 43.1223 20.2635 43.6179 20.0151 43.7595Z" fill="#729409"/>
<path d="M30.0555 54.0611C29.0976 53.7425 29.4524 52.7513 30.4103 53.0699C31.3327 53.3885 31.0134 54.3797 30.0555 54.0611Z" fill="#729409"/>
<path d="M32.2906 54.983C31.2972 54.9122 31.3682 53.8856 32.3616 53.9564C33.3549 54.0272 33.284 55.0538 32.2906 54.983Z" fill="#729409"/>
<path d="M19.3055 40.3605C18.9507 41.1039 17.8509 40.5729 18.2057 39.8295C18.5605 39.0861 19.6603 39.6171 19.3055 40.3605Z" fill="#729409"/>
<path d="M20.6182 44.3262C19.6958 44.6448 19.341 43.5828 20.2634 43.2996C20.6537 43.158 21.5406 44.0076 20.6182 44.3262Z" fill="#729409"/>
<path d="M22.2148 21.4577C22.0728 21.2453 22.605 20.8205 22.7469 21.0683C22.9243 21.2807 22.3567 21.6701 22.2148 21.4577Z" fill="#729409"/>
<path d="M35.3063 33.4587C35.8385 33.565 36.0868 33.5296 36.4771 33.3171C37.1866 34.0606 38.5348 34.981 38.8541 35.5828C38.7832 35.7244 38.6767 35.866 38.5703 35.9368C38.3929 36.0784 38.5348 36.4324 38.7122 36.8572C38.8541 37.1404 38.996 37.4236 39.1379 37.636C40.77 41.1407 44.2823 46.6632 38.5348 36.8926C38.3219 36.5386 38.2155 36.3262 38.18 36.3262C38.0736 36.22 37.6479 36.4678 37.2221 36.397C36.9738 36.3616 36.8319 36.7864 36.7609 37.282C36.6899 37.636 36.6545 37.99 36.5835 38.2378C36.4416 38.8043 35.6256 41.8133 35.5901 42.0257C35.6256 41.8133 36.619 37.4236 36.6545 37.3174C36.7609 36.751 36.8319 36.043 36.7254 35.9368C36.5835 35.7952 36.3706 35.335 35.8739 35.3704C34.1355 35.512 30.2329 39.7955 29.3104 40.7513C33.8517 35.512 33.0002 36.8572 35.9094 34.8394C36.1932 34.627 36.0868 34.3084 35.8385 33.9898C35.5901 33.6712 33.6388 33.1755 33.3904 33.3525C33.0357 33.565 30.1264 32.7507 26.6495 32.3259C27.3591 32.3259 28.2815 32.3613 29.0621 32.4675C30.6231 32.7153 34.5612 33.3525 35.3063 33.4587Z" fill="#FFF6D3"/>
<path d="M34.6322 34.2369C34.1355 33.6351 31.9714 33.7059 30.8715 33.6351C29.7717 33.5643 26.8979 33.1749 25.5143 33.2811C24.1306 33.3873 22.8179 32.4669 21.7181 33.4227C20.6182 34.3431 22.2857 35.5113 23.3856 35.5821C24.4854 35.6529 23.5275 36.7504 24.7692 37.6708C26.011 38.5912 26.5431 38.3434 26.6496 39.724C26.756 41.1046 28.8138 39.7948 30.6941 37.8478C32.5745 35.9007 35.1644 34.8741 34.6322 34.2369Z" fill="#D2ED62"/>
<path d="M30.836 40.5382C29.5942 42.0958 28.2815 44.2906 29.4168 44.149C30.5521 44.0074 31.0843 42.2728 31.9358 42.4852C32.7873 42.6976 32.1487 44.6447 33.0002 44.3614C33.8516 44.1136 34.3838 42.8038 34.5612 43.3348C34.7386 43.8658 34.9515 41.7772 35.4127 40.255C37.0802 34.8741 33.9936 36.5379 30.836 40.5382Z" fill="#D2ED62"/>
<path d="M38.109 37.2465C37.5414 37.1403 36.9737 38.5917 36.8318 40.1139C36.6544 41.6361 36.619 40.9989 36.2287 42.8044C35.8384 44.6098 36.3351 46.4506 36.6544 45.6718C36.9737 44.893 38.0736 44.2912 38.0381 43.2292C38.0026 42.2026 38.6057 42.4858 39.2089 42.8398C39.812 43.1938 39.9184 42.5212 40.4506 42.8752C40.9828 43.2292 41.7633 45.3886 42.6503 46.5215C43.5372 47.6543 44.4952 49.0703 43.963 47.4065C43.4308 45.7426 41.8698 43.5832 41.0538 42.3796C40.2732 41.2113 38.8541 37.3881 38.109 37.2465Z" fill="#D2ED62"/>
<path d="M39.5991 36.5378C39.6346 36.5732 39.7056 36.644 39.741 36.6794C39.8829 36.821 40.0603 36.9981 40.3087 37.2105C41.0892 37.9539 40.6635 37.4583 42.0117 38.9805C43.5017 40.6797 44.9209 41.2815 46.5174 43.1224C46.5884 43.6888 46.5884 43.972 46.5884 44.0074C46.6948 46.2022 46.3755 44.7154 46.7658 45.8128C47.1206 46.8395 47.7946 48.0785 47.1915 48.3617C46.6593 48.6095 46.3755 48.1847 45.595 47.1227C44.6371 45.8128 44.2468 45.2818 42.9696 42.202C42.6148 41.3523 40.8763 40.0425 40.3796 38.8743C40.0249 38.0955 39.6701 37.3875 39.5991 36.6794C39.5991 36.644 39.5991 36.6086 39.5991 36.5378Z" fill="#D2ED62"/>
<path d="M32.2551 29.9534C31.7229 29.9534 31.3681 29.5994 31.0133 29.2808C29.878 28.1834 28.4589 28.0772 27.6783 26.9089C29.4168 27.9356 30.3747 27.7586 31.2971 29.033C31.581 29.387 31.8293 29.741 32.2551 29.9534Z" fill="#FEEE99"/>
<path d="M34.5257 31.9707C34.3128 31.9707 34.1354 31.9353 33.9225 31.9353C32.3615 31.8999 33.1775 31.5459 30.1263 30.2361C30.8004 30.1653 31.6164 30.3423 32.4679 30.9087C32.8227 31.1565 33.1065 31.4043 33.4258 31.5459C33.5678 31.6167 33.7806 31.6521 33.9935 31.7229C34.1709 31.7583 34.3483 31.8291 34.5257 31.9707Z" fill="#FEEE99"/>
<path d="M24.8401 23.3338C25.4432 23.2984 26.1528 23.5816 26.7559 24.2188C27.3236 24.856 27.7848 24.856 28.4234 25.2809C28.8492 25.5995 29.062 25.9889 29.1685 26.5199C28.317 25.1393 27.3236 25.6703 26.4366 24.502C26.2947 24.325 26.1528 24.1834 26.0109 24.0418C25.6561 23.7586 25.2658 23.5108 24.8401 23.3338Z" fill="#FEEE99"/>
<path d="M29.6651 29.317C27.3945 29.6002 27.6783 28.6798 24.6272 26.9451C25.4077 27.0159 26.2947 27.3699 27.2526 28.1488C27.6074 28.4674 27.9622 28.7506 28.3524 28.9276C28.7072 29.1046 29.2039 29.2108 29.6651 29.317Z" fill="#FEEE99"/>
<path d="M29.878 31.6531C28.9201 31.9009 28.4944 32.2196 24.7336 31.0867C25.1594 31.0159 25.6206 31.0159 26.0463 31.0513C26.4721 31.0867 26.9333 31.1575 27.359 31.2637L27.9977 31.4407C28.2105 31.5115 28.3879 31.5469 28.6008 31.5823C28.9911 31.5469 29.4523 31.5823 29.878 31.6531Z" fill="#FEEE99"/>
<path d="M26.5785 29.1392L24.3079 29.1038C23.9177 29.1038 23.5274 29.0684 23.1371 28.9976C22.7469 28.9268 22.3566 28.856 22.0018 28.679C22.7824 28.6082 23.5274 28.6082 24.3079 28.6082C25.1239 28.6436 25.8335 28.7498 26.5785 29.1392Z" fill="#FEEE99"/>
<path d="M26.1883 26.3423C25.1239 26.0591 23.8112 25.7051 23.5629 24.9617C24.3434 25.3511 25.6206 25.3865 26.1883 26.3423Z" fill="#FEEE99"/>
<path d="M24.3079 30.3073C24.095 30.3427 23.8822 30.3073 23.7048 30.3073C23.5274 30.2719 23.3145 30.2011 23.1371 30.1303C22.9597 30.0595 22.7823 29.9533 22.6404 29.8471C22.463 29.7409 22.3211 29.5993 22.1792 29.4577C22.6049 29.4223 22.9597 29.5285 23.3145 29.6701C23.6693 29.8117 24.0241 29.9887 24.3079 30.3073Z" fill="#FEEE99"/>
<path d="M31.3327 34.4862C30.9424 34.8756 30.4812 34.8756 29.9845 34.911C29.0266 34.9464 28.7073 35.1234 28.0687 35.3712C27.3946 35.619 26.6496 35.796 25.9755 35.6898C26.4367 35.5482 26.8624 35.4066 27.2882 35.2296C28.2106 34.8756 28.8137 34.38 30.02 34.557C30.4812 34.5924 30.907 34.6632 31.3327 34.4862Z" fill="#FEEE99"/>
<path d="M34.3838 34.238C34.2419 34.3796 34.1 34.5212 33.9581 34.6628C32.8583 35.7603 33.1421 34.9461 30.0909 36.2559C30.3393 35.9373 30.6941 35.6895 31.0489 35.4771C31.4036 35.2647 31.7939 35.1231 32.2196 35.0169C32.6454 34.9106 33.0002 34.9107 33.3195 34.769C33.4614 34.6982 33.6388 34.592 33.8162 34.4858C33.9581 34.3796 34.171 34.3088 34.3838 34.238Z" fill="#FEEE99"/>
<path d="M26.7204 34.3793C26.2592 34.2731 25.8335 34.2731 25.4077 34.4147C25.0175 34.5563 24.5917 34.8041 24.095 34.9103C23.8467 34.9811 23.5629 34.9811 23.35 34.9457C23.1371 34.9103 22.9243 34.9103 22.7114 34.9457C22.2856 34.9811 21.8244 35.0874 21.3987 35.2644C21.718 34.9103 22.1792 34.6979 22.6404 34.5563C22.8888 34.4855 23.1371 34.4855 23.3855 34.4855C23.5983 34.4855 23.8112 34.4855 23.9886 34.4147C24.3789 34.3085 24.8046 34.0961 25.3013 34.0253C25.5497 33.9899 25.798 33.9899 26.0464 34.0253C26.3302 34.0961 26.5431 34.2377 26.7204 34.3793Z" fill="#FEEE99"/>
<path d="M29.0975 35.9362C28.8137 36.3256 28.4944 36.715 28.0687 36.9628C27.6074 37.246 27.1107 37.3168 26.6495 37.3522C26.1883 37.3876 25.7271 37.4585 25.2659 37.5647C24.8046 37.6709 24.3434 37.7771 23.8822 37.9187C24.2725 37.6001 24.6982 37.3877 25.1594 37.2106C25.3723 37.1044 25.6206 37.069 25.869 36.9982C26.1173 36.9274 26.3657 36.9274 26.5786 36.892C27.0398 36.8566 27.501 36.7858 27.8913 36.6442C28.2815 36.4672 28.6718 36.184 29.0975 35.9362Z" fill="#FEEE99"/>
<path d="M30.9423 37.3884C30.7295 37.7778 30.5166 38.1318 30.2328 38.4858C29.9135 38.8753 29.5232 39.0877 29.1684 39.3001C28.4588 39.7603 27.7493 40.2205 26.9688 40.6807C27.2171 40.3267 27.5364 40.0081 27.8557 39.6895C28.175 39.4063 28.5298 39.1231 28.9201 38.8753L29.4877 38.5567C29.6651 38.4504 29.8425 38.3442 29.9844 38.2026C30.2328 37.9902 30.5521 37.6362 30.9423 37.3884Z" fill="#FEEE99"/>
<path d="M26.8269 38.0264C26.543 38.3096 26.2947 38.5928 26.0109 38.8406C25.7625 39.0884 25.4787 39.3716 25.2303 39.6548C24.982 39.938 24.6627 40.1858 24.3789 40.4336C24.0595 40.6814 23.7402 40.8584 23.35 41.0354C23.8467 40.4336 24.3434 39.8672 24.8755 39.3362C25.1594 39.053 25.4432 38.8052 25.7625 38.5928C26.0818 38.345 26.4366 38.168 26.8269 38.0264Z" fill="#FEEE99"/>
<path d="M24.5563 36.3626C24.3079 36.5042 24.0951 36.6104 23.8822 36.7166C23.6693 36.8228 23.4565 36.9644 23.2436 37.0706C22.7824 37.283 22.2147 37.5308 21.718 37.3184C22.1792 37.1768 22.4631 36.929 23.0307 36.6458C23.2436 36.5396 23.4919 36.4334 23.7758 36.398C24.0241 36.3272 24.2725 36.2918 24.5563 36.3626Z" fill="#FEEE99"/>
<path d="M26.0818 40.4685C25.9754 40.6455 25.798 40.7871 25.6561 40.8933C25.5141 40.9995 25.3367 41.1057 25.1594 41.1765C24.982 41.2473 24.8046 41.3181 24.6272 41.3535C24.4498 41.3889 24.2369 41.4243 24.024 41.3889C24.3079 41.0703 24.6272 40.8933 24.982 40.7163C25.3013 40.5747 25.6561 40.4685 26.0818 40.4685Z" fill="#FEEE99"/>
<path d="M33.3195 38.7684C33.284 39.6889 32.3971 40.0075 31.7939 41.0341C31.6875 41.2111 31.6165 41.4235 31.5101 41.6359C31.4037 41.8483 31.2972 42.0607 31.1553 42.2377C30.907 42.6271 30.5877 43.0165 30.1974 43.2997C30.4457 42.9103 30.6231 42.4855 30.836 42.0607C31.0489 41.6359 31.1553 41.2465 31.4037 40.7863C31.652 40.3615 32.0068 39.9721 32.3971 39.6889C32.7518 39.441 33.1066 39.1932 33.3195 38.7684Z" fill="#FEEE99"/>
<path d="M35.3773 36.5378C35.1999 39.0513 35.058 37.6353 33.6033 40.9275C33.5679 40.5027 33.6388 40.1133 33.7453 39.7239C33.8517 39.3345 34.0646 38.9451 34.2774 38.5911C34.5258 38.2371 34.7741 37.9893 34.916 37.6707C34.987 37.5291 35.0225 37.3167 35.0934 37.1043C35.1644 36.8918 35.2354 36.7148 35.3773 36.5378Z" fill="#FEEE99"/>
<path d="M29.8426 41.8121C29.4168 42.0599 29.133 42.3431 28.9201 42.7326C28.7073 43.122 28.6008 43.5468 28.317 43.9716C28.1751 44.184 27.9977 44.361 27.7848 44.5026C27.6074 44.6442 27.4655 44.7858 27.2881 44.9274C27.0043 45.246 26.756 45.6 26.5431 46.0602C26.5431 45.6 26.7205 45.1044 26.9688 44.715C27.1107 44.5026 27.2881 44.3256 27.4655 44.1486C27.6429 44.007 27.7494 43.8654 27.8913 43.6884C28.1396 43.3344 28.2815 42.9096 28.5654 42.5201C28.7073 42.3077 28.9201 42.1661 29.133 42.0245C29.3814 41.9183 29.6297 41.8475 29.8426 41.8121Z" fill="#FEEE99"/>
<path d="M32.6809 41.3523C32.7519 41.8125 32.7519 42.3081 32.61 42.8037C32.4681 43.2993 32.1487 43.7241 31.8294 44.0781C31.5101 44.4322 31.2263 44.7862 30.978 45.1756C30.7296 45.565 30.4813 45.9544 30.2329 46.3792C30.3039 45.8836 30.4458 45.4234 30.6587 44.9986C30.7651 44.7862 30.8715 44.5738 31.0134 44.3614C31.1553 44.149 31.3327 43.9719 31.4747 43.7949C31.794 43.4409 32.0778 43.0869 32.2552 42.6975C32.4326 42.3081 32.539 41.8125 32.6809 41.3523Z" fill="#FEEE99"/>
<path d="M34.9869 41.1753C35.3417 42.6975 35.2708 42.7329 35.0224 43.7949C34.8096 44.6092 34.6322 45.4588 34.3483 46.273C34.2774 45.8482 34.2774 45.388 34.3129 44.9632C34.3483 44.5384 34.4193 44.0782 34.5257 43.6533L34.7031 43.0161C34.9869 42.2373 34.8096 42.0249 34.9869 41.1753Z" fill="#FEEE99"/>
<path d="M32.4326 44.4324C32.4326 44.8218 32.3971 45.2113 32.3971 45.5653C32.3971 45.9547 32.3971 46.3087 32.3616 46.6981C32.3616 47.0875 32.3261 47.4769 32.2552 47.8663C32.1842 48.2557 32.0778 48.6451 31.9359 48.9991C31.8649 48.2203 31.8649 47.4769 31.9004 46.6981C31.9004 46.3087 31.9359 45.9193 32.0423 45.5299C32.1132 45.1759 32.2552 44.7864 32.4326 44.4324Z" fill="#FEEE99"/>
<path d="M29.6297 44.7859C29.5588 45.0337 29.4878 45.2815 29.3814 45.4939C29.3104 45.7063 29.2394 45.9541 29.133 46.1665C29.0621 46.3789 28.9556 46.6267 28.8137 46.8391C28.6718 47.0515 28.4589 47.2639 28.2106 47.3701C28.3525 47.1223 28.4234 46.9099 28.4944 46.6975C28.5654 46.4851 28.6363 46.2373 28.7073 45.9895C28.8137 45.7417 28.9201 45.5293 29.0621 45.3169C29.204 45.1045 29.3814 44.9275 29.6297 44.7859Z" fill="#FEEE99"/>
<path d="M33.5679 46.6978C33.6033 46.9102 33.5679 47.1226 33.5324 47.2996C33.4969 47.4766 33.426 47.689 33.355 47.866C33.284 48.043 33.1776 48.22 33.0712 48.3616C32.9647 48.5032 32.8228 48.6802 32.6809 48.8218C32.6809 48.397 32.7873 48.043 32.9293 47.689C33.0712 47.335 33.2486 47.0164 33.5679 46.6978Z" fill="#FEEE99"/>
<path d="M38.0026 41.4597C38.2865 41.9199 38.2155 42.3801 38.1446 42.8757C38.0026 43.8316 38.1091 44.1148 38.2155 44.8582C38.322 45.5662 38.3574 46.3096 38.1091 46.9822C38.0736 46.522 38.0026 46.0618 37.8962 45.6016C37.7188 44.6458 37.364 43.9378 37.7898 42.7695C37.9317 42.3447 38.0736 41.9553 38.0026 41.4597Z" fill="#FEEE99"/>
<path d="M38.3574 38.45C39.7056 40.574 38.7477 39.5474 39.4573 43.052C39.2089 42.7334 38.996 42.3794 38.8541 41.99C38.7122 41.6006 38.6412 41.1758 38.6412 40.7864C38.6412 40.3616 38.6767 40.0076 38.6058 39.6536C38.5703 39.2996 38.3574 38.981 38.3574 38.45Z" fill="#FEEE99"/>
<path d="M36.9738 45.9559C36.7609 46.3807 36.69 46.8055 36.7609 47.2303C36.8319 47.6551 36.9738 48.0799 37.0093 48.6109C37.0093 48.8587 36.9738 49.1419 36.9028 49.3543C36.8319 49.5667 36.7964 49.7791 36.7609 49.9916C36.69 50.4164 36.7254 50.8766 36.8319 51.3368C36.548 50.9474 36.4061 50.4872 36.4061 49.9916C36.4061 49.7437 36.4416 49.4959 36.4771 49.2481C36.5126 49.0357 36.548 48.8587 36.548 48.6463C36.548 48.2215 36.4061 47.7967 36.4061 47.2657C36.4061 47.0179 36.4771 46.7701 36.5835 46.5577C36.619 46.3099 36.7964 46.1329 36.9738 45.9559Z" fill="#FEEE99"/>
<path d="M38.9961 43.9373C39.8831 44.9285 40.025 45.4949 39.9185 46.6277C39.8831 47.0879 39.8476 47.5481 39.8476 48.0083C39.8476 48.4685 39.8831 48.9288 39.9185 49.4244C39.6702 48.9996 39.5637 48.5393 39.4573 48.0437C39.4218 47.7959 39.3864 47.5481 39.3864 47.3003C39.3864 47.0525 39.3864 46.8047 39.4218 46.5569C39.5283 45.1409 39.3864 45.2117 38.9961 43.9373Z" fill="#FEEE99"/>
<path d="M40.77 42.4509C41.5151 43.0881 42.0472 43.2651 43.218 46.9822C42.6504 46.3804 42.1537 45.5308 41.8699 44.752C41.1248 42.8049 41.2312 43.4775 40.77 42.4509Z" fill="#FEEE99"/>
<path d="M40.5925 46.5927C40.8409 46.9113 41.0183 47.2299 41.2311 47.5485C41.444 47.8671 41.6569 48.1503 41.8698 48.469C42.0826 48.7876 42.2955 49.1062 42.4729 49.4602C42.6503 49.8142 42.7922 50.1682 42.8632 50.5576C42.3665 49.9558 41.9407 49.354 41.4795 48.7168C41.2666 48.3981 41.0537 48.0441 40.9118 47.6901C40.7344 47.3715 40.628 46.9821 40.5925 46.5927Z" fill="#FEEE99"/>
<path d="M38.4994 48.5046C38.6058 48.7524 38.6413 49.0002 38.7122 49.2127C38.7832 49.4605 38.8542 49.6729 38.9251 49.9207C38.9961 50.1685 39.0316 50.4163 39.067 50.6641C39.067 50.9119 39.0316 51.2305 38.8896 51.4429C38.8542 51.1597 38.7832 50.9473 38.7122 50.7349C38.6413 50.5225 38.5349 50.2747 38.4994 50.0269C38.4284 49.7791 38.3929 49.5313 38.3929 49.2481C38.3575 49.0003 38.3929 48.7524 38.4994 48.5046Z" fill="#FEEE99"/>
<path d="M42.8277 47.7956C43.1116 48.0788 43.2535 48.4682 43.3244 48.8576C43.3599 49.0346 43.3954 49.247 43.3954 49.424C43.3954 49.601 43.3954 49.8134 43.3244 50.0258C43.0761 49.6718 42.9342 49.3178 42.8632 48.9638C42.7923 48.5744 42.7568 48.185 42.8277 47.7956Z" fill="#FEEE99"/>
<path d="M43.8211 44.1148C44.0695 45.3538 44.779 45.46 45.4176 46.2389C45.9498 46.8761 45.8079 47.6195 46.8723 48.5399C45.666 48.1859 45.3822 46.9823 45.0274 46.5221C44.6371 46.0264 43.9985 45.6016 43.8211 44.8228C43.7502 44.575 43.7856 44.3272 43.8211 44.1148Z" fill="#FEEE99"/>
<path d="M40.9474 39.2996C41.1603 39.3704 41.3731 39.5474 41.515 39.7244C41.657 39.9014 41.7989 40.1492 41.8698 40.3262C42.6858 41.9192 43.8566 42.2024 44.2469 43.6539C42.9697 42.167 41.9763 41.9546 41.515 40.4678C41.4086 40.043 41.3022 39.6536 40.9474 39.2996Z" fill="#FEEE99"/>
<path d="M44.5662 42.4148C46.8013 42.875 46.3046 43.6892 48.5752 46.3089C46.8368 45.4947 46.482 43.937 45.7369 43.229C45.3822 42.9104 44.9564 42.698 44.5662 42.4148Z" fill="#FEEE99"/>
<path d="M46.8368 46.663C47.6883 47.2294 48.8945 48.079 48.8945 48.8224C48.2914 48.1852 47.0851 47.725 46.8368 46.663Z" fill="#FEEE99"/>
<path d="M42.402 40.114C42.6148 40.1494 42.7922 40.2202 42.9696 40.3264C43.147 40.4326 43.2889 40.5388 43.4309 40.645C43.7147 40.8928 43.9985 41.2114 44.1049 41.6008C43.6792 41.4946 43.3954 41.2822 43.1115 40.999C42.8632 40.7512 42.6148 40.468 42.402 40.114Z" fill="#FEEE99"/>
<path d="M53.9324 41.3185C53.8969 41.3185 53.0099 41.0706 52.6551 40.9998C52.2294 40.8936 51.7682 40.6812 51.3424 40.4334C51.307 40.4334 51.307 40.398 51.2715 40.398C50.7393 40.0794 50.2781 39.7962 50.0297 39.6546C43.8565 36.681 45.3466 31.1938 48.717 28.3618C51.3424 26.1315 53.6485 27.1582 54.9967 28.2202C55.3515 28.5034 55.6708 28.822 55.8482 29.0344C56.0256 29.2114 56.132 29.353 56.132 29.3884C56.132 29.3884 56.4159 29.3176 56.9126 29.3884C57.4447 29.4592 58.2607 29.6716 59.1477 30.2734C59.2541 30.3442 59.3606 30.415 59.4315 30.4858C59.538 30.5566 59.6089 30.6274 59.6799 30.6982C60.354 31.2292 60.9216 31.8311 61.3119 32.4329C62.4827 34.2029 62.5182 36.2561 61.4893 37.8846C60.1056 40.2918 58.0479 42.6991 53.9324 41.3185Z" fill="#D32A32"/>
<path d="M53.9324 41.3183C53.8969 41.3183 53.0099 41.0705 52.6551 40.9997C52.2294 40.8935 51.7682 40.6811 51.3424 40.4333C51.307 40.4333 51.307 40.3979 51.2715 40.3979C53.0809 40.7873 55.5289 40.2209 56.8061 39.1942C59.1832 37.2472 59.8573 35.3002 59.467 33.1407C59.2187 31.7955 58.3317 30.5565 56.948 29.4236C57.4802 29.4944 58.2962 29.7069 59.1832 30.3087C59.2896 30.3795 59.396 30.4503 59.467 30.5211C59.5734 30.5919 59.6444 30.6627 59.7154 30.7335C60.354 31.2291 60.8861 31.8309 61.3474 32.4681C62.5181 34.2381 62.5536 36.2914 61.5248 37.9198C60.1056 40.2917 58.0479 42.6989 53.9324 41.3183Z" fill="#BE2225"/>
<path d="M57.6576 31.441C55.2451 30.2728 55.6708 28.963 55.0322 28.2195C55.387 28.5027 55.7063 28.8214 55.8837 29.0338C55.9901 29.14 56.0611 29.2816 56.1675 29.3878C56.7352 30.025 56.4159 29.671 57.0545 30.2374C57.6931 30.8038 59.2542 30.9454 59.9283 31.264C60.6023 31.618 59.2896 32.2198 57.6576 31.441Z" fill="#870F16"/>
<path d="M51.4489 28.8218C50.1717 28.6802 47.6882 29.4236 47.4753 32.4327C47.2625 35.4418 49.1783 37.8844 52.0521 38.4154C54.9258 38.9464 56.8062 37.4596 57.4803 35.0878C58.1189 32.7159 55.9192 32.8221 54.571 30.9459C53.1874 29.0342 52.0521 28.8926 51.4489 28.8218Z" fill="#E04655"/>
<path d="M50.9166 30.0614C49.5685 30.3446 48.2558 32.3625 49.0718 34.4865C49.8878 36.6105 52.1584 37.2124 54.1452 36.4335C56.132 35.6547 54.8902 32.9997 53.9678 31.619C53.0099 30.2384 51.7326 29.8844 50.9166 30.0614Z" fill="#F95F75"/>
<path d="M52.3359 31.0871C51.236 30.8392 50.6684 30.91 50.562 32.1491C50.4555 33.3881 51.6263 33.3173 52.4068 32.7863C53.1874 32.3261 52.7971 31.1933 52.3359 31.0871Z" fill="white"/>
<path d="M51.6617 28.2912C50.9876 28.1496 50.6683 28.185 50.5973 28.9285C50.5264 29.6719 51.236 29.6365 51.6972 29.3179C52.1584 28.9993 51.9455 28.3266 51.6617 28.2912Z" fill="white"/>
<path d="M56.3449 32.0084C56.3804 31.8314 56.3449 31.7606 56.1675 31.7606C55.9901 31.7606 55.9901 31.9376 56.0966 32.0438C56.1675 32.15 56.3449 32.0792 56.3449 32.0084Z" fill="white"/>
<path d="M54.2161 40.0788C54.2516 39.9018 54.2161 39.831 54.0387 39.831C53.8613 39.831 53.8613 40.008 53.9678 40.1142C54.0387 40.2204 54.1807 40.1496 54.2161 40.0788Z" fill="white"/>
<path d="M60.7088 35.2651C60.7442 34.9465 60.7088 34.7695 60.354 34.8049C59.9992 34.8049 60.0347 35.1235 60.2121 35.3359C60.3895 35.5129 60.6733 35.3713 60.7088 35.2651Z" fill="white"/>
<path d="M60.0347 26.5925C59.9992 26.5571 59.2187 26.0969 58.8994 25.9199C58.5446 25.7075 58.1188 25.3889 57.7995 24.9995L57.764 24.9641C57.3383 24.5393 56.9835 24.1145 56.7706 23.9375C51.6263 19.4062 54.571 14.5209 58.6155 12.7154C61.7731 11.2994 63.6889 12.9278 64.6823 14.2731C64.9662 14.6625 65.179 15.0165 65.2855 15.2997C65.3919 15.5121 65.4629 15.6891 65.4629 15.7245C65.4629 15.7245 65.7467 15.7599 66.2079 15.9369C66.7046 16.1493 67.4142 16.5741 68.1238 17.4237C68.1947 17.5299 68.2657 17.6007 68.3366 17.7069C68.4076 17.7777 68.4785 17.8839 68.5495 17.9901C69.0462 18.6982 69.4365 19.4062 69.6493 20.1142C70.2879 22.132 69.7558 24.1145 68.3366 25.4243C66.2434 27.3005 63.618 29.0706 60.0347 26.5925Z" fill="#D32A32"/>
<path d="M60.0347 26.5929C59.9992 26.5575 59.2187 26.0973 58.8993 25.9203C58.5446 25.7079 58.1188 25.3892 57.7995 24.9998L57.764 24.9644C59.396 25.8495 61.915 25.9557 63.4051 25.3184C66.2434 24.1148 67.4142 22.3802 67.627 20.2207C67.769 18.8755 67.2368 17.4241 66.2079 15.9373C66.7046 16.1497 67.4142 16.5745 68.1237 17.4241C68.1947 17.5303 68.2657 17.6011 68.3366 17.7073C68.4076 17.7781 68.4785 17.8843 68.5495 17.9905C69.0107 18.6631 69.401 19.3711 69.6493 20.1145C70.2879 22.1324 69.7557 24.1148 68.3366 25.4247C66.2434 27.3009 63.618 29.0709 60.0347 26.5929Z" fill="#BE2225"/>
<path d="M66.2788 18.0965C64.292 16.3264 65.0371 15.1582 64.6113 14.2732C64.8952 14.6626 65.108 15.0166 65.2145 15.2998C65.2854 15.4414 65.3209 15.583 65.3919 15.7246C65.7466 16.5034 65.5692 16.0432 65.995 16.7866C66.4562 17.4947 67.9108 18.0965 68.4785 18.5567C69.0816 19.0523 67.6625 19.3001 66.2788 18.0965Z" fill="#870F16"/>
<path d="M61.0636 13.8839C59.8573 13.3883 57.2674 13.4591 56.2385 16.2558C55.2096 19.0878 56.3804 21.9553 59.0058 23.2297C61.6312 24.5042 63.8664 23.6191 65.1081 21.4951C66.3853 19.371 64.2212 18.9108 63.4406 16.716C62.6601 14.5565 61.5958 14.0963 61.0636 13.8839Z" fill="#E04655"/>
<path d="M60.2121 14.9452C58.8284 14.839 57.019 16.432 57.2319 18.6977C57.4448 20.9633 59.4316 22.1669 61.5603 21.9545C63.689 21.7421 63.2278 18.8393 62.6956 17.2816C62.1634 15.6886 61.0281 14.9806 60.2121 14.9452Z" fill="#F95F75"/>
<path d="M61.2764 16.3276C60.283 15.7966 59.7153 15.7258 59.2896 16.894C58.8638 18.0622 59.9992 18.31 60.8861 18.0268C61.7731 17.7436 61.7021 16.54 61.2764 16.3276Z" fill="white"/>
<path d="M61.3829 13.4233C60.7798 13.1047 60.4605 13.0693 60.1766 13.7419C59.9283 14.4499 60.6024 14.5915 61.1346 14.4145C61.6667 14.2729 61.6667 13.5649 61.3829 13.4233Z" fill="white"/>
<path d="M64.8952 18.273C64.9661 18.1314 64.9661 18.0252 64.7887 17.9898C64.6113 17.9544 64.5759 18.096 64.6468 18.2376C64.6823 18.3792 64.8597 18.3438 64.8952 18.273Z" fill="white"/>
<path d="M60.6378 25.4945C60.7088 25.3529 60.7088 25.2467 60.5314 25.2113C60.354 25.1759 60.3185 25.3175 60.3895 25.4591C60.425 25.5653 60.6024 25.5653 60.6378 25.4945Z" fill="white"/>
<path d="M68.1948 22.5924C68.3367 22.3092 68.3367 22.1322 67.9819 22.026C67.6271 21.9198 67.5916 22.2738 67.6981 22.4862C67.8045 22.7694 68.1593 22.734 68.1948 22.5924Z" fill="white"/>
<path d="M66.9531 16.2545C66.6692 16.7147 66.3854 17.175 66.1371 17.5998C66.1016 17.5998 65.7823 17.529 65.321 16.5731C65.5339 16.2545 65.7468 15.9359 65.9597 15.6173C69.2237 10.6258 72.5587 5.70512 76.0001 0.819824C73.0908 6.02373 70.0397 11.1568 66.9531 16.2545Z" fill="#C9A273"/>
<path d="M57.7286 31.2283C57.7286 31.2283 57.1255 31.5115 56.4514 30.4141L59.1833 26.1306L60.4605 26.9094L57.7286 31.2283Z" fill="#C9A273"/>
<path d="M50.491 39.9021L51.6973 40.6101C50.42 42.5572 49.1783 44.5396 47.8656 46.4866C44.6016 51.4781 41.2666 56.3988 37.8252 61.2841C40.7344 56.0802 43.7856 50.9471 46.8722 45.8494C48.043 43.867 49.2493 41.8845 50.491 39.9021Z" fill="#C9A273"/>
<path opacity="0.6" d="M36.619 41.0706C19.8731 41.0706 5.89462 39.513 2.808 37.4243C2.02747 43.23 2.77252 49.8854 7.88142 54.9831C12.7065 59.833 21.3987 63.3376 36.4061 63.4085C36.548 63.4085 37.0447 63.4085 37.1866 63.4085C37.7543 63.4085 38.3219 63.4084 38.8896 63.373C52.8326 63.019 61.0636 59.656 65.7113 54.9831C70.8557 49.8146 71.5652 43.053 70.7492 37.1765C68.3012 39.3714 53.9324 41.0706 36.619 41.0706Z" fill="url(#paint1_linear_1_3619)"/>
<path opacity="0.3" d="M67.7691 57.6026C62.5892 62.4879 53.2584 65.9572 37.1867 66.0988H36.3352C30.4458 66.0634 25.4433 65.5678 21.2214 64.7181L19.3055 61.3197C36.2997 61.8153 48.2205 61.1073 56.2031 52.7527C62.9086 45.7787 60.3896 36.433 57.0191 29.7776C57.6577 29.7068 58.2609 29.6006 58.8285 29.4944C61.0282 29.1404 62.7666 28.751 64.0793 28.3262C64.2922 28.2554 64.4696 28.22 64.647 28.1492C64.7889 28.1138 64.9308 28.043 65.0373 28.0076C65.463 27.866 65.8178 27.7244 66.1016 27.5828C66.208 27.5474 66.3145 27.4766 66.4209 27.4412C66.8821 27.1934 67.2014 26.981 67.4143 26.7686C67.6272 26.5562 67.7336 26.3438 67.7336 26.1667H68.3722C68.3722 26.1667 68.3722 26.2022 68.4077 26.2376C69.2592 27.5828 79.7253 46.2744 67.7691 57.6026Z" fill="#D8D8D8"/>
<path d="M69.543 52.2927C66.5983 58.0984 58.1899 62.1341 48.2559 63.5502C38.2865 64.9308 27.1462 62.8421 27.1462 62.8421C39.7411 62.8421 52.0166 62.8422 60.1057 57.6382C68.1948 52.4343 69.472 47.4782 69.1172 39.7609C68.8689 34.5216 67.5207 30.7691 66.1371 28.3264C66.0306 28.114 65.8887 27.9016 65.7823 27.7246C65.9242 27.6538 66.0661 27.6184 66.208 27.5476C66.3144 27.5122 66.4209 27.4414 66.5273 27.406C67.4498 26.9458 67.84 26.4856 67.84 26.1316C67.84 26.0962 67.84 26.0608 67.84 26.0254C67.84 25.99 67.8045 25.9546 67.8045 25.9192L67.8755 25.8484C67.9819 26.0962 68.1238 26.4502 68.3012 26.875C68.7625 28.0078 69.4366 29.7779 70.359 32.5037C72.3813 38.4864 72.5232 46.4516 69.543 52.2927Z" fill="white"/>
<path d="M67.7691 57.603C62.6247 62.4883 53.2584 65.9575 37.1866 66.0991H36.3352C31.2617 66.0637 26.8269 65.6743 23.0307 65.0371C22.9953 65.0371 22.9953 65.0371 22.9953 65.0371C14.7643 63.6211 9.30058 60.966 5.75274 57.6384C-6.66472 45.9207 5.04317 26.1671 5.04317 26.1671H5.75274C5.75274 26.2733 5.78822 26.4149 5.89465 26.5565C3.41116 32.256 -1.0946 45.9915 7.88144 54.9833C12.7065 59.7978 21.3987 63.3379 36.4061 63.4087C36.548 63.4087 37.0447 63.4087 37.1866 63.4087C37.7543 63.4087 38.3219 63.3733 38.8896 63.3733C52.8326 63.0193 61.0636 59.6562 65.7113 54.9833C74.6519 46.0269 70.1816 32.3268 67.6626 26.5211C67.7691 26.3795 67.84 26.2379 67.84 26.0963H68.4786C68.4786 26.0963 68.4786 26.1317 68.5141 26.1671C69.2591 27.5831 79.7253 46.2747 67.7691 57.603Z" fill="#E5E5E5"/>
<path d="M67.7691 57.6028C62.6247 62.4881 53.2584 65.9574 37.1867 66.099C37.1512 66.099 37.3996 66.099 36.3352 66.099L38.8542 63.4086C52.7972 63.0546 61.0282 59.6915 65.6759 55.0186C74.6165 46.0622 70.1462 32.3621 67.6272 26.5564C67.7336 26.4148 67.8046 26.2732 67.8046 26.1316H68.4432C68.4432 26.1316 68.4432 26.167 68.4787 26.2024C69.2592 27.583 79.7253 46.2746 67.7691 57.6028Z" fill="#D6D6D6"/>
<path d="M67.7691 57.6028C62.6247 62.4881 53.2584 65.9574 37.1867 66.099H36.3352C31.2618 66.0636 26.827 65.6742 23.0308 65.037C23.8113 65.1432 36.2997 66.7008 46.7658 65.037C57.5513 63.3377 64.0793 60.5411 68.4787 55.8328C72.878 51.0891 73.2682 44.363 72.5232 39.6193C71.7781 34.8756 69.9687 30.1673 68.8334 27.6892C68.5851 27.1582 68.3367 26.6272 68.1239 26.1316H68.4432C68.4432 26.1316 68.4432 26.167 68.4787 26.2024C69.2592 27.583 79.7253 46.2746 67.7691 57.6028Z" fill="#BCBCBC"/>
<path opacity="0.3" d="M54.1808 42.4515C52.6552 54.5586 29.949 60.0103 14.4094 52.1513C-0.597941 44.5402 10.0456 28.5391 10.0456 28.5391L10.1875 28.5037C10.2939 28.5391 10.4359 28.5745 10.5423 28.6099C11.6776 28.8931 13.0613 29.1763 14.6933 29.4595C20.5827 30.4507 28.4589 30.9817 36.7963 30.9817C39.9539 30.9817 43.0405 30.9109 45.9498 30.7693C47.8656 30.6631 49.675 30.5569 51.4489 30.3799C52.8326 32.9996 54.9258 36.7166 54.1808 42.4515Z" fill="white"/>
<path opacity="0.2" d="M68.5141 26.2024C68.4786 26.167 68.4786 26.1316 68.4786 26.1316H67.84C67.84 27.9016 60.6024 29.1761 58.9349 29.4593C58.3318 29.5655 57.7287 29.6363 57.1255 29.7425C55.3871 29.9903 53.4713 30.2027 51.4845 30.3797C52.8681 33.0347 54.9614 36.7518 54.2163 42.4513C52.6907 54.5584 29.9845 60.0101 14.445 52.1511C-0.562416 44.54 10.0811 28.5388 10.0811 28.5388L10.223 28.5034C9.54894 28.3264 8.98129 28.1494 8.48459 27.9724C6.60423 27.2998 5.85918 26.6272 5.85918 26.1316H5.14961C5.14961 26.1316 -6.55827 45.8852 5.85918 57.6028C9.1232 60.6827 14.0547 63.2315 21.3278 64.683C25.5497 65.5326 30.5167 66.0282 36.4416 66.0636H37.2931C53.3648 65.9574 62.6957 62.4527 67.8755 57.5674C79.7253 46.2746 69.2592 27.583 68.5141 26.2024Z" fill="#D8D8D8"/>
<path d="M14.6933 29.459C14.6933 29.459 9.8682 40.1854 13.416 54.2395C13.416 54.2395 14.5514 37.5303 19.3409 30.8396L14.6933 29.459Z" fill="white"/>
<path d="M23.7403 31.1942C23.7403 31.1942 22.8888 37.7787 23.7403 43.3013C23.7403 43.3013 24.6627 35.6193 26.4721 31.1942H23.7403Z" fill="white"/>
<path d="M51.7683 30.9815C51.7683 30.9815 54.5711 36.8934 54.9259 46.0976C54.9259 46.0976 56.0612 37.9555 54.1099 30.8045L51.7683 30.9815Z" fill="white"/>
<path d="M25.1949 21.3164C34.1 20.6792 46.5175 20.8562 54.9613 21.9182L54.713 21.4934C45.3467 20.4314 34.7741 20.3252 24.8756 20.9624C24.9466 21.0332 24.982 21.104 25.1949 21.3164Z" fill="#D8D8D8"/>
<path d="M68.5141 26.1318C68.5141 26.1672 68.5141 26.238 68.4787 26.3796C67.0241 31.9375 30.9425 34.4864 8.94584 28.9285C5.46895 28.0435 4.97225 26.5566 5.11417 26.1318C6.35591 22.6272 16.2544 21.8129 22.0729 21.1757L21.5762 21.6359C3.12737 23.6538 3.05642 26.8044 10.8617 28.6453C17.1059 30.1321 28.2816 30.9817 38.6768 30.9817C49.7815 30.9817 63.4053 29.2471 66.4919 27.4062C67.1305 27.0168 67.982 26.5212 67.7691 25.884L68.3013 25.4238C68.3368 25.5654 68.4432 25.4946 68.5141 26.1318Z" fill="#D8D8D8"/>
<defs>
<linearGradient id="paint0_linear_1_3619" x1="2.15599" y1="36.5332" x2="71.0749" y2="36.5332" gradientUnits="userSpaceOnUse">
<stop stop-color="#F9E123"/>
<stop offset="0.9944" stop-color="#B3DB21"/>
</linearGradient>
<linearGradient id="paint1_linear_1_3619" x1="36.7702" y1="63.4081" x2="36.7702" y2="37.1892" gradientUnits="userSpaceOnUse">
<stop offset="0.00558659" stop-color="#B3DB21"/>
<stop offset="1" stop-color="#F9E123"/>
</linearGradient>
</defs>
</svg>
