<svg width="94" height="123" viewBox="0 0 94 123" fill="none" xmlns="http://www.w3.org/2000/svg">
<g filter="url(#filter0_d_1_3796)">
<path opacity="0.2" d="M89.4807 23.1544C89.4807 23.1972 86.5845 100.207 86.5845 100.121C86.5845 100.164 86.3716 101.879 86.3716 101.879L86.0308 102.737L85.5624 103.637C85.2216 104.066 85.0087 104.452 84.5402 104.923C80.2811 108.782 69.6761 111.827 56.3878 112.77C53.4065 112.984 50.2548 113.113 47.0605 113.113C28.4485 113.113 12.9455 109.34 8.64385 104.28L7.49391 101.45L4.51257 23.1544L6.98282 19.3382C13.2862 15.179 30.5354 12.9922 46.9753 12.9922C63.0746 12.9922 79.9404 15.0932 86.5419 19.0809L89.4807 23.1544Z" fill="#D8D8D8"/>
<path opacity="0.5" d="M86.4993 101.45C86.4993 101.493 86.3716 101.922 86.3716 101.879L86.2864 102.136C86.2438 102.179 85.9882 102.779 85.9882 102.736C85.8605 102.951 85.392 104.066 84.4976 104.923C80.2385 108.782 69.6335 111.827 56.3452 112.77C53.3639 112.984 50.2122 113.113 47.0179 113.113C28.4058 113.113 12.9029 109.34 8.60124 104.28C8.47347 104.109 8.3457 103.98 8.26051 103.808C7.96238 103.38 7.74943 102.951 7.62166 102.522C7.57907 102.436 7.57907 102.351 7.53647 102.265C7.53647 102.222 7.49388 102.136 7.49388 102.093C7.45129 101.836 7.45129 101.579 7.45129 101.493C7.45129 95.0612 25.1264 89.8729 47.0605 89.8729C50.2974 89.8729 53.4065 90.0016 56.4304 90.2159C73.5092 91.4165 86.116 95.6186 86.6271 100.936C86.4993 101.321 86.4993 101.45 86.4993 101.45Z" fill="#BFBFBF"/>
<path d="M46.9753 70.5775C67.1808 70.5775 83.5605 67.2947 83.5605 63.2453C83.5605 59.1958 67.1808 55.9131 46.9753 55.9131C26.7698 55.9131 10.39 59.1958 10.39 63.2453C10.39 67.2947 26.7698 70.5775 46.9753 70.5775Z" fill="#FFA227"/>
<path d="M82.8366 64.6604C79.5146 68.0478 64.7356 70.5776 46.9328 70.5776C28.7467 70.5776 13.627 67.9191 10.816 64.4031C11.029 70.6205 11.029 65.6895 11.753 86.7427C12.3919 97.7196 10.5605 100.335 17.7583 103.551C32.9205 110.326 68.441 108.396 77.1721 103.337C82.8792 100.121 82.4533 83.6126 82.4533 83.6126C82.4533 83.6126 82.6663 76.3662 83.1348 64.4889C83.0496 64.5317 82.9644 64.6175 82.8366 64.6604Z" fill="url(#paint0_linear_1_3796)"/>
<path opacity="0.4" d="M32.6223 104.108L18.9081 91.5451C18.5674 91.8024 18.1415 92.0168 17.7156 92.1025C17.7156 92.1025 17.7156 92.1025 17.673 92.1025C17.2897 92.1883 16.9064 92.1883 16.6082 91.9739C16.5656 91.931 16.5231 91.931 16.4805 91.8881L30.1946 104.451C30.5779 104.795 31.1742 104.752 31.6853 104.58C31.9834 104.494 32.3241 104.323 32.6223 104.108Z" fill="#D4D5D6"/>
<path opacity="0.6" d="M51.4047 88.5003L48.253 74.9508C48.2104 74.7364 48.0826 74.522 47.9549 74.3934L34.2407 61.83C34.3259 61.9158 34.3685 61.9587 34.4111 62.0444C34.4537 62.1302 34.4963 62.2588 34.5389 62.3446L37.6906 75.8941L51.4047 88.5003Z" fill="#D4D5D6"/>
<path opacity="0.4" d="M35.8166 79.4103L49.5308 92.0166L32.6224 104.108L18.9082 91.5449L35.8166 79.4103Z" fill="#D4D5D6"/>
<path opacity="0.6" d="M51.4047 88.5009L37.6905 75.8947C37.6905 75.9376 37.6905 76.0233 37.7331 76.0662C37.8183 76.7951 37.435 77.5669 37.0517 78.1672C36.7535 78.6389 36.3276 79.0677 35.8591 79.4107L49.5733 91.9741C49.6159 91.9741 49.6159 91.9312 49.6585 91.9312C49.9992 91.6739 50.2973 91.3738 50.5955 90.9879C51.4047 89.9588 51.4899 89.0583 51.4899 89.1012C51.4473 88.9297 51.4473 88.6724 51.4047 88.5009Z" fill="#F4F4F4"/>
<path opacity="0.4" d="M31.7705 62.1735C33.0482 61.273 34.2833 61.3588 34.5389 62.3879L37.6906 75.9374C37.9461 76.9665 37.0943 78.553 35.8166 79.4535L18.9082 91.5452C17.6305 92.4456 16.3953 92.3598 16.1398 91.3308L12.9881 77.7812C12.7325 76.7521 13.5844 75.1656 14.8621 74.2652L31.7705 62.1735Z" fill="#F4F4F4"/>
<path opacity="0.4" d="M34.5388 47.4677C34.5814 47.4677 34.5814 47.4248 34.624 47.4248L20.9524 34.8186C20.9098 34.8615 20.8673 34.8615 20.8247 34.9043C20.7821 34.9043 20.7821 34.9472 20.7395 34.9472C20.6969 34.9472 20.6969 34.9901 20.6543 34.9901C20.0154 35.376 19.0785 35.6333 18.5248 35.1616L32.1963 47.7678C32.8352 48.3681 33.9851 47.8107 33.9426 47.8107C34.1555 47.725 34.3685 47.5534 34.5388 47.4677Z" fill="#D4D5D6"/>
<path opacity="0.6" d="M53.4064 31.7738C53.4064 31.7738 50.2547 18.1814 50.2121 18.1814C50.1695 17.967 50.0844 17.7954 49.914 17.6668L36.2424 5.10345C36.3276 5.18921 36.3702 5.23209 36.4128 5.31785C36.4554 5.4036 36.498 5.53224 36.5406 5.618L39.6923 19.1676L53.4064 31.7738Z" fill="#D4D5D6"/>
<path opacity="0.4" d="M37.8184 22.7273L51.5325 35.2907L34.6241 47.3823L20.9525 34.819L37.8184 22.7273Z" fill="#D4D5D6"/>
<path opacity="0.6" d="M53.4065 31.7753L39.735 19.2119C39.735 19.2548 39.735 19.3405 39.7775 19.3834C39.9053 20.4983 38.9683 21.8275 38.1165 22.5564C38.0313 22.5993 37.9462 22.6851 37.9036 22.7279L51.6177 35.2913C51.9158 35.0769 52.214 34.8196 52.4695 34.5195C52.8102 34.1336 53.151 33.619 53.3213 33.1045C53.4065 32.6757 53.5343 32.2041 53.4065 31.7753Z" fill="#F4F4F4"/>
<path opacity="0.4" d="M33.8148 5.44692C35.0925 4.54648 36.3277 4.63223 36.5832 5.66131L39.7349 19.2109C39.9904 20.24 39.1386 21.8265 37.8609 22.7269L20.9525 34.8186C19.6748 35.719 18.4396 35.6333 18.1841 34.6042L15.0324 21.0546C14.7769 20.0256 15.6287 18.4391 16.9064 17.5386L33.8148 5.44692Z" fill="#F4F4F4"/>
<path opacity="0.6" d="M81.7291 74.5658C81.644 74.6515 81.5588 74.6944 81.431 74.7373L68.952 80.7403L59.6672 96.9054L72.1463 90.9024C72.3592 90.8167 72.5296 90.688 72.6148 90.4736L81.8995 74.3085C81.8995 74.3943 81.8143 74.48 81.7291 74.5658Z" fill="#D4D5D6"/>
<path opacity="0.4" d="M40.5442 81.7274L49.8289 65.5623C49.4456 65.2193 49.0623 64.7476 48.8919 64.2331C48.7641 63.8043 48.8067 63.4612 48.9345 63.2469L39.6498 79.412C39.4368 79.7979 39.522 80.2696 39.6924 80.6555C39.8627 80.9556 40.1608 81.3415 40.5442 81.7274Z" fill="#D4D5D6"/>
<path opacity="0.4" d="M65.1615 79.6254L55.8768 95.7905L40.5442 81.7264L49.8289 65.5613L65.1615 79.6254Z" fill="#D4D5D6"/>
<path opacity="0.6" d="M59.6247 96.9067C59.6673 96.9067 59.6673 96.9067 59.7099 96.8639L68.9946 80.6987C68.7817 80.7845 68.4835 80.8702 68.1428 80.8702C67.6317 80.8702 67.078 80.7416 66.6521 80.5272C66.141 80.3128 65.63 79.9698 65.204 79.5839L55.9193 95.749C56.3026 96.0921 56.8137 96.4351 57.3674 96.6924C58.0488 96.9925 58.6451 97.0783 59.071 97.0354C59.284 97.0354 59.4543 96.9925 59.6247 96.9067Z" fill="#F4F4F4"/>
<path opacity="0.4" d="M81.0904 71.994C82.2403 73.066 82.4107 74.3095 81.4737 74.7383L68.9947 80.7412C68.0577 81.2129 66.3541 80.6984 65.1615 79.6264L49.8289 65.5623C48.679 64.4903 48.5086 63.2469 49.4456 62.8181L61.9246 56.8151C62.8616 56.3435 64.5653 56.858 65.7578 57.93L81.0904 71.994Z" fill="#F4F4F4"/>
<path opacity="0.6" d="M55.1527 53.3853C55.0675 53.471 54.9824 53.5139 54.8546 53.5568L42.3756 59.5598L33.0908 75.7249L45.5698 69.7219C45.7828 69.6362 45.9532 69.5076 46.0383 69.2932L55.3231 53.128C55.3231 53.2138 55.2379 53.2995 55.1527 53.3853Z" fill="#D4D5D6"/>
<path opacity="0.4" d="M13.9677 60.5451L23.2524 44.3799C22.9969 44.1227 22.7413 43.8225 22.5284 43.5224C22.3154 43.1365 22.1876 42.6648 22.3154 42.2789V42.236C22.3154 42.1931 22.358 42.1503 22.4006 42.0645L13.1159 58.2297C12.6474 58.9586 13.3288 59.9877 13.9677 60.5451Z" fill="#D4D5D6"/>
<path opacity="0.4" d="M38.585 58.444L29.3002 74.6092L13.9677 60.5451L23.2524 44.3799L38.585 58.444Z" fill="#D4D5D6"/>
<path opacity="0.6" d="M33.0483 75.7246C33.0908 75.7246 33.0908 75.7246 33.1334 75.6817L42.4182 59.5594C42.3756 59.6023 42.333 59.6023 42.2478 59.6023C41.7367 59.7738 41.0979 59.6881 40.5442 59.5594C39.8202 59.3451 39.1387 58.9592 38.585 58.4446L29.3003 74.6097C29.7688 75.0385 30.3651 75.3816 31.0039 75.6388C31.8983 75.939 32.5372 75.8532 32.4946 75.8532C32.6649 75.8532 32.8353 75.8103 33.0483 75.7246Z" fill="#F4F4F4"/>
<path opacity="0.4" d="M54.4712 50.8117C55.6212 51.8837 55.7915 53.1271 54.8546 53.5559L42.3755 59.5589C41.4385 60.0306 39.7349 59.516 38.5424 58.4441L23.2098 44.38C22.0599 43.308 21.8895 42.0645 22.8265 41.6357L35.3055 35.6328C36.2425 35.1611 37.9461 35.6756 39.1387 36.7476L54.4712 50.8117Z" fill="#F4F4F4"/>
<path opacity="0.6" d="M51.2344 62.0462C51.2344 61.9605 51.2344 61.8318 51.277 61.7032L54.6842 48.2394L48.2957 30.7021C48.2957 30.7021 44.8458 44.2088 44.8458 44.2517C44.8458 44.2946 44.8458 44.3375 44.8458 44.3803C44.8458 44.4232 44.8458 44.4661 44.8458 44.509V44.5519V44.5947C44.8458 44.6376 44.8458 44.6805 44.8458 44.6805C44.8458 44.7234 44.8458 44.7662 44.8884 44.7662V44.8091L51.277 62.3464C51.2344 62.2606 51.2344 62.1749 51.2344 62.0462Z" fill="#D4D5D6"/>
<path opacity="0.4" d="M72.1464 25.6L78.5349 43.1372C78.5775 43.1372 78.6627 43.1372 78.7053 43.1372C78.7479 43.1372 78.7905 43.1372 78.7905 43.1372C78.8331 43.1372 78.8757 43.1372 78.8757 43.1372C78.9183 43.1372 78.9608 43.1372 79.0034 43.1372C79.046 43.1372 79.046 43.1372 79.0886 43.1372C79.1738 43.1372 79.2164 43.1372 79.3016 43.1372H79.3442C79.4293 43.1372 79.5145 43.1372 79.5997 43.1801H79.6423C79.7275 43.1801 79.7701 43.223 79.8552 43.223C79.8552 43.223 79.8552 43.223 79.8978 43.223C79.983 43.223 80.0256 43.2659 80.1108 43.3088H80.1534C80.196 43.3516 80.2812 43.3516 80.3237 43.3945C80.3663 43.4374 80.4515 43.4803 80.4941 43.4803C80.4941 43.4803 80.5367 43.4803 80.5367 43.5231C80.5793 43.566 80.6219 43.6089 80.6645 43.6518C80.7071 43.6947 80.7496 43.7375 80.7496 43.7804C80.7496 43.7804 80.7497 43.8233 80.7922 43.8233C80.8348 43.8662 80.8348 43.9091 80.8774 43.9948L74.4888 26.4576C74.1907 25.6429 73.0408 25.4714 72.1464 25.6Z" fill="#D4D5D6"/>
<path opacity="0.4" d="M57.9637 46.0097L51.6177 28.4725L72.1463 25.5996L78.5349 43.1369L57.9637 46.0097Z" fill="#D4D5D6"/>
<path opacity="0.6" d="M48.3382 30.6166C48.3382 30.6595 48.3382 30.6595 48.2957 30.7023L54.6842 48.2396C54.6842 48.1967 54.7268 48.1109 54.7268 48.0681V48.0252C54.7694 47.9823 54.7694 47.8965 54.812 47.8537C54.8546 47.7679 54.8972 47.725 54.9398 47.6393C54.9824 47.5964 55.025 47.5535 55.0675 47.4678C55.0675 47.4678 55.0675 47.4249 55.1101 47.4249C55.1527 47.382 55.1953 47.3391 55.2379 47.2534C55.2805 47.2105 55.3231 47.1676 55.3657 47.1247C55.3657 47.1247 55.3657 47.1247 55.4083 47.0819C55.4509 47.039 55.536 46.9961 55.5786 46.9532C55.5786 46.9532 55.6212 46.9532 55.6212 46.9103C55.6638 46.8675 55.749 46.8246 55.7916 46.7817C55.7916 46.7817 55.7916 46.7817 55.8342 46.7817C55.9194 46.7388 55.9619 46.696 56.0471 46.6531C56.1323 46.6102 56.2175 46.5673 56.2601 46.5244C56.3453 46.4816 56.3879 46.4387 56.473 46.4387C56.473 46.4387 56.5156 46.4387 56.5156 46.3958C56.6008 46.3529 56.6434 46.3529 56.7286 46.31C56.7286 46.31 56.7286 46.31 56.7712 46.31C56.8563 46.2672 56.9415 46.2672 57.0267 46.2243H57.0693C57.1545 46.1814 57.2397 46.1814 57.3248 46.1385H57.3674C57.4526 46.1385 57.5378 46.0957 57.623 46.0957C57.623 46.0957 57.623 46.0957 57.6656 46.0957C57.7508 46.0957 57.8359 46.0528 57.9637 46.0528L51.5751 28.5155C51.5325 28.5155 51.5325 28.5155 51.4899 28.5155C50.7233 28.6442 49.9141 28.9443 49.2752 29.4589C48.8919 29.7161 48.5086 30.1449 48.3382 30.6166Z" fill="#F4F4F4"/>
<path opacity="0.4" d="M53.6195 63.162C52.0436 63.3764 51.0215 62.7333 51.277 61.7042L54.6842 48.2404C54.9398 47.2113 56.4305 46.2251 57.9637 46.0107L78.4924 43.1379C80.0682 42.9235 81.0904 43.5666 80.8348 44.5957L77.4276 58.0595C77.172 59.0886 75.6814 60.0748 74.1481 60.2892L53.6195 63.162Z" fill="#F4F4F4"/>
<path d="M76.7035 37.2203C76.7035 37.2203 71.9334 38.5496 68.015 39.3642C64.0967 40.1361 59.5395 38.1637 57.8785 36.2341C56.3452 34.4332 54.9397 30.5313 54.3861 27.8728C54.3009 27.4012 54.2583 26.9724 54.3009 26.7151C54.5564 25.0858 55.2805 22.9847 58.4748 19.8975C61.6265 16.8531 67.5465 12.7368 67.7169 12.6082C67.7169 12.6082 65.5022 15.2237 64.0967 16.2957C62.6912 17.3677 56.5582 23.5421 56.3452 25.5574C56.1323 27.5298 60.6895 30.0168 64.1393 30.4027C67.5891 30.7886 74.1055 30.6171 74.1055 30.6171L76.7035 37.2203Z" fill="#F46E00"/>
<path d="M75.0425 33.06C74.361 33.1457 72.2315 33.3601 71.6352 33.3601C67.8021 33.5316 60.3487 33.4459 58.0489 32.2453C56.8137 31.6021 55.0249 30.1014 54.3861 27.7859C54.3009 27.3143 54.2583 26.8855 54.3009 26.6282C54.5564 24.9988 55.2805 22.8978 58.4748 19.8106C61.6265 16.7662 67.5465 12.6499 67.7169 12.5212C67.7169 12.5212 65.5022 15.1368 64.0967 16.2088C62.6912 17.2807 56.5582 23.4552 56.3452 25.4705C56.1323 27.4429 60.6895 29.9298 64.1393 30.3158C67.5891 30.7017 74.1055 30.5301 74.1055 30.5301L75.0425 33.06Z" fill="#F78926"/>
<path d="M72.9981 11.0634L75.085 15.2655C75.085 15.2655 67.0354 21.783 64.1818 24.4843C61.3283 27.1857 60.732 28.2148 60.7746 29.0294C60.7746 29.0294 57.7507 28.6864 57.0692 26.8426C56.3878 24.9989 58.7728 20.8826 61.4561 18.6958C64.1393 16.509 72.9981 11.0634 72.9981 11.0634Z" fill="#F4E8BE"/>
<path d="M72.9981 11.0637C65.5447 16.4235 59.4117 21.2258 57.921 24.0987C56.4729 26.9715 59.1561 28.6438 62.606 28.9439C66.0558 29.287 71.2519 29.287 76.022 28.3436L74.0628 30.5733C74.0628 30.5733 62.9467 31.388 59.1561 30.1874C56.4304 29.3298 54.7693 27.1002 55.1952 25.2135C55.5359 23.627 57.1544 21.3116 60.1783 18.7389C63.2022 16.2091 69.889 10.8064 69.889 10.8064L72.9981 11.0637Z" fill="#FFF6D3"/>
<path d="M76.022 28.3445C76.022 28.3445 75.8091 28.9019 76.5331 30.2311C77.2572 31.5604 78.109 34.5618 77.8108 35.5052C77.5127 36.4485 76.7035 37.1774 76.7035 37.1774L74.0629 30.5742L76.022 28.3445Z" fill="#F4E8BE"/>
<path d="M75.298 13.678C75.8091 14.7928 75.2554 16.1649 74.1055 16.5508C70.4427 17.8372 62.9468 20.3241 58.7303 20.5814C52.938 20.9244 46.3791 20.4099 41.8219 17.8372C38.1591 15.7362 35.9018 13.1635 34.6667 9.77607C34.3685 8.96138 34.113 8.10381 33.9426 7.20337C33.9426 7.20337 36.1147 10.3764 37.5628 11.7056C39.0109 13.0348 39.9905 13.4207 43.3125 14.5784C46.6346 15.7362 60.1784 12.9491 64.5652 11.7485C68.952 10.5908 72.913 8.57548 72.913 8.57548L75.298 13.678Z" fill="#F46E00"/>
<path d="M74.361 11.7056C61.3283 16.4222 49.0623 17.4513 44.7606 16.7224C40.1183 15.9077 36.2425 12.1344 34.6667 9.77607C34.3685 8.96138 34.113 8.10381 33.9426 7.20337C33.9426 7.20337 36.1147 10.3764 37.5628 11.7056C39.0109 13.0348 39.9905 13.4207 43.3125 14.5784C46.6346 15.7362 60.1784 12.9491 64.5652 11.7485C68.952 10.5908 72.913 8.57548 72.913 8.57548L74.361 11.7056Z" fill="#F78926"/>
<path d="M43.3125 2.35759C43.3125 2.35759 43.0144 4.28711 45.3995 6.98845C45.3995 6.98845 42.8014 7.37435 41.2682 9.00373C39.7349 10.5902 39.522 12.4769 43.5255 13.9347C43.5255 13.9347 37.4776 13.0343 36.498 9.43251C35.5184 5.83073 39.7775 3.1294 41.1404 2.70061C42.5459 2.27183 43.0996 2.35759 43.0996 2.35759H43.3125Z" fill="#F4E8BE"/>
<path d="M39.522 0L43.3125 2.35831C43.3125 2.35831 39.9905 3.43027 38.0739 5.65994C36.1573 7.88962 36.5406 10.5052 39.7775 12.4776C43.0144 14.45 46.592 14.7073 54.3009 13.5067C62.0098 12.3061 72.9129 8.57567 72.9129 8.57567C72.9129 8.57567 69.7187 10.7625 62.5634 12.5634C55.4082 14.3642 45.4421 17.3657 39.1812 13.5496C32.8778 9.73339 33.2186 5.78858 35.05 3.51602C36.9239 1.28635 39.522 0 39.522 0Z" fill="#FFF6D3"/>
<path opacity="0.2" d="M87.6493 23.1544C87.266 24.6122 84.1143 26.6704 76.1924 28.3426C71.5075 29.3288 65.9281 30.1006 59.8377 30.5294C55.749 30.8296 51.4047 30.9582 46.9753 30.9582C35.9018 30.9582 25.5523 30.0149 17.7582 28.3426C9.83639 26.6275 6.68469 24.5693 6.30138 23.1544H4.51257L7.40873 101.45C7.40873 101.493 7.45132 102.308 7.5365 102.479C8.30313 103.766 8.04759 104.066 9.36789 105.352C14.5213 110.455 29.2577 114.957 46.805 114.957C50.9788 114.957 54.9824 114.7 58.7729 114.185C70.8686 112.641 80.4941 108.868 84.4976 104.923C84.9235 104.537 85.2216 104.023 85.5198 103.637L86.0308 102.608L86.2438 102.093L86.4142 101.493V101.407C86.4142 101.364 86.4568 100.936 86.4568 101.021L89.4807 23.1544H87.6493ZM42.7163 84.8992C42.0348 92.7888 35.3481 98.3201 28.2355 96.948C22.6561 95.876 18.4823 90.7735 18.099 84.599L14.7343 31.0011L47.0179 34.1741L42.7163 84.8992Z" fill="#D8D8D8"/>
<path opacity="0.3" d="M89.4806 23.1552C89.4806 23.1552 86.4993 101.365 86.4993 101.451V101.537L86.3289 102.137L86.116 102.652L85.6049 103.681C85.2642 104.152 84.966 104.581 84.5827 104.967C80.5792 108.955 70.9963 112.685 58.858 114.229L59.9228 30.616C67.8872 30.1444 76.1924 29.0295 82.0273 26.7998C82.0699 26.7998 82.1125 26.757 82.1551 26.757C82.5384 26.6283 83.3476 26.3282 83.3902 26.2853C85.4345 25.4706 86.6697 24.613 87.2659 23.8841C87.3085 23.7984 87.3511 23.7555 87.3937 23.6697C87.4363 23.6268 87.4789 23.584 87.4789 23.4982C87.5215 23.4553 87.5215 23.3696 87.5641 23.3267C87.6066 23.2838 87.6066 23.2409 87.6066 23.1552C87.6066 23.1552 87.6066 23.1552 87.6066 23.1123H89.4806V23.1552Z" fill="#D8D8D8"/>
<path d="M85.6049 25.2127C85.6049 25.9845 84.8383 57.2857 84.1569 73.065C83.2199 94.1611 84.1569 98.9635 79.3015 102.565C74.4462 106.167 54.5564 109.683 43.2699 109.169C32.1964 108.654 19.1637 103.509 18.7804 103.337C27.9799 105.953 43.3977 107.496 55.9193 106.639C68.228 105.781 74.5314 103.766 77.5979 100.85C80.6644 97.9344 80.9626 94.6757 81.2181 88.201C81.4311 82.8841 82.9217 27.2709 82.9217 26.4991C84.0291 26.0274 84.9235 25.6415 85.6049 25.2127Z" fill="white"/>
<path d="M89.4807 23.1543C89.4807 23.4116 89.6936 17.623 86.5419 101.193C86.5419 101.193 86.5419 102.479 85.0938 104.28C78.4071 112.556 57.7933 114.957 46.8476 114.957C36.6258 114.957 15.1176 112.513 8.64385 104.537C8.34572 104.194 7.74945 103.122 7.5365 102.479C7.40873 102.136 7.36614 100.464 7.36614 100.421L4.51257 23.1543H6.30138C6.51433 23.969 7.57909 24.9552 9.7938 25.9414C9.7938 25.9414 12.0937 96.1761 12.1789 96.7336C12.264 97.3338 12.4344 98.2772 12.5622 98.6202C13.8399 102.565 25.893 107.539 47.0179 107.539C59.5395 107.539 69.3354 106.038 75.1703 103.68C78.8756 102.179 80.92 100.078 81.857 95.876C81.9847 95.4043 82.0699 92.5743 82.1977 89.7873C82.8791 73.8365 84.1569 25.9414 84.1569 25.9414C85.9457 25.1267 86.9678 24.3549 87.3937 23.6688C87.5215 23.4973 87.6067 23.3258 87.6493 23.1543H89.4807Z" fill="#E5E5E5"/>
<path d="M89.4807 23.1544C89.4807 23.1972 86.5845 100.335 86.5419 101.279C86.2864 102.779 85.5623 103.68 85.5623 103.68C85.2216 104.109 85.0087 104.495 84.5402 104.966C79.3015 110.197 64.4374 115 46.8901 115C29.3428 115 14.6065 110.498 9.45305 105.395C8.13274 104.109 7.96238 103.208 7.62166 102.522C7.45129 102.179 7.45129 100.464 7.45129 100.464C7.57907 100.721 9.53823 104.537 17.6304 106.939C25.9782 109.426 37.4776 111.655 51.064 110.841C64.6504 110.026 77.0016 106.596 81.0903 103.851C85.179 101.107 85.179 94.4182 85.4771 85.2851C85.6901 78.2959 86.9252 40.8631 87.5215 23.7118C87.6493 23.5403 87.7345 23.3687 87.777 23.1972H89.4807V23.1544Z" fill="#D6D6D6"/>
<path d="M86.5419 101.022C86.5419 102.395 85.7327 103.509 85.7327 103.509C85.392 104.067 84.1143 105.439 83.3476 106.082C77.5979 110.97 64.4375 115.001 46.8902 115.001C29.3429 115.001 14.4362 110.67 9.45307 105.396C7.74945 103.595 7.57909 102.695 7.5365 102.052C7.70686 102.523 7.87722 102.78 8.21795 103.252C12.2215 108.44 27.8096 112.728 46.7198 112.728C66.3966 112.728 83.0069 108.44 85.9457 102.823C86.4568 101.666 86.4994 101.323 86.5419 101.022Z" fill="#BCBCBC"/>
<path d="M89.4808 23.1544L86.5846 99.4349L88.416 23.1544H89.4808Z" fill="#BCBCBC"/>
<path opacity="0.3" d="M14.6918 30.9588L18.0564 84.5568C18.4397 90.7312 22.6136 95.7909 28.193 96.9057C35.3056 98.3207 42.0349 92.7465 42.6737 84.8569L46.9328 34.089L14.6918 30.9588Z" fill="white"/>
<path d="M20.8673 32.1152L24.5727 69.0764L29.2151 32.9728L20.8673 32.1152Z" fill="white"/>
<path d="M64.906 33.3167L66.9504 84.9423L67.8447 32.9737L64.906 33.3167Z" fill="white"/>
<path d="M89.4807 22.8535C89.4807 22.9392 89.4807 23.025 89.4807 23.1536C88.9696 30.057 72.7852 32.6726 59.8377 33.6159C54.599 34.0019 49.9141 34.1305 47.0179 34.1305C20.3137 34.1305 4.98107 29.4139 4.51257 23.1536C4.51257 23.0679 4.51257 22.9392 4.51257 22.8535C4.51257 21.3527 5.70511 20.195 6.98282 19.3375C9.70862 17.5366 14.5213 16.0787 20.3988 15.0496L18.1415 16.679C17.9712 16.7219 17.7582 16.7648 17.5879 16.8076C9.11235 18.6514 6.25879 21.3956 6.25879 22.8535V22.8964C6.55692 25.7692 14.9898 27.7845 17.7582 28.3848C25.5523 30.057 35.9444 31.0004 46.9753 31.0004C50.8085 31.0004 55.2805 30.9146 59.8377 30.6145C67.8021 30.1428 76.1073 29.028 81.9422 26.7983C81.9847 26.7983 82.0273 26.7554 82.0699 26.7554C82.3681 26.6268 83.2625 26.3266 83.3051 26.2837C84.668 25.7692 86.3716 24.9545 87.1808 23.8826C87.2234 23.7968 87.266 23.7539 87.3086 23.6682C87.3512 23.6253 87.3938 23.5824 87.3938 23.4967C87.4363 23.4538 87.4363 23.368 87.4789 23.3251C87.4789 23.2823 87.5215 23.2394 87.5215 23.1536C87.5215 23.1536 87.5215 23.1536 87.5215 23.1108C87.7771 20.6238 84.3272 18.6085 75.8943 16.7648C75.3406 16.6361 74.2333 16.4217 74.2333 16.4217C74.9999 16.0358 75.2129 15.3498 75.2129 15.3498C75.2129 15.3498 83.9439 17.5366 86.4568 19.0373C87.053 19.3803 87.5641 19.7662 88.0326 20.1521C89.0122 21.0526 89.4807 21.9102 89.4807 22.8535Z" fill="#D8D8D8"/>
<path d="M48.1253 14.1918C49.3604 14.106 52.6398 13.8059 55.9619 13.2056C52.9806 13.077 49.9566 12.9912 46.9753 12.9912C45.1865 12.9912 43.4403 13.0341 41.6515 13.077C43.3977 14.1918 44.0366 14.0632 45.1439 14.1918H48.1253Z" fill="#D8D8D8"/>
<path opacity="0.3" d="M37.4351 14.4066C30.2373 14.7496 23.5932 15.5214 18.1416 16.6791L20.3989 15.0498C25.2116 14.1922 30.7484 13.5919 36.4981 13.2917C36.5833 13.3775 37.137 14.1064 37.4351 14.4066Z" fill="#D8D8D8"/>
</g>
<defs>
<filter id="filter0_d_1_3796" x="0.512573" y="0" width="92.9711" height="123.001" filterUnits="userSpaceOnUse" color-interpolation-filters="sRGB">
<feFlood flood-opacity="0" result="BackgroundImageFix"/>
<feColorMatrix in="SourceAlpha" type="matrix" values="0 0 0 0 0 0 0 0 0 0 0 0 0 0 0 0 0 0 127 0" result="hardAlpha"/>
<feOffset dy="4"/>
<feGaussianBlur stdDeviation="2"/>
<feComposite in2="hardAlpha" operator="out"/>
<feColorMatrix type="matrix" values="0 0 0 0 0 0 0 0 0 0 0 0 0 0 0 0 0 0 1 0"/>
<feBlend mode="normal" in2="BackgroundImageFix" result="effect1_dropShadow_1_3796"/>
<feBlend mode="normal" in="SourceGraphic" in2="effect1_dropShadow_1_3796" result="shape"/>
</filter>
<linearGradient id="paint0_linear_1_3796" x1="10.8616" y1="86.1923" x2="83.1448" y2="86.1923" gradientUnits="userSpaceOnUse">
<stop stop-color="#FFAC1A"/>
<stop offset="1" stop-color="#D83D00"/>
</linearGradient>
</defs>
</svg>
