<svg width="100" height="106" viewBox="0 0 100 106" fill="none" xmlns="http://www.w3.org/2000/svg">
<path opacity="0.2" d="M77.1137 23.1986L74.4466 93.1768C74.4466 93.2153 74.408 93.4461 74.408 93.4846L74.292 93.8308L73.9828 94.5617L73.9441 94.6387C73.9441 94.6771 73.9055 94.7156 73.8668 94.7541L73.7509 94.9849C73.7122 95.0234 73.7122 95.0619 73.6736 95.1003L73.519 95.3696L73.0938 95.9082C72.9778 96.0236 72.9005 96.139 72.7845 96.2929C72.7845 96.3314 72.7459 96.3314 72.7072 96.3699C72.7072 96.3699 72.6686 96.4083 72.6299 96.4083C72.5913 96.4468 72.5526 96.4853 72.514 96.5237C68.6486 99.9476 59.0239 102.718 46.964 103.564C44.2583 103.756 41.3979 103.872 38.4989 103.872C21.6073 103.872 7.53747 100.486 3.63347 95.9467L2.66713 93.4461L0.0386963 23.1986L2.2806 19.7747C7.96266 16.0431 23.656 14.0811 38.5762 14.0811C53.1872 14.0811 68.494 15.9661 74.4853 19.5439L77.1137 23.1986Z" fill="#D8D8D8"/>
<path d="M74.6011 1.11784L72.7071 50.4373C68.03 50.8604 63.1984 49.5909 59.0238 47.3981C57.9028 46.4363 54.1921 43.4741 51.2544 39.7039C48.6646 34.8566 46.4227 24.5465 47.9302 18.8144C49.3991 13.0438 51.641 9.0428 60.0288 2.84902C60.9565 2.38738 64.2807 1.0409 64.3193 1.0409C64.9764 0.848548 69.151 0.502312 74.6011 1.11784Z" fill="#ED8E00"/>
<path d="M74.4465 5.38685L73.828 21.8138C71.1996 19.621 71.5861 18.4284 70.1559 16.8896C69.1509 15.8124 68.9963 14.3505 68.5325 13.004C68.0686 11.5806 66.8317 11.3498 66.3292 10.2342C65.7881 9.11851 66.02 7.84897 66.9863 8.7338C67.9913 9.61863 68.0686 6.92568 69.7307 6.5025C71.3928 6.07932 71.1609 4.96367 72.2432 5.42532C72.5525 5.54073 72.7844 5.5792 73.0936 5.54073C73.4801 5.54073 73.9053 5.38685 74.4465 5.38685Z" fill="#FBB809"/>
<path d="M62.1161 8.46514C62.348 9.08068 63.2371 10.2733 63.0824 10.1194C62.9278 9.92703 61.0338 8.23432 59.449 8.69597C57.9415 9.11915 55.5064 12.2353 55.2744 13.3125C55.0812 14.3127 52.7233 17.6981 52.8393 18.9292C53.0325 21.0066 51.6797 22.9301 55.0039 24.1612C51.525 24.3535 51.9502 28.2006 52.9166 29.8548C53.651 31.0859 53.1485 33.6634 54.4241 34.7791C55.6996 35.8563 57.1298 35.4331 57.2071 35.3946C56.666 35.7793 55.4677 36.818 55.7769 37.3951C56.1635 38.0876 58.0961 41.3576 59.565 42.0501C61.9228 43.1657 61.0338 43.7428 64.7832 44.9354C66.252 45.397 67.3343 45.6663 68.0687 44.3198C66.9478 46.5896 71.2383 47.2821 72.8618 47.0512L72.7458 50.3982C68.0687 50.8214 63.2371 49.5518 59.0625 47.359C58.2121 46.6281 54.3468 43.5889 51.2931 39.6649C48.7033 34.8176 46.4614 24.5074 47.9689 18.7753C49.4378 13.0047 51.6797 9.00373 60.0675 2.80995C60.4153 2.65607 64.0488 1.07877 64.358 1.00183C65.1311 0.809478 69.1897 0.463242 74.6398 1.07877L74.5239 4.31031C68.6099 4.69502 69.0737 3.19466 63.7782 5.7722C62.2707 6.58008 61.8842 7.84961 62.1161 8.46514Z" fill="#FFF6D3"/>
<path d="M54.5014 11.5046C53.7669 12.928 54.9652 11.8124 53.3804 14.1206C50.4814 18.3524 52.646 14.4284 50.8293 18.814C50.636 19.2372 50.4814 19.4296 50.4427 19.8143C50.4041 20.199 50.4428 20.776 50.5201 21.0453C50.5201 21.2377 50.5587 21.3531 50.5587 21.4685C50.636 22.084 49.5537 25.3541 50.0176 27.4699C51.0226 32.2788 50.5587 30.8169 50.7133 31.0477C50.7133 31.2785 50.752 31.3939 50.752 31.6248C51.0226 35.1641 51.4864 34.2023 54.1148 39.5497C54.9266 41.204 56.0475 42.3581 57.2844 43.5122C58.9079 44.9741 60.57 46.5129 61.459 47.0131C63.4303 48.1287 65.2084 47.8979 66.5999 48.7058C70.156 50.7062 68.4939 49.0905 71.2383 49.4367C71.7795 49.5136 72.282 49.2443 72.7845 49.3213L72.7458 50.4754C67.8368 50.9371 63.0051 49.4752 59.0625 47.4362C58.2121 46.7053 54.3468 43.6661 51.2931 39.7421C48.7033 34.8948 46.4614 24.5846 47.9689 18.8525C49.4378 13.0819 51.6797 9.08095 60.0675 2.88717C60.9952 2.42552 62.8505 1.73305 63.353 1.5407C63.6622 1.42529 63.2757 1.30987 64.8605 0.963637C65.0924 0.925166 64.9765 1.07905 65.7495 0.963637C68.7645 0.540459 73.0937 0.963637 74.6398 1.15599L74.6012 2.1947C73.5189 2.11776 72.282 1.9254 71.277 2.04082C66.7545 2.57941 68.2234 1.46376 66.6386 2.50246C65.479 3.31035 66.5612 2.61788 64.2807 3.73353C64.2807 3.73353 64.242 3.73353 64.242 3.772C62.0774 4.88765 62.6959 4.23365 61.575 5.27235C56.666 9.69648 58.9852 7.38824 55.5837 9.73495C55.0812 10.1966 54.9266 10.6582 54.5014 11.5046Z" fill="#F29446"/>
<path d="M70.4652 1.30986C70.5425 0.77127 71.3929 0.925153 71.3156 1.42527C71.2769 1.6561 70.3879 1.80998 70.4652 1.30986Z" fill="#F46E00"/>
<path d="M66.8705 1.4633C66.9478 0.924712 67.7982 1.07859 67.7209 1.57871C67.6822 1.80954 66.7932 2.00189 66.8705 1.4633Z" fill="#F46E00"/>
<path d="M62.6573 3.19453C63.1211 2.88676 63.6236 3.54076 63.1598 3.84853C62.9665 3.96394 62.1934 3.50229 62.6573 3.19453Z" fill="#F46E00"/>
<path d="M61.6523 3.84882C62.1161 3.54106 62.6186 4.19506 62.1548 4.50283C61.9615 4.65671 61.1884 4.15659 61.6523 3.84882Z" fill="#F46E00"/>
<path d="M54.7719 8.77269C55.1585 8.38798 56.1248 9.23433 55.7383 9.61904C55.5837 9.77292 54.3854 9.15739 54.7719 8.77269Z" fill="#F46E00"/>
<path d="M57.1685 7.34882C57.6324 7.04106 58.1349 7.69506 57.671 8.00283C57.4777 8.11824 56.7047 7.61812 57.1685 7.34882Z" fill="#F46E00"/>
<path d="M60.8791 4.2339C61.4589 3.8492 62.1934 4.84943 61.6136 5.23414C61.3816 5.38802 60.2993 4.61861 60.8791 4.2339Z" fill="#F46E00"/>
<path d="M59.7969 5.2339C60.3767 4.8492 61.1111 5.84943 60.5313 6.23414C60.2994 6.38802 59.2171 5.61861 59.7969 5.2339Z" fill="#F46E00"/>
<path d="M69.3443 1.80964C68.4166 1.84811 68.378 0.847873 69.3056 0.809402C70.2333 0.809402 70.2333 1.77117 69.3443 1.80964Z" fill="#F46E00"/>
<path d="M54.2695 11.5038C53.7283 12.3502 52.6847 11.7731 53.2259 10.9267C53.7283 10.0804 54.772 10.6574 54.2695 11.5038Z" fill="#F46E00"/>
<path d="M65.0923 2.27092C65.0537 1.46303 66.4452 1.42456 66.4839 2.23245C66.4839 2.57868 65.131 3.0788 65.0923 2.27092Z" fill="#F46E00"/>
<path d="M63.2371 3.50229C62.9665 2.73288 64.1648 2.34817 64.474 3.11758C64.59 3.42535 63.5077 4.23323 63.2371 3.50229Z" fill="#F46E00"/>
<path d="M58.1348 6.54132C57.8642 5.77191 59.0625 5.3872 59.3717 6.15662C59.4877 6.46438 58.444 7.31074 58.1348 6.54132Z" fill="#F46E00"/>
<path d="M51.6024 15.7752C50.7907 16.0445 50.3655 14.8904 51.1772 14.6211C51.9889 14.3903 52.4141 15.5444 51.6024 15.7752Z" fill="#F46E00"/>
<path d="M49.2445 20.1988C49.0126 19.4294 50.2881 19.1217 50.4814 19.8911C50.7133 20.6605 49.4764 20.9682 49.2445 20.1988Z" fill="#F46E00"/>
<path d="M49.3218 21.4291C49.0899 20.6597 50.3654 20.352 50.5587 21.1214C50.7906 21.8908 49.515 22.1986 49.3218 21.4291Z" fill="#F46E00"/>
<path d="M48.7034 24.1614C48.4714 23.392 49.747 23.0842 49.9403 23.8536C50.1722 24.6231 48.8966 24.9308 48.7034 24.1614Z" fill="#F46E00"/>
<path d="M48.8579 27.2387C48.626 26.4693 49.9016 26.1615 50.0948 26.9309C50.3267 27.7004 49.0898 28.0081 48.8579 27.2387Z" fill="#F46E00"/>
<path d="M52.0276 38.3569C51.6024 37.8568 52.3754 37.2797 52.8006 37.7799C52.9552 37.9722 52.4527 38.857 52.0276 38.3569Z" fill="#F46E00"/>
<path d="M57.8256 45.8202C57.4005 45.3201 58.1735 44.743 58.5987 45.2431C59.0626 45.7048 58.2508 46.3203 57.8256 45.8202Z" fill="#F46E00"/>
<path d="M61.4976 46.9741C61.7682 47.4743 60.8405 47.8974 60.5699 47.3973C60.2993 46.8972 61.227 46.474 61.4976 46.9741Z" fill="#F46E00"/>
<path d="M61.3817 48.1285C60.7633 47.8208 61.1884 47.0513 61.8069 47.3591C62.4254 47.6669 62.0002 48.4363 61.3817 48.1285Z" fill="#F46E00"/>
<path d="M65.7108 49.8211C65.0924 49.5133 65.5175 48.7439 66.136 49.0516C66.4066 49.2055 66.3293 50.1288 65.7108 49.8211Z" fill="#F46E00"/>
<path d="M64.8219 49.5135C64.2034 49.2058 64.6286 48.4364 65.2471 48.7441C65.5177 48.898 65.4403 49.8213 64.8219 49.5135Z" fill="#F46E00"/>
<path d="M64.6286 49.0906C64.358 49.5908 63.4303 49.1291 63.7009 48.629C64.0101 48.1673 64.9378 48.5905 64.6286 49.0906Z" fill="#F46E00"/>
<path d="M62.8118 48.8214C61.6136 48.2443 62.0388 47.4749 63.237 48.0519C64.4353 48.6675 64.0101 49.4369 62.8118 48.8214Z" fill="#F46E00"/>
<path d="M52.6846 39.472C52.2594 38.9719 53.3417 38.164 53.7669 38.6641C54.1921 39.1642 53.1098 39.9721 52.6846 39.472Z" fill="#F46E00"/>
<path d="M59.6036 46.0512C59.0624 46.7437 58.2507 46.2051 58.7919 45.4741C59.333 44.8201 60.1447 45.3587 59.6036 46.0512Z" fill="#F46E00"/>
<path d="M53.419 40.4731C52.9165 39.8961 53.9988 39.0882 54.5013 39.6652C54.9651 40.2423 53.8828 41.0502 53.419 40.4731Z" fill="#F46E00"/>
<path d="M53.6511 41.5885C53.1486 41.0114 54.2309 40.2035 54.7333 40.7806C55.1972 41.3192 54.1149 42.1655 53.6511 41.5885Z" fill="#F46E00"/>
<path d="M54.6174 42.5503C54.1149 41.9733 55.1972 41.1654 55.6997 41.7425C56.2022 42.3195 55.1199 43.1274 54.6174 42.5503Z" fill="#F46E00"/>
<path d="M57.0138 45.1665C56.5113 44.5894 57.5936 43.7815 58.0961 44.3586C58.5986 44.8972 57.5163 45.7051 57.0138 45.1665Z" fill="#F46E00"/>
<path d="M54.9653 43.5112C54.4628 42.9341 55.5451 42.1263 56.0476 42.7033C56.5114 43.2419 55.4291 44.0498 54.9653 43.5112Z" fill="#F46E00"/>
<path d="M59.0625 47.0893C58.5601 46.5123 59.6424 45.7044 60.1448 46.2814C60.3381 46.5123 59.565 47.6279 59.0625 47.0893Z" fill="#F46E00"/>
<path d="M69.8082 50.2828C68.8805 50.3213 68.8418 49.6288 69.7695 49.5903C70.6972 49.5519 70.7358 50.2443 69.8082 50.2828Z" fill="#F46E00"/>
<path d="M56.2021 44.2434C55.2744 43.5124 56.1635 42.5122 57.0911 43.2431C58.0188 43.9741 57.1298 44.9743 56.2021 44.2434Z" fill="#F46E00"/>
<path d="M49.515 31.5091C49.2831 30.7396 50.5587 30.4319 50.7519 31.2013C50.9838 31.9707 49.7469 32.2785 49.515 31.5091Z" fill="#F46E00"/>
<path d="M50.0175 16.4663C50.3654 14.966 51.6023 15.2353 51.2931 16.7356C50.9452 18.1975 49.7083 17.9282 50.0175 16.4663Z" fill="#F46E00"/>
<path d="M50.0562 34.4713C49.5151 33.4326 50.6747 32.8941 51.2158 33.9712C51.757 35.0099 50.5974 35.5101 50.0562 34.4713Z" fill="#F46E00"/>
<path d="M51.1772 37.0872C50.3655 36.2023 51.3318 35.4329 52.1435 36.2793C52.9939 37.2026 51.9889 37.972 51.1772 37.0872Z" fill="#F46E00"/>
<path d="M52.8006 14.3128C51.8342 14.6205 51.3317 13.2741 52.2981 12.9663C53.2644 12.6585 53.7669 14.005 52.8006 14.3128Z" fill="#F46E00"/>
<path d="M51.5637 18.4676C51.1385 19.1986 49.515 18.4292 49.9402 17.6598C50.3654 16.9288 51.9889 17.7367 51.5637 18.4676Z" fill="#F46E00"/>
<path d="M72.0887 1.27081C72.1273 0.963047 72.9777 1.07846 72.9391 1.38622C72.9004 1.73246 72.05 1.57858 72.0887 1.27081Z" fill="#F46E00"/>
<path d="M71.7794 23.4682C72.0886 21.8909 66.3293 14.5814 65.5175 13.812C64.3193 12.6579 64.1647 10.7728 62.3866 10.4651C60.6085 10.1573 60.8405 12.504 61.6522 13.5812C62.4639 14.6199 60.6085 14.543 60.7245 16.3896C60.8405 18.1977 61.4589 18.5055 60.222 19.6211C58.9851 20.7368 62.0387 20.8522 65.247 21.9293C68.2619 22.8911 71.5861 24.4299 71.7794 23.4682Z" fill="#FBB809"/>
<path d="M58.2507 25.8537C59.333 26.6616 61.3817 25.6998 61.9228 26.5847C62.464 27.4695 60.1834 28.5082 61.1884 29.0083C62.1934 29.5084 63.7782 28.8929 63.469 29.47C63.1597 30.047 65.2084 28.5467 66.9478 27.7003C78.2346 22.2375 55.5063 23.7763 58.2507 25.8537Z" fill="#FBB809"/>
<path d="M71.3929 27.9698C71.0064 27.3927 69.8468 27.6235 68.3393 28.7392C66.8318 29.8548 67.373 29.2778 65.4017 30.4319C63.4303 31.586 62.2321 33.5096 63.1984 33.1249C64.1647 32.7401 65.6722 33.2018 66.5613 32.317C67.4503 31.4321 67.7209 32.2016 67.9528 32.971C68.1847 33.7404 68.8418 33.3172 68.9964 34.0482C69.151 34.8176 67.9528 37.2027 67.7209 38.857C67.4889 40.5112 67.0638 42.4732 68.0687 40.6651C69.0737 38.857 69.6149 35.7793 70.0014 34.1251C70.3879 32.5093 71.8954 28.7007 71.3929 27.9698Z" fill="#FBB809"/>
<path d="M72.9004 46.1668C69.151 44.551 68.4939 42.8968 71.8568 35.5489C71.8954 35.4335 71.9341 35.3181 71.9727 35.2027C72.2433 34.0485 72.0114 31.8942 72.5139 30.6631C72.8618 29.8552 73.2483 29.4321 73.5189 29.5859L72.9004 46.1668Z" fill="#FBB809"/>
<path d="M73.3643 16.622C73.171 16.4296 73.0164 16.1603 72.9391 15.8525C72.8618 15.5448 72.8618 15.2755 72.8618 15.0062C72.8618 14.4676 72.8231 13.9675 72.6298 13.5058C72.5912 13.3904 72.5525 13.275 72.5139 13.1596C72.4752 13.0442 72.3979 12.8903 72.3593 12.7749C72.282 12.5056 72.166 12.2363 72.1273 11.967C72.0114 11.4284 71.9341 10.8514 72.05 10.2743C72.2047 10.8129 72.3979 11.313 72.5912 11.8131C72.7071 12.044 72.7845 12.3132 72.9004 12.5441L73.055 12.9288C73.0937 13.0827 73.171 13.1981 73.2096 13.352C73.2869 13.6212 73.3643 13.929 73.3643 14.2368C73.3643 14.5445 73.3643 14.8138 73.3256 15.0831C73.287 15.3524 73.2483 15.6217 73.2096 15.8525C73.2483 16.0834 73.2869 16.3527 73.3643 16.622Z" fill="#FFCE61"/>
<path d="M73.5576 20.1608C73.3643 19.9685 73.2097 19.8146 73.0551 19.6607C72.9005 19.5068 72.7072 19.3529 72.5526 19.1221C72.2434 18.6605 72.1661 18.1219 72.0888 17.6987C71.9728 17.2755 71.8569 16.8139 71.7409 16.3907C71.5863 15.9675 71.4317 15.5443 71.2384 15.0827C71.6249 15.3905 71.9342 15.7752 72.2047 16.1983C72.4367 16.6215 72.6299 17.0832 72.7459 17.5833C72.8619 18.0834 72.8619 18.5066 73.0165 18.8913C73.0938 19.0836 73.2484 19.276 73.3257 19.5068C73.4417 19.6607 73.519 19.8915 73.5576 20.1608Z" fill="#FFCE61"/>
<path d="M72.7458 5.04188C73.171 5.38811 73.4416 5.9267 73.5962 6.50376C73.6735 6.77306 73.6735 7.08082 73.6735 7.38859C73.6735 7.65788 73.6735 7.85024 73.7122 8.08106C73.8281 8.54271 74.0601 9.04283 74.1374 9.61989C74.176 9.92766 74.176 10.2354 74.0987 10.5047C74.0214 10.774 73.8668 11.0433 73.6735 11.2357C73.7122 10.9664 73.7895 10.6971 73.7895 10.4662C73.7895 10.1969 73.7508 9.96613 73.6735 9.7353C73.5189 9.27365 73.2097 8.812 73.0937 8.19647C73.0164 7.88871 73.0164 7.58094 73.0551 7.31165C73.0937 7.08082 73.0937 6.81153 73.0937 6.58071C73.0551 6.04212 72.9391 5.542 72.7458 5.04188Z" fill="#FFCE61"/>
<path d="M71.6249 13.9292C71.1997 13.5445 70.7745 13.1598 70.504 12.6597C70.1947 12.1211 70.1174 11.544 70.0788 11.0055C70.0401 10.4284 69.9628 9.92827 69.8469 9.38968C69.7309 8.85109 69.5376 8.3125 69.3444 7.81239C69.6536 8.27403 69.9242 8.81262 70.0788 9.31274C70.1561 9.58204 70.2334 9.85133 70.3107 10.1206C70.3494 10.3899 70.388 10.6977 70.4267 10.967C70.4653 11.5056 70.504 12.0826 70.7359 12.5443C70.9678 13.0444 71.3157 13.4676 71.6249 13.9292Z" fill="#FFCE61"/>
<path d="M69.7695 16.0066C69.3057 15.7373 68.8418 15.5065 68.4166 15.1602C67.9528 14.7755 67.6822 14.3139 67.4117 13.8907C66.8705 13.0443 66.2907 12.198 65.7882 11.2362C66.252 11.544 66.6386 11.8902 66.9865 12.2749C67.3343 12.6596 67.6822 13.0828 67.9528 13.5445L68.3393 14.1985C68.4553 14.4293 68.6099 14.6216 68.7259 14.7755C69.0737 15.1602 69.4603 15.5834 69.7695 16.0066Z" fill="#FFCE61"/>
<path d="M69.1125 11.1977C68.7646 10.8899 68.4167 10.5437 68.1075 10.2359L67.1412 9.31262C66.9865 9.15874 66.8319 9.00486 66.6387 8.81251C66.484 8.62015 66.3294 8.46627 66.2135 8.27392C65.9429 7.88921 65.6723 7.5045 65.5177 7.04285C65.9042 7.31215 66.2521 7.61992 66.6 7.92768C66.9479 8.23545 67.2571 8.54321 67.605 8.85098C67.9529 9.15874 68.2621 9.54345 68.5327 9.92816C68.7646 10.3129 68.9579 10.736 69.1125 11.1977Z" fill="#FFCE61"/>
<path d="M71.277 8.61946C71.0838 8.35016 70.9678 8.08087 70.8132 7.85004C70.6586 7.61922 70.5426 7.34992 70.4267 7.08063C70.3107 6.81133 70.1947 6.54204 70.1174 6.23427C70.0401 5.92651 70.0401 5.58027 70.1947 5.27251C70.3107 5.58027 70.4267 5.8111 70.5813 6.04192C70.7359 6.27274 70.8905 6.50357 71.0065 6.77286C71.2384 7.34992 71.4316 8.00393 71.277 8.61946Z" fill="#FFCE61"/>
<path d="M66.0974 10.2745C65.8269 9.92827 65.5949 9.5051 65.4403 9.08192C65.2471 8.65874 65.0924 8.23556 65.0151 7.81239C65.2471 8.19709 65.4403 8.62027 65.6336 9.00498C65.7882 9.42815 65.9815 9.85133 66.0974 10.2745Z" fill="#FFCE61"/>
<path d="M69.0351 20.0065C68.7259 19.968 68.4553 19.8911 68.1847 19.6987C67.9142 19.5064 67.7209 19.314 67.5276 19.1217C67.1411 18.6985 66.7545 18.3523 66.2907 18.1214C66.1747 18.0445 66.0588 18.006 65.9428 17.9291C65.8269 17.8521 65.6723 17.8137 65.5563 17.7367C65.3244 17.5828 65.0538 17.429 64.8219 17.2751C64.358 16.9288 63.8942 16.5441 63.585 16.044C64.0875 16.3518 64.59 16.6211 65.0925 16.8519C65.363 16.9673 65.5949 17.0827 65.8655 17.1981L66.2521 17.3905C66.368 17.4674 66.5226 17.5059 66.6386 17.6213C66.9092 17.7752 67.1411 17.9675 67.373 18.1984C67.6049 18.4292 67.7595 18.66 67.9528 18.8908C68.1074 19.1217 68.262 19.3525 68.4166 19.5833C68.5713 19.6603 68.7645 19.8526 69.0351 20.0065Z" fill="#FFCE61"/>
<path d="M71.6634 22.5837C71.3929 22.5452 71.1609 22.5452 70.929 22.5067C70.6971 22.5067 70.4265 22.4683 70.156 22.3913C69.6148 22.2374 69.1896 21.8527 68.8417 21.5834C68.4552 21.3141 68.0687 21.0448 67.6435 20.814C67.2183 20.5832 66.7931 20.3524 66.3679 20.1215C66.8704 20.0831 67.3729 20.1985 67.8754 20.3524C68.3779 20.5063 68.8031 20.7755 69.2283 21.0833C69.6535 21.3911 69.9627 21.7373 70.3492 21.9297C70.5425 22.0066 70.7744 22.0836 71.0063 22.199C71.2383 22.3144 71.4702 22.4298 71.6634 22.5837Z" fill="#FFCE61"/>
<path d="M65.4789 15.6975C65.3243 15.4667 65.1697 15.2359 65.0151 15.0435C64.8218 14.8512 64.6285 14.6973 64.3966 14.5819C63.9328 14.3126 63.3916 14.1587 62.8891 13.774C62.6572 13.5816 62.4253 13.3508 62.232 13.12C62.0774 12.8892 61.9228 12.6968 61.7295 12.5044C61.3816 12.1197 60.9178 11.812 60.4153 11.5427C60.9951 11.5427 61.5749 11.7735 62.0774 12.1197C62.3093 12.2736 62.5412 12.5044 62.7345 12.7353C62.9278 12.9276 63.0824 13.0815 63.2756 13.2354C63.7008 13.5432 64.2033 13.774 64.6672 14.1587C64.8991 14.351 65.0924 14.5819 65.247 14.8512C65.4016 15.1205 65.4789 15.4282 65.4789 15.6975Z" fill="#FFCE61"/>
<path d="M65.8654 19.0062C65.2856 18.9677 64.6672 18.9292 64.126 18.7369C63.5462 18.5061 63.0824 18.1214 62.6572 17.7367C62.232 17.352 61.8068 16.9672 61.343 16.6595C60.8791 16.3517 60.3766 16.0439 59.8741 15.7362C60.4539 15.8901 60.9951 16.1209 61.4976 16.4287C61.7682 16.5825 62.0001 16.7364 62.232 16.9288C62.4639 17.1211 62.6959 17.3135 62.8891 17.5058C63.3143 17.8905 63.7395 18.2752 64.242 18.5061C64.7058 18.7369 65.2856 18.8908 65.8654 19.0062Z" fill="#FFCE61"/>
<path d="M65.9041 21.7378C65.363 21.8532 64.8605 21.9302 64.2807 21.9302C63.6622 21.9302 63.1598 21.7378 62.6573 21.5839C61.6523 21.2762 60.6473 20.9684 59.6036 20.5452C60.1448 20.5067 60.6859 20.5452 61.2271 20.6222C61.7682 20.6991 62.3094 20.8145 62.8119 20.9684L63.5849 21.2377C63.8169 21.3146 64.0874 21.3916 64.3194 21.4685C64.8219 21.507 65.363 21.5839 65.9041 21.7378Z" fill="#FFCE61"/>
<path d="M62.0388 18.4678C61.5363 18.4678 61.0724 18.3909 60.6086 18.3524L59.2171 18.237C58.9851 18.1985 58.7532 18.1985 58.5213 18.16C58.2894 18.1216 58.0574 18.0831 57.8255 18.0061C57.3617 17.8907 56.8978 17.7368 56.4727 17.506C56.9752 17.4676 57.439 17.506 57.9028 17.5445C58.3667 17.583 58.8305 17.583 59.333 17.6214C59.7969 17.6599 60.2994 17.7368 60.7632 17.8907C61.1497 18.0061 61.6136 18.1985 62.0388 18.4678Z" fill="#FFCE61"/>
<path d="M61.8068 15.1974C61.4976 15.1205 61.1884 15.0051 60.9178 14.8897C60.6472 14.7742 60.3767 14.6973 60.0674 14.5819C59.7969 14.4665 59.4876 14.3126 59.2557 14.1202C58.9851 13.9279 58.7532 13.6586 58.6759 13.3124C58.9851 13.4662 59.2171 13.5432 59.5263 13.6586C59.7969 13.7355 60.1061 13.8509 60.3767 13.9664C60.9178 14.2357 61.4976 14.5819 61.8068 15.1974Z" fill="#FFCE61"/>
<path d="M59.1397 19.6214C58.6759 19.5444 58.2121 19.3521 57.7869 19.1212C57.3617 18.9289 56.9365 18.6981 56.5886 18.3903C57.0525 18.5442 57.4777 18.7365 57.9028 18.9289C58.2894 19.1212 58.7146 19.3521 59.1397 19.6214Z" fill="#FFCE61"/>
<path d="M66.4838 24.7C66.2519 24.8924 65.9813 25.0462 65.6721 25.0847C65.3629 25.1617 65.0537 25.1617 64.7831 25.1617C64.2033 25.1617 63.7008 25.2001 63.1596 25.354C62.8891 25.431 62.6571 25.5079 62.3479 25.5848C62.0773 25.6618 61.7681 25.7387 61.4975 25.7772C60.9177 25.8541 60.2993 25.9311 59.7195 25.8157C60.2993 25.6618 60.8404 25.5079 61.3429 25.3155C61.6135 25.2386 61.8841 25.1232 62.1547 25.0078C62.2706 24.9693 62.4252 24.8924 62.5412 24.8539C62.6958 24.8154 62.8118 24.7385 62.9664 24.7C63.5462 24.5461 64.2033 24.5461 64.7831 24.6615C65.3629 24.7385 65.904 24.8539 66.4838 24.7Z" fill="#FFCE61"/>
<path d="M70.2333 24.5842C70.04 24.738 69.8468 24.8919 69.6535 25.0458C69.4602 25.1997 69.3056 25.392 69.035 25.5459C68.5325 25.8152 67.9914 25.8537 67.5276 25.9306C67.0637 26.0076 66.5999 26.123 66.136 26.2384C65.6722 26.3538 65.2083 26.5077 64.7445 26.6616C65.0924 26.2769 65.5176 25.9691 65.9814 25.7767C66.4453 25.5459 66.9478 25.392 67.4503 25.3151C67.9527 25.2382 68.4166 25.2382 68.8418 25.0843C69.035 25.0073 69.267 24.8919 69.4989 24.7765C69.7308 24.6996 70.0014 24.6226 70.2333 24.5842Z" fill="#FFCE61"/>
<path d="M60.7246 24.3148C60.1448 24.1994 59.6037 24.1609 59.1012 24.3148C58.5987 24.4687 58.0962 24.738 57.4777 24.8534C57.1685 24.8919 56.8206 24.8919 56.55 24.8534C56.2795 24.8149 56.0089 24.8149 55.7383 24.8149C55.1972 24.8149 54.656 24.8919 54.1149 25.0842C54.5401 24.661 55.1199 24.4302 55.6997 24.3148C56.0089 24.2763 56.3181 24.2379 56.6273 24.2763C56.8979 24.2763 57.1298 24.2763 57.4004 24.2379C57.9029 24.1609 58.4441 23.9301 59.0625 23.8532C59.3717 23.8147 59.681 23.8532 59.9902 23.9301C60.2221 23.9686 60.4927 24.1224 60.7246 24.3148Z" fill="#FFCE61"/>
<path d="M63.585 26.2765C63.1598 26.6997 62.7346 27.0844 62.1548 27.3537C61.575 27.623 60.9952 27.6615 60.3767 27.6999C59.7969 27.7384 59.2171 27.7769 58.676 27.8923C58.0962 28.0077 57.555 28.1616 56.9752 28.3155C57.4777 28.0077 58.0189 27.8154 58.5987 27.623C59.1785 27.4691 59.7583 27.3922 60.3381 27.3537C60.9179 27.3152 61.4977 27.2768 62.0388 27.0844C62.6186 26.9305 63.0825 26.5843 63.585 26.2765Z" fill="#FFCE61"/>
<path d="M65.7882 28.0852C65.6336 28.316 65.4789 28.5468 65.3243 28.7392C65.1697 28.97 65.0151 29.1624 64.8218 29.3547C64.3967 29.7779 63.9328 30.0087 63.469 30.278C62.5799 30.7781 61.6522 31.2782 60.6859 31.7014C61.0338 31.2782 61.4203 30.8935 61.8455 30.5858C62.2707 30.2395 62.6959 29.9702 63.1984 29.701L63.8942 29.3547C64.1261 29.2393 64.358 29.1239 64.5513 29.0085C64.8991 28.7007 65.3243 28.316 65.7882 28.0852Z" fill="#FFCE61"/>
<path d="M60.6473 28.5852C60.2994 28.9314 59.9515 29.2392 59.6037 29.5085L58.5987 30.4318C58.4054 30.5857 58.2508 30.7395 58.0575 30.8934C57.8642 31.0473 57.671 31.1627 57.4777 31.3166C57.0912 31.5474 56.666 31.7783 56.2021 31.9321C56.5114 31.5859 56.8593 31.2397 57.1685 30.9319C57.5164 30.6241 57.8256 30.3164 58.1735 30.0086C58.5214 29.7008 58.9079 29.3931 59.3331 29.1623C59.7196 28.893 60.1835 28.7006 60.6473 28.5852Z" fill="#FFCE61"/>
<path d="M57.9029 26.5461C57.5937 26.7 57.3231 26.8539 57.0525 26.9693C56.7819 27.0847 56.5114 27.2386 56.2408 27.354C55.9702 27.4694 55.661 27.5848 55.3131 27.6233C55.0039 27.6617 54.6173 27.6617 54.3081 27.5079C54.6173 27.3925 54.8879 27.277 55.1585 27.1616C55.4291 27.0462 55.6996 26.8923 55.9702 26.7769C56.5887 26.5076 57.2458 26.3537 57.9029 26.5461Z" fill="#FFCE61"/>
<path d="M59.6424 31.3937C59.2558 31.663 58.8306 31.8554 58.3668 32.0093C57.9416 32.1631 57.4778 32.317 57.0139 32.3555C57.4391 32.1247 57.8643 31.9323 58.2895 31.7784C58.7147 31.663 59.1785 31.5091 59.6424 31.3937Z" fill="#FFCE61"/>
<path d="M68.1846 30.7775C68.1073 31.0468 67.9527 31.3161 67.7594 31.5469C67.5662 31.7777 67.2956 31.9316 67.0637 32.0855C66.5998 32.3932 66.2133 32.701 65.8654 33.0857C65.7108 33.2781 65.5562 33.5089 65.3629 33.7397C65.1697 33.9705 65.015 34.1629 64.7831 34.3937C64.3579 34.7784 63.9328 35.1631 63.3916 35.3939C63.7781 34.9708 64.0874 34.5476 64.3966 34.0859C64.5512 33.8551 64.7058 33.6243 64.8604 33.3935C64.9377 33.2781 65.0151 33.1626 65.0924 33.0472C65.1697 32.9318 65.247 32.8164 65.3629 32.701C65.7495 32.2394 66.2906 31.8931 66.7931 31.6623C67.3343 31.4315 67.7981 31.2391 68.1846 30.7775Z" fill="#FFCE61"/>
<path d="M71.161 28.623C71.1224 28.8539 71.045 29.0847 71.0064 29.3155C70.9677 29.5463 70.9291 29.7772 70.8131 30.0465C70.5812 30.5466 70.156 30.8928 69.8468 31.2006C69.5376 31.5083 69.2283 31.8546 68.9191 32.2008C68.6099 32.5471 68.3393 32.9318 68.0687 33.3165C68.1074 32.8164 68.262 32.3547 68.4939 31.9315C68.7258 31.5083 69.0351 31.0852 69.3829 30.7389C69.7308 30.3927 70.1174 30.1234 70.3493 29.8156C70.4652 29.6618 70.5425 29.4309 70.6972 29.2386C70.8131 29.0078 70.9677 28.8154 71.161 28.623Z" fill="#FFCE61"/>
<path d="M63.2757 33.6249C62.7345 33.8172 62.3094 34.125 61.9615 34.5097C61.6522 34.8944 61.3817 35.3945 60.9565 35.8562C60.7246 36.087 60.454 36.2409 60.1834 36.3948C59.9515 36.5102 59.7196 36.6256 59.5263 36.7795C59.1011 37.0872 58.7146 37.4335 58.3667 37.8951C58.444 37.3181 58.7919 36.818 59.1784 36.3948C59.3717 36.2024 59.6423 36.0101 59.8742 35.8562C60.1061 35.7408 60.2994 35.5869 60.454 35.3945C60.8019 35.0483 61.1111 34.5482 61.5749 34.1635C61.8069 33.9711 62.0774 33.8172 62.348 33.7403C62.6959 33.5864 63.0051 33.5864 63.2757 33.6249Z" fill="#FFCE61"/>
<path d="M66.8318 33.6621C66.7545 34.2007 66.6385 34.7778 66.3293 35.3163C66.0201 35.8549 65.5562 36.2012 65.1311 36.5474C64.6672 36.8936 64.242 37.2399 63.8555 37.6246C63.469 38.0093 63.0824 38.4325 62.7732 38.8941C63.0051 38.3555 63.3143 37.8939 63.7009 37.4322C63.8941 37.2014 64.0874 37.0091 64.2807 36.8167C64.4739 36.6244 64.7445 36.432 64.9378 36.2781C65.4016 35.9319 65.8268 35.5856 66.136 35.1625C66.4066 34.7008 66.5999 34.1622 66.8318 33.6621Z" fill="#FFCE61"/>
<path d="M69.7309 33.9316C69.7695 34.2009 69.7695 34.4318 69.7695 34.7011C69.7695 34.9703 69.8082 35.2012 69.7695 35.4705C69.6922 36.0475 69.4216 36.5092 69.2284 36.9708C68.8032 37.8556 68.378 38.7789 67.8755 39.6638C67.8755 39.1252 67.9915 38.6251 68.1074 38.1249C68.2234 37.6248 68.4166 37.1247 68.6486 36.6631L68.9964 35.9706C69.1124 35.7398 69.2284 35.5474 69.3057 35.3166C69.383 34.9319 69.4989 34.3933 69.7309 33.9316Z" fill="#FFCE61"/>
<path d="M65.8656 37.1638C65.7882 37.6255 65.6723 38.0487 65.595 38.4718L65.3244 39.7798C65.2858 40.0107 65.2471 40.203 65.1698 40.4338C65.0925 40.6647 65.0538 40.857 64.9379 41.0878C64.7446 41.511 64.5513 41.9342 64.2808 42.2804C64.3194 41.8188 64.3967 41.3571 64.474 40.934C64.5513 40.5108 64.6286 40.0876 64.706 39.626C64.7833 39.2028 64.9379 38.7411 65.1311 38.318C65.3244 37.8948 65.5563 37.5101 65.8656 37.1638Z" fill="#FFCE61"/>
<path d="M62.3866 36.9717C62.232 37.2794 62.1161 37.5103 61.9614 37.7796C61.8068 38.0489 61.6909 38.2797 61.5363 38.5105C61.3816 38.7413 61.1884 39.0106 60.9565 39.2415C60.7245 39.4723 60.4153 39.6646 60.1061 39.6646C60.2993 39.3953 60.4153 39.1645 60.5699 38.9337C60.6859 38.7029 60.8405 38.4336 60.9951 38.1643C61.2657 37.6642 61.7295 37.164 62.3866 36.9717Z" fill="#FFCE61"/>
<path d="M66.7931 39.9717C66.6385 40.3949 66.4066 40.7796 66.136 41.1643C65.8654 41.549 65.5948 41.8952 65.2469 42.203C65.4402 41.7798 65.6721 41.3951 65.9427 41.0489C66.2133 40.7026 66.4839 40.3179 66.7931 39.9717Z" fill="#FFCE61"/>
<path d="M72.6684 31.5089C72.7844 31.7782 72.8231 32.0475 72.8231 32.3552C72.7844 32.663 72.7071 32.9323 72.5911 33.1631C72.3979 33.6632 72.2819 34.1249 72.2819 34.625C72.2819 34.7404 72.2819 34.8943 72.2819 35.0097V35.4329C72.2819 35.7022 72.2819 36.0099 72.2433 36.2792C72.1659 36.8178 72.05 37.3949 71.7408 37.8565C71.7794 37.3179 71.7794 36.7794 71.7408 36.2408C71.7408 35.9715 71.7021 35.7022 71.7021 35.4329C71.7021 35.3175 71.6635 35.1636 71.6635 35.0482C71.6635 34.8943 71.6635 34.7404 71.6635 34.625C71.6635 34.3172 71.7408 34.0479 71.8181 33.7402C71.8954 33.4709 72.0113 33.2016 72.1659 32.9708C72.3979 32.4706 72.6684 32.0859 72.6684 31.5089Z" fill="#FFCE61"/>
<path d="M72.3206 37.0098C72.5912 37.5099 72.8617 38.01 72.939 38.5871C73.0164 39.1642 72.9004 39.7412 72.7458 40.2798C72.5912 40.8184 72.4752 41.3185 72.3979 41.8956C72.3206 42.4342 72.3206 42.9728 72.3206 43.5498C72.166 43.0112 72.1273 42.4342 72.1273 41.8956C72.1273 41.6263 72.166 41.3185 72.2046 41.0492C72.2433 40.7799 72.3206 40.4722 72.3979 40.2413C72.5525 39.7027 72.7071 39.2026 72.6685 38.664C72.6685 38.087 72.5139 37.5484 72.3206 37.0098Z" fill="#FFCE61"/>
<path d="M71.3156 42.3955C71.3929 42.7033 71.4315 42.9726 71.4702 43.2804C71.5088 43.5497 71.5475 43.819 71.5861 44.1267C71.6248 44.396 71.6248 44.7038 71.5861 45.0116C71.5475 45.3193 71.4315 45.6656 71.161 45.8579C71.161 45.5501 71.1223 45.2808 71.045 45.0116C71.0063 44.7423 70.929 44.473 70.8904 44.1652C70.8904 43.5881 70.929 42.9341 71.3156 42.3955Z" fill="#FFCE61"/>
<path d="M72.7844 33.5477C72.939 33.9708 72.9777 34.4325 73.0163 34.8557C73.055 35.3173 73.055 35.7405 72.9777 36.2021C72.8617 35.779 72.8231 35.3173 72.8231 34.8941C72.7458 34.4325 72.7458 33.9708 72.7844 33.5477Z" fill="#FFCE61"/>
<path d="M57.0525 44.4737C57.3231 44.7045 57.5936 44.9353 57.8642 45.2046C57.8642 45.2431 58.56 45.7432 58.5986 45.7817C59.0238 45.8971 61.8842 48.667 66.3293 49.7442C68.3393 50.2443 72.3206 50.0135 72.7458 50.0519L72.7072 51.4369C66.3293 50.9752 58.9079 50.4751 51.7956 40.9728C51.6797 40.5881 51.5251 40.2034 51.2931 39.7418C48.7033 34.8945 46.4614 24.5843 47.9689 18.8522C49.4378 13.0816 51.6797 9.08065 60.0675 2.88687C61.3044 2.27134 62.6186 1.38651 65.7495 0.732508C69.5376 -0.152318 73.2097 -0.0369058 74.6785 0.0785062L74.6398 1.46345C74.5239 1.46345 72.0114 1.23263 71.3156 1.23263C66.2134 1.11721 63.5463 3.31004 63.2371 3.27157C56.2408 7.0417 51.3318 12.7738 49.8629 20.6988C49.8629 21.1604 46.5388 34.5867 57.0525 44.4737Z" fill="#F46E00"/>
<path d="M73.7894 22.8916L73.6348 27.1234C72.4752 26.9695 72.0114 29.3932 72.0114 30.4703C71.9727 31.7783 70.3879 36.4718 70.2333 36.8565C70.7358 33.5865 71.5475 32.3939 71.5475 29.9702C71.5475 29.0469 72.7071 27.5081 72.5525 26.5463C72.3979 25.5846 71.0064 26.4309 70.3106 27.0465C69.5376 27.662 67.8755 28.2006 65.9814 29.4316C66.2907 29.2008 67.5662 28.316 68.5326 27.8159C69.6149 27.2773 70.4266 26.1232 71.045 25.7769C71.8181 25.3537 71.1223 24.0073 68.0687 23.7764C66.7545 23.661 64.9764 23.084 64.9764 23.084C64.9764 23.084 68.8031 23.6995 69.3443 23.661C69.8854 23.6226 71.7795 24.7382 72.2046 24.5843C72.6298 24.4304 73.4029 23.738 72.7458 22.5069C72.0887 21.2758 70.8518 20.3141 70.6198 19.6601C70.3879 19.0061 69.7695 17.9674 69.7695 17.6596C69.7695 17.3518 69.151 16.6209 69.0351 16.4285C69.2283 16.6594 70.3879 17.8904 70.6972 18.8522C71.045 19.8909 72.166 20.6988 72.8231 21.5067C73.2483 22.1222 73.4416 22.8531 73.7894 22.8916Z" fill="#FFF6D3"/>
<g opacity="0.9">
<path d="M69.6923 39.6643C64.7833 42.7035 52.7234 44.8194 38.6149 44.8194C24.5837 44.8194 12.5624 42.7035 7.61478 39.7028C6.41653 38.9718 5.64346 38.2024 5.33423 37.3945C5.83672 53.2445 6.99633 88.6375 7.03498 89.1761C7.11229 89.7147 7.18959 90.0994 7.30556 90.4456C8.46516 94.1773 19.4041 98.9092 38.5762 98.9092C49.9403 98.9092 58.8306 97.4473 64.1262 95.2544C67.489 93.831 69.3444 91.8305 70.1948 87.8296C70.3107 87.3679 70.388 84.675 70.504 82.0205C70.8905 72.7106 71.4703 52.0134 71.8955 37.3945C71.6249 38.2024 70.8519 38.9718 69.6923 39.6643Z" fill="#FF001F"/>
</g>
<g opacity="0.8">
<path d="M72.0499 36.6646C72.0499 37.7418 71.1996 38.742 69.6921 39.6653C64.7831 42.7045 52.7232 44.8204 38.6147 44.8204C24.5835 44.8204 12.5623 42.7045 7.61461 39.7038C6.06847 38.742 5.17944 37.7418 5.17944 36.6646C5.17944 35.6259 5.99117 34.6256 7.42134 33.7023C12.253 30.6631 24.3902 28.5088 38.6147 28.5088C52.8778 28.5088 65.0537 30.7016 69.8467 33.7793C71.2769 34.6641 72.0499 35.6259 72.0499 36.6646Z" fill="#BE2225"/>
</g>
<path opacity="0.4" d="M53.4578 95.8708C53.4191 95.8708 53.4191 95.8323 53.3805 95.8323L65.8269 84.5604C66.2908 84.9066 66.9479 85.2144 67.5277 85.099H67.5663C67.7596 85.0605 67.9142 84.9836 68.0302 84.8681L55.5837 96.1401C55.3905 96.2939 55.1586 96.3709 54.9266 96.3709C54.6947 96.3709 54.4628 96.3324 54.2695 96.2555C53.9603 96.1785 53.6897 96.0247 53.4578 95.8708Z" fill="#D4D5D6"/>
<path opacity="0.6" d="M36.3344 81.791C36.3344 81.791 39.1947 69.5958 39.2334 69.5958C39.272 69.4419 39.3493 69.288 39.4653 69.1726L39.5039 69.1341L51.9504 57.8622C51.873 57.9392 51.8344 57.9776 51.7957 58.0546C51.6411 58.3239 51.8344 57.8237 48.8194 70.4806L36.3344 81.791Z" fill="#D4D5D6"/>
<path opacity="0.4" d="M50.4816 73.6737L38.0352 84.9456L53.3806 95.8328L65.827 84.5225L50.4816 73.6737Z" fill="#D4D5D6"/>
<path opacity="0.6" d="M36.3344 81.8673C36.3344 81.8288 36.3344 81.8288 36.3344 81.7904L48.7808 70.5185C48.7808 70.5569 48.7808 70.6339 48.7422 70.6723V70.7108C48.7422 70.8262 48.7422 70.9416 48.7422 71.0955C48.8195 71.788 49.2446 72.4805 49.6698 72.9806C49.8244 73.1729 50.0177 73.3653 50.2496 73.5192C50.3269 73.5576 50.4043 73.6346 50.4429 73.6731L37.9965 84.945C37.9578 84.945 37.9578 84.9065 37.9192 84.9065C37.8805 84.868 37.8419 84.8296 37.8032 84.7911C37.8032 84.7911 37.7646 84.7911 37.7646 84.7526C37.494 84.5218 37.2621 84.291 37.0688 84.0217C36.6823 83.5216 36.3344 82.906 36.2571 82.329C36.2957 82.2136 36.2957 82.0597 36.3344 81.8673Z" fill="#F4F4F4"/>
<path opacity="0.4" d="M54.1536 58.2081C52.994 57.4002 51.873 57.4771 51.6411 58.4004L48.7808 70.5571C48.5488 71.4804 49.3219 72.9039 50.4815 73.7117L65.827 84.5605C66.9866 85.3684 68.1075 85.2914 68.3394 84.3681L71.1998 72.2114C71.4317 71.2881 70.6586 69.8647 69.499 69.0568L54.1536 58.2081Z" fill="#F4F4F4"/>
<path opacity="0.6" d="M9.04506 69.4802L20.3705 74.8661L28.797 89.3695L17.4329 83.9836C17.3942 83.9836 17.3556 83.9452 17.3556 83.9452C17.3169 83.9452 17.3169 83.9067 17.2783 83.9067L17.2396 83.8682C17.2396 83.8682 17.2396 83.8682 17.2009 83.8298C17.1623 83.7913 17.1623 83.7913 17.1236 83.7528C17.085 83.7143 17.085 83.7143 17.085 83.6759L17.0463 83.6374L8.61987 69.134C8.73583 69.2494 8.89045 69.4032 9.04506 69.4802Z" fill="#D4D5D6"/>
<path opacity="0.4" d="M46.191 75.7117L37.7645 61.2083C38.1124 60.9005 38.4216 60.4773 38.5762 60.0542C38.6536 59.8618 38.6922 59.6695 38.6536 59.4771C38.6536 59.4386 38.6149 59.3617 38.6149 59.3232V59.2847C38.6149 59.2463 38.5762 59.2078 38.5376 59.1309L46.9641 73.6343C47.2733 74.1729 46.9254 74.8654 46.5389 75.327C46.4229 75.4809 46.3069 75.6348 46.191 75.7117Z" fill="#D4D5D6"/>
<path opacity="0.4" d="M23.8494 73.8655L32.2758 88.3305L46.1911 75.7121L37.7646 61.2472L23.8494 73.8655Z" fill="#D4D5D6"/>
<path opacity="0.6" d="M28.8742 89.3689C28.8356 89.3689 28.8356 89.3689 28.7969 89.3304L20.3705 74.827C20.4091 74.8654 20.4478 74.8654 20.5251 74.8654H20.5638C20.6024 74.8654 20.6797 74.9039 20.7184 74.9039C21.5301 75.0578 22.4964 74.7116 23.1922 74.2499C23.4241 74.096 23.656 73.9421 23.8106 73.7882L32.2371 88.2917C32.1984 88.2917 32.1984 88.3302 32.1598 88.3302C32.1211 88.3686 32.0825 88.4071 32.0438 88.4456C32.0438 88.4456 32.0052 88.4456 32.0052 88.4841C30.9615 89.3304 29.686 89.5997 28.9516 89.3689H28.9129C28.9516 89.3689 28.9129 89.3689 28.8742 89.3689Z" fill="#F4F4F4"/>
<path opacity="0.4" d="M9.43157 67.0175C8.38793 67.9793 8.23332 69.0949 9.08369 69.4796L20.4092 74.8655C21.2595 75.2887 22.8057 74.8271 23.888 73.8653L37.8032 61.2469C38.8469 60.2851 39.0015 59.1695 38.1511 58.7848L26.8256 53.3989C25.9753 52.9757 24.4291 53.4374 23.3468 54.3991L9.43157 67.0175Z" fill="#F4F4F4"/>
<path opacity="0.6" d="M43.3306 60.6702C43.3306 60.5932 43.3306 60.4778 43.292 60.3624L40.1997 48.2826L45.9977 32.5481C45.9977 32.5481 49.1287 44.6664 49.1287 44.7048C49.1287 44.7433 49.1287 44.7818 49.1287 44.8202C49.1287 44.8587 49.1287 44.8972 49.1287 44.9357V44.9741V45.0126C49.1287 45.0511 49.1287 45.0895 49.1287 45.0895C49.1287 45.128 49.1287 45.1665 49.09 45.1665V45.2049L43.292 60.9395C43.292 60.8625 43.292 60.7856 43.3306 60.6702Z" fill="#D4D5D6"/>
<path opacity="0.4" d="M24.2358 27.9701C24.2745 27.9701 24.3131 27.9701 24.3131 27.9701L18.5151 43.7046C18.3605 43.6662 18.1672 43.6662 18.0126 43.6662C17.7034 43.6662 17.3555 43.7046 17.0849 43.82C16.853 43.897 16.6597 44.0509 16.5051 44.2432C16.5051 44.2432 16.5051 44.2817 16.4665 44.2817C16.4278 44.3202 16.4278 44.3586 16.3892 44.4356L22.1872 28.7011C22.4964 28.0086 23.5014 27.8932 24.2358 27.9701Z" fill="#D4D5D6"/>
<path opacity="0.4" d="M37.1847 46.282L42.9827 30.5475L24.3517 27.97L18.5537 43.7045L37.1847 46.282Z" fill="#D4D5D6"/>
<path opacity="0.6" d="M45.9204 32.472C45.9204 32.5105 45.9204 32.5105 45.959 32.5489L40.161 48.2835C40.161 48.245 40.1224 48.168 40.1224 48.1296V48.0911C39.8904 47.591 39.3879 47.1293 38.9241 46.86C38.8081 46.7831 38.6535 46.7062 38.4989 46.6292C38.151 46.4753 37.8418 46.3599 37.4939 46.283C37.4939 46.283 37.4939 46.283 37.4553 46.283C37.378 46.283 37.3007 46.2445 37.1847 46.2445L42.9827 30.51C43.0214 30.51 43.0214 30.51 43.06 30.51C44.181 30.7408 45.6111 31.5102 45.9204 32.472Z" fill="#F4F4F4"/>
<path opacity="0.4" d="M41.166 61.6708C42.5961 61.8632 43.5238 61.2861 43.2919 60.3628L40.1996 48.283C39.9677 47.3597 38.6148 46.4749 37.2233 46.2825L18.5923 43.705C17.1621 43.5126 16.2345 44.0897 16.4664 45.013L19.5587 57.0928C19.7906 58.0161 21.1435 58.9009 22.535 59.0933L41.166 61.6708Z" fill="#F4F4F4"/>
<path d="M22.9215 25.661C26.2844 21.3907 29.1834 18.0822 29.4153 18.2746C29.6472 18.4669 27.1734 22.0832 23.8492 26.3919C15.8479 36.6636 14.8816 36.0865 22.9215 25.661Z" fill="#3D420C"/>
<path d="M26.5162 28.0847C31.1933 25.3533 35.0973 23.3143 35.2519 23.5451C35.3679 23.776 31.6958 26.1612 27.0187 28.8926C15.8092 35.5095 15.1908 34.7401 26.5162 28.0847Z" fill="#F6FEC9"/>
<path d="M17.8966 27.9691L17.9352 27.5459V27.1227C17.9352 26.8534 17.9739 26.5841 17.9352 26.2764L17.8966 25.43C17.8579 25.1607 17.8193 24.8914 17.7806 24.5836C17.742 24.3143 17.7033 24.0066 17.626 23.7373L17.3941 22.8909C17.2395 22.3523 17.0075 21.8138 16.8529 21.2367V21.1982C16.8143 21.0828 16.8916 20.9289 17.0075 20.8905C17.1235 20.852 17.2395 20.8905 17.2781 21.0059C17.626 21.506 17.9739 22.0061 18.2445 22.5447C18.4764 23.1218 18.7856 23.6603 18.9402 24.2759C19.0175 24.5836 19.1335 24.8914 19.1721 25.1992L19.2881 26.1225C19.3267 26.2764 19.3267 26.4302 19.3267 26.5841V27.5459C19.3267 27.6998 19.2881 27.8537 19.2494 28.0075C18.6696 32.2393 15.1522 35.1246 15.3454 34.2013C16.3891 32.4701 17.626 30.7774 17.8966 27.9691Z" fill="#5F6725"/>
<path d="M22.9601 31.9703C20.1384 31.5471 18.7469 33.3937 13.606 35.4711C10.6683 36.6637 10.2818 37.4716 9.7793 36.7022C9.1995 35.7789 11.1708 35.2403 13.2968 34.5863C18.0898 33.1244 17.626 32.8166 19.5973 32.2011C20.6796 31.8548 21.8392 31.701 22.9601 31.9703Z" fill="#B8D287"/>
<path d="M31.1547 32.009C33.242 32.3552 38.4602 33.8941 38.151 34.4711C38.0737 34.5865 37.9191 34.5481 37.9577 34.5481C30.227 32.5091 19.0562 32.7784 19.0948 32.7784C17.4714 32.7015 22.1484 30.5087 31.1547 32.009Z" fill="#747E30"/>
<path d="M34.0537 34.2394C34.015 34.7011 30.3816 34.5087 29.9564 34.4702C29.3379 34.4318 18.2444 33.2392 18.2444 33.0083C18.2444 32.5467 34.131 33.6239 34.0537 34.2394Z" fill="#858C5E"/>
<path d="M25.1634 25.8916C29.4153 21.7368 32.9714 18.5437 33.1261 18.6976C33.2807 18.8515 29.9565 22.3138 25.7046 26.4687C15.5001 36.3941 14.843 35.9324 25.1634 25.8916Z" fill="#A2A878"/>
<path d="M23.8492 34.0094C23.8879 34.0479 27.1347 35.6252 26.8255 36.0099C26.7482 36.0868 26.5936 36.0484 26.6323 36.0484C26.3617 35.933 25.0088 35.1635 24.1971 34.8942C19.1335 32.8168 16.3504 34.625 16.1958 34.0479C16.0412 33.4708 19.9839 32.3552 23.8492 34.0094Z" fill="#494E11"/>
<path opacity="0.5" d="M74.408 93.408C74.408 93.4464 74.292 93.8312 74.292 93.7927L74.2147 94.0235C74.176 94.062 73.5189 95.4469 73.5189 95.4085C69.3444 101.102 54.1149 103.103 47.0413 103.603C44.3356 103.795 41.4752 103.91 38.5762 103.91C21.6846 103.91 7.61477 100.525 3.71077 95.9855C3.20827 95.4085 2.82174 94.716 2.70578 93.985C1.12098 86.137 25.7432 82.9824 38.5762 82.9824C41.5139 82.9824 44.3356 83.0978 47.08 83.2902C62.58 84.3674 74.0214 88.1375 74.4853 92.9079C74.4466 93.2926 74.408 93.4464 74.408 93.408Z" fill="#BFBFBF"/>
<path opacity="0.2" d="M75.4903 23.1995C75.1424 24.5075 72.282 26.3541 65.0925 27.8545C60.8406 28.7393 55.777 29.4318 50.2496 29.8165C46.5388 30.0858 42.5962 30.2012 38.5762 30.2012C28.5263 30.2012 19.1335 29.3549 12.0599 27.8545C4.87038 26.3157 2.01002 24.4691 1.66214 23.1995H0.0386963L2.66713 93.5239C2.66713 93.6009 2.70579 94.2164 2.78309 94.3703C3.47886 95.5244 3.24693 95.7937 4.44519 96.9478C9.12226 101.526 22.4964 105.565 38.4216 105.565C42.2096 105.565 45.8431 105.334 49.2832 104.873C72.1274 101.988 74.292 93.9471 74.2534 94.0241C74.2534 93.9856 74.4466 93.3701 74.4466 93.4085C74.4466 93.3701 74.4853 93.1008 74.4853 93.1392C77.5776 12.043 77.1137 24.5075 77.1524 23.1995H75.4903ZM34.7109 78.5973C34.0924 85.6759 28.0238 90.6386 21.5687 89.4076C16.5051 88.4458 12.717 83.8678 12.3692 78.328L9.31553 30.2397L38.5762 33.048L34.7109 78.5973Z" fill="#D8D8D8"/>
<path opacity="0.3" d="M77.1137 23.1992L74.4466 93.1774L74.408 93.4082V93.4851L74.2533 94.0237L74.0601 94.4854C73.9441 94.6777 73.5189 95.7549 72.6299 96.5628C68.9965 100.141 60.2994 103.488 49.2832 104.872L50.2495 29.8162C55.777 29.4314 60.8406 28.7774 65.0925 27.8541C72.282 26.3153 75.1424 24.4687 75.4903 23.1992H77.1137Z" fill="#D8D8D8"/>
<path d="M73.6349 25.0461C73.6349 25.7386 72.9392 53.8222 72.3207 67.9794C71.4703 86.907 72.3207 91.2157 67.9142 94.4472C63.5077 97.6788 45.4565 100.833 35.2134 100.372C25.1248 99.9101 13.2969 95.2936 12.949 95.1782C21.2981 97.5249 35.2907 98.9098 46.6548 98.1404C57.8257 97.371 63.5464 95.5629 66.3294 92.9469C69.1125 90.3309 69.383 87.4071 69.615 81.598C69.8082 76.8276 71.1611 26.9312 71.1611 26.2387C72.2048 25.777 73.0165 25.3923 73.6349 25.0461Z" fill="white"/>
<path d="M77.1137 23.1992C74.4079 94.7162 74.4079 93.4851 74.4079 93.4082C74.3306 93.716 74.2147 94.0622 74.2147 94.0237C74.176 94.0622 73.4803 95.4856 73.5189 95.4087L73.0937 95.9473C66.7932 103.064 48.7807 105.565 38.3829 105.565C29.1061 105.565 8.96761 103.334 3.55612 96.0242C3.51747 95.9472 2.70574 94.293 2.7444 94.4084C2.58978 94.1007 2.58978 92.6003 2.58978 92.5618L0 23.2377H1.62345C1.81671 23.9686 2.78305 24.8534 4.79303 25.7383C4.79303 25.7383 6.95763 89.2534 7.03493 89.7919C7.11224 90.3305 7.18955 90.6768 7.30551 90.9845C8.46511 94.5238 19.404 98.9864 38.5762 98.9864C49.9403 98.9864 58.8306 97.64 64.1261 95.5241C67.489 94.1776 69.3443 92.2925 70.1947 88.5224C70.3107 88.0992 70.388 85.5602 70.5039 83.0596C71.161 68.6715 72.3206 25.6998 72.3206 25.6998C73.9441 24.9688 74.8718 24.2764 75.2583 23.6608C75.3743 23.507 75.4516 23.3531 75.4902 23.1992H77.1137Z" fill="#E5E5E5"/>
<path d="M77.1137 23.1992C77.1137 23.43 77.307 18.275 74.4466 93.1774C74.4466 93.2159 74.408 93.4467 74.408 93.4852C74.3693 93.6006 74.2147 94.2161 73.9828 94.5623C73.8668 94.7547 73.4416 95.678 72.7845 96.3705C72.7459 96.4089 72.6686 96.4859 72.6299 96.5243C67.7982 101.102 54.3855 105.526 38.4602 105.526C29.1834 105.526 9.62474 103.334 3.78806 96.1781C3.51749 95.8703 3.5948 95.8703 3.40153 95.5241L2.82173 94.37C2.66711 94.0622 2.66711 92.7157 2.66711 92.5234C2.78307 92.7542 4.56114 96.1781 11.9053 98.3325C19.4814 100.564 29.9178 102.564 42.2483 101.833C54.5787 101.102 65.7882 98.0247 69.499 95.5626C73.2097 93.1004 73.2097 87.099 73.4803 78.9048C73.6735 72.634 74.7945 39.0491 75.3356 23.6609C75.4516 23.507 75.5289 23.3531 75.5676 23.1992H77.1137Z" fill="#D6D6D6"/>
<path d="M74.408 93.5239C74.292 94.4087 73.7895 95.2166 73.2484 95.8706C68.4554 101.795 52.3755 105.565 38.4216 105.565C22.4964 105.565 9.12229 101.526 4.44522 96.9478C2.6285 95.2166 2.78312 94.1394 2.70581 93.9471C2.74446 94.0625 2.82177 94.1779 2.86042 94.2933C2.97638 94.5241 3.131 94.755 3.32427 94.9858C6.95769 99.6408 21.2981 103.103 38.4603 103.103C56.3182 103.103 71.1225 99.333 73.9828 94.4087C74.0601 94.2549 74.1374 94.101 74.2147 93.9471C74.3693 93.6009 74.4853 93.2546 74.4853 92.8699C74.4853 93.1007 74.4467 93.3316 74.408 93.5239Z" fill="#BCBCBC"/>
<path d="M77.1136 23.1992L74.4465 92.9081L76.1473 23.1992H77.1136Z" fill="#BCBCBC"/>
<path opacity="0.3" d="M9.27686 30.2012L12.3305 78.2896C12.6784 83.8293 16.4664 88.3689 21.53 89.3691C27.9851 90.6386 34.0924 85.6375 34.6722 78.5589L38.5762 33.048L9.27686 30.2012Z" fill="white"/>
<path opacity="0.8" d="M14.8816 31.2402L18.2058 64.3635L22.4577 32.0096L14.8816 31.2402Z" fill="white"/>
<path d="M54.8492 32.3175L56.7046 78.6362L57.5163 32.0098L54.8492 32.3175Z" fill="white"/>
<path d="M99.4167 32.6635C97.9479 38.4341 95.706 42.435 87.3182 48.6288C87.009 48.7827 83.3369 50.36 83.0277 50.4369C82.3706 50.6293 78.196 50.9755 72.7458 50.36L74.6399 1.04057C79.4716 0.578919 84.0713 1.84845 88.3232 4.07975C89.8307 5.34928 93.2322 8.11917 96.0925 11.7739C98.6823 16.5827 100.886 26.8929 99.4167 32.6635Z" fill="#ED8E00"/>
<path d="M72.9004 46.1662L73.5188 29.6238C76.1473 31.8166 75.7608 33.0092 77.1909 34.548C78.1959 35.6252 78.3505 37.0871 78.8144 38.4335C79.2782 39.857 80.5151 40.0878 81.0176 41.2034C81.5588 42.3191 81.3268 43.5886 80.3605 42.7038C79.3555 41.819 79.2782 44.5119 77.6161 44.9351C75.954 45.3583 76.1859 46.4739 75.1036 46.0123C74.7944 45.8969 74.5625 45.8584 74.2533 45.8969C73.8667 45.8969 73.7894 46.397 72.9004 46.1662Z" fill="#FBB809"/>
<path d="M85.2309 42.9736C84.999 42.3581 84.1099 41.1655 84.2645 41.3194C84.4192 41.5117 86.3132 43.2044 87.898 42.7428C89.4055 42.3196 91.8406 39.2035 92.0725 38.1263C92.2658 37.1261 94.6237 33.7406 94.5077 32.5096C94.3144 30.4322 95.6673 28.5086 92.3431 27.2776C95.8219 27.0852 95.3967 23.2382 94.4304 21.5839C93.696 20.3528 94.1985 17.7753 92.9229 16.6597C91.6474 15.5825 90.2172 16.0057 90.1399 16.0441C90.681 15.6594 91.8793 14.6207 91.57 14.0437C91.1835 13.3512 89.2508 10.0812 87.782 9.38871C85.4241 8.27306 86.3132 7.696 82.5638 6.5034C81.095 6.04176 80.0127 5.77246 79.2782 7.11894C80.3992 4.84916 76.1087 4.15669 74.4852 4.38752L74.6012 1.04057C79.4329 0.578919 84.0326 1.84845 88.2845 4.07975C89.1349 4.81069 93.0002 7.84988 96.0538 11.7739C98.6436 16.6212 100.886 26.9313 99.378 32.6635C97.9092 38.4341 95.6673 42.435 87.2795 48.6288C86.1972 49.1674 85.1149 49.5906 83.994 49.9753C83.6847 50.0907 84.0713 50.2061 82.4865 50.5523C82.2546 50.5908 82.3705 50.4369 81.5975 50.5523C78.5825 50.9755 74.2533 50.5523 72.7072 50.36L72.8231 47.1284C79.0077 46.5514 77.7708 48.5134 83.5688 45.6666C85.0763 44.8587 85.4628 43.5891 85.2309 42.9736Z" fill="#FFF6D3"/>
<path d="M92.8457 39.9344C93.5801 38.511 92.3818 39.6267 93.9666 37.3184C95.4741 35.1256 95.7447 35.241 96.1312 33.8176C96.7883 31.7786 96.827 32.2018 96.9043 31.6632C96.9429 31.317 96.9043 30.7784 96.827 30.4322C96.827 30.2398 96.7883 30.1244 96.7883 30.009C96.6723 29.0088 97.2908 29.0472 97.4454 24.777C97.4841 23.9306 96.9043 22.7765 96.6723 20.4683V20.4298C96.6723 20.199 96.6337 20.0836 96.6337 19.8527C96.3631 16.3134 95.8993 17.2752 93.2708 11.9278C92.4591 10.2735 91.4155 9.19635 90.1013 7.96529C90.0626 7.92682 86.893 5.07999 86.2746 4.69528C84.11 3.31034 82.2933 3.65657 80.7858 2.81022C77.2296 0.809743 78.8917 2.42551 76.1474 2.07928C75.6062 2.00233 75.1037 2.27163 74.6012 2.19469L74.6399 1.04057C79.4716 0.578919 84.0713 1.84845 88.3232 4.07975C89.1736 4.81069 93.0389 7.84988 96.0925 11.7739C98.6823 16.6212 100.924 26.9313 99.4167 32.6635C97.9479 38.4341 95.706 42.435 87.3182 48.6288C86.3905 49.0904 84.5352 49.7829 84.0327 49.9753C83.7234 50.0907 84.11 50.2061 82.5252 50.5523C82.2933 50.5908 82.4092 50.4369 81.6361 50.5523C78.6212 50.9755 74.292 50.5523 72.7458 50.36L72.7845 49.3213C73.8668 49.3982 75.1037 49.5906 76.1087 49.4752C80.6312 48.9366 79.1623 50.0522 80.7471 49.0135C81.9067 48.2056 80.8244 48.8981 83.105 47.7824C83.105 47.7824 83.1436 47.7824 83.1436 47.744C85.3082 46.6283 84.6898 47.2823 85.8107 46.2436C86.893 45.2819 87.898 43.8969 90.1013 42.8197C92.1885 41.7041 92.0726 41.4733 92.8457 39.9344Z" fill="#F29446"/>
<path d="M76.5339 49.6676C77.075 49.7446 76.9591 50.5524 76.4179 50.437C75.8381 50.3986 75.9541 49.5907 76.5339 49.6676Z" fill="#F46E00"/>
<path d="M80.4766 49.9752C80.3993 50.5138 79.5489 50.3599 79.6262 49.8598C79.7035 49.3212 80.5539 49.4366 80.4766 49.9752Z" fill="#F46E00"/>
<path d="M84.6897 48.2445C84.2259 48.5523 83.7234 47.8983 84.1872 47.5905C84.3805 47.4751 85.1536 47.9368 84.6897 48.2445Z" fill="#F46E00"/>
<path d="M85.6947 47.5902C85.2309 47.8979 84.7284 47.2439 85.1922 46.9362C85.4241 46.8207 86.1586 47.2824 85.6947 47.5902Z" fill="#F46E00"/>
<path d="M92.6138 42.6656C92.2272 43.0503 91.2609 42.204 91.6474 41.8193C91.802 41.6654 92.9616 42.2809 92.6138 42.6656Z" fill="#F46E00"/>
<path d="M90.1785 44.089C89.7146 44.3968 89.2121 43.7428 89.676 43.435C90.1398 43.1657 90.6423 43.8197 90.1785 44.089Z" fill="#F46E00"/>
<path d="M86.5065 47.2058C85.9267 47.5905 85.1923 46.5903 85.7721 46.2056C85.9654 46.0517 87.0477 46.8211 86.5065 47.2058Z" fill="#F46E00"/>
<path d="M87.5501 46.2052C86.9703 46.5899 86.2359 45.5897 86.8157 45.2049C87.0476 45.0511 88.1299 45.8205 87.5501 46.2052Z" fill="#F46E00"/>
<path d="M78.0026 49.6292C78.9303 49.5907 78.969 50.5909 78.0413 50.6294C77.1522 50.6294 77.1136 49.6676 78.0026 49.6292Z" fill="#F46E00"/>
<path d="M94.0052 39.5499C94.701 39.9346 93.9279 41.2042 93.2322 40.8579C92.9229 40.704 93.3095 39.2037 94.0052 39.5499Z" fill="#F46E00"/>
<path d="M82.2546 49.1676C82.2932 49.9755 80.9017 50.014 80.863 49.2061C80.863 48.8599 82.2159 48.3598 82.2546 49.1676Z" fill="#F46E00"/>
<path d="M84.11 47.975C84.3806 48.7444 83.1823 49.1291 82.8731 48.3597C82.7958 48.0519 83.8394 47.2056 84.11 47.975Z" fill="#F46E00"/>
<path d="M88.3618 44.5132C89.1735 44.244 89.5987 45.3981 88.787 45.6674C87.9752 45.9367 87.5887 44.7825 88.3618 44.5132Z" fill="#F46E00"/>
<path d="M96.5951 36.0105C96.8656 36.7799 95.6674 37.1647 95.3581 36.3952C95.2422 36.0875 96.3245 35.2796 96.5951 36.0105Z" fill="#F46E00"/>
<path d="M98.1025 31.2408C98.3344 32.0102 97.0589 32.3179 96.8656 31.5485C96.6337 30.7791 97.8706 30.4713 98.1025 31.2408Z" fill="#F46E00"/>
<path d="M97.5999 30.7403C96.7882 30.9326 96.4403 29.7785 97.2907 29.5861C97.5999 29.5092 98.4116 30.5479 97.5999 30.7403Z" fill="#F46E00"/>
<path d="M98.6822 27.2777C98.9142 28.0471 97.6386 28.3549 97.4453 27.5855C97.2134 26.8161 98.4503 26.5083 98.6822 27.2777Z" fill="#F46E00"/>
<path d="M98.0251 24.9308C97.2134 25.1231 96.8655 23.969 97.7159 23.7767C98.0638 23.6997 98.8755 24.7384 98.0251 24.9308Z" fill="#F46E00"/>
<path d="M95.3581 13.082C95.7833 13.5821 95.0102 14.1592 94.585 13.6591C94.3918 13.4667 94.9329 12.5819 95.3581 13.082Z" fill="#F46E00"/>
<path d="M88.787 5.5424C89.2894 5.1577 89.9466 5.88864 89.4054 6.27335C88.9029 6.69652 88.2845 5.96558 88.787 5.5424Z" fill="#F46E00"/>
<path d="M86.1199 3.84945C86.7383 3.58015 87.1249 4.34957 86.5064 4.61886C85.9266 4.88816 85.5014 4.11874 86.1199 3.84945Z" fill="#F46E00"/>
<path d="M85.3082 3.46447C85.5788 2.96435 86.5065 3.426 86.2359 3.92612C85.9267 4.42624 84.999 3.96459 85.3082 3.46447Z" fill="#F46E00"/>
<path d="M81.636 1.61725C82.2545 1.92502 81.8293 2.69443 81.2109 2.38666C80.9403 2.27125 81.0176 1.30948 81.636 1.61725Z" fill="#F46E00"/>
<path d="M82.525 1.92498C83.1435 2.23275 82.7183 3.00216 82.0998 2.6944C81.4814 2.38663 81.9066 1.61722 82.525 1.92498Z" fill="#F46E00"/>
<path d="M83.3755 2.19474C83.9939 2.5025 83.5687 3.27192 82.9503 2.96415C82.3705 2.65639 82.7957 1.88697 83.3755 2.19474Z" fill="#F46E00"/>
<path d="M84.5351 2.61785C85.7334 3.19491 85.3082 3.96432 84.1099 3.38726C82.9503 2.77173 83.3369 2.00232 84.5351 2.61785Z" fill="#F46E00"/>
<path d="M93.7733 12.0053C94.5077 11.4667 95.1262 12.1977 94.3917 12.7363C93.696 13.2749 93.0775 12.5439 93.7733 12.0053Z" fill="#F46E00"/>
<path d="M88.5551 5.11879C89.0963 5.50349 88.2846 6.5422 87.7434 6.1575C87.2023 5.81126 88.014 4.77255 88.5551 5.11879Z" fill="#F46E00"/>
<path d="M93.9665 10.9665C94.469 11.5436 93.3867 12.3514 92.8843 11.7744C92.6523 11.5436 93.4641 10.3894 93.9665 10.9665Z" fill="#F46E00"/>
<path d="M93.696 9.85037C94.1985 10.4274 93.1162 11.2353 92.6137 10.6583C92.4204 10.4274 93.2321 9.27331 93.696 9.85037Z" fill="#F46E00"/>
<path d="M91.802 8.85042C92.5364 8.31183 93.2322 9.15818 92.5364 9.69677C91.8406 10.2738 91.1062 9.38901 91.802 8.85042Z" fill="#F46E00"/>
<path d="M89.4055 6.27324C90.1399 5.73465 90.8357 6.581 90.1399 7.11959C89.4442 7.65818 88.7097 6.81183 89.4055 6.27324Z" fill="#F46E00"/>
<path d="M92.4204 7.96582C92.9229 8.54288 91.8406 9.35077 91.3381 8.77371C91.1062 8.54288 91.9179 7.38876 92.4204 7.96582Z" fill="#F46E00"/>
<path d="M87.3954 4.34941C88.1298 3.81082 88.8256 4.65718 88.1298 5.19576C87.3954 5.73435 86.661 4.888 87.3954 4.34941Z" fill="#F46E00"/>
<path d="M77.5389 1.1562C78.4666 1.11773 78.5053 1.8102 77.5776 1.84867C76.6499 1.88714 76.6112 1.19467 77.5389 1.1562Z" fill="#F46E00"/>
<path d="M91.1449 7.19551C92.0726 7.92646 91.1835 8.9267 90.2558 8.19575C89.3282 7.46481 90.2558 6.46457 91.1449 7.19551Z" fill="#F46E00"/>
<path d="M97.3681 20.6993C96.5564 20.8917 96.2085 19.7375 97.0589 19.5452C97.4068 19.4298 98.2185 20.4685 97.3681 20.6993Z" fill="#F46E00"/>
<path d="M97.3294 34.9719C96.9815 36.4723 95.7446 36.203 96.0538 34.7026C96.2084 34.0871 97.6772 33.51 97.3294 34.9719Z" fill="#F46E00"/>
<path d="M97.2907 16.9675C97.8319 18.0062 96.6723 18.5448 96.1311 17.4676C95.8992 17.0444 96.7496 15.9288 97.2907 16.9675Z" fill="#F46E00"/>
<path d="M96.1698 14.3522C96.9815 15.2371 96.0152 16.0065 95.2034 15.1601C94.8556 14.7754 95.3581 13.4674 96.1698 14.3522Z" fill="#F46E00"/>
<path d="M95.5127 37.5496C95.8606 38.4344 94.3917 38.8961 94.0825 38.0113C93.9279 37.665 95.1648 36.6648 95.5127 37.5496Z" fill="#F46E00"/>
<path d="M96.9042 32.7786C97.9865 33.3172 97.368 34.4328 96.2857 33.8942C95.2034 33.3941 95.8219 32.2785 96.9042 32.7786Z" fill="#F46E00"/>
<path d="M75.2583 50.1676C75.2196 50.4754 74.3692 50.36 74.4079 50.0522C74.4465 49.8983 75.2969 49.8599 75.2583 50.1676Z" fill="#F46E00"/>
<path d="M76.9204 27.8155C76.6112 29.2774 82.5252 37.1639 83.2596 37.8948C84.4578 39.0874 84.5738 40.9725 86.3518 41.3187C88.1299 41.665 87.9366 39.3182 87.1249 38.2411C86.3518 37.1639 88.1686 37.2793 88.0913 35.4712C88.0139 33.6631 87.3955 33.3553 88.6324 32.2396C89.908 31.1625 86.6997 31.3163 83.6461 29.8545C78.969 27.5462 77.1137 26.8922 76.9204 27.8155Z" fill="#FBB809"/>
<path d="M76.8045 24.4689C76.9591 25.8538 77.6935 25.4691 84.2259 27.2772C86.6224 27.9312 89.8693 26.8925 88.8643 25.9692C87.8594 25.0459 85.7334 25.8153 85.3082 24.8536C84.8444 23.9303 87.2409 23.1224 86.3132 22.5068C85.3855 21.8913 83.7234 22.3914 84.11 21.8144C84.4965 21.2758 82.2933 22.5838 80.4765 23.2378C78.5825 23.9303 76.7272 23.8533 76.8045 24.4689Z" fill="#FBB809"/>
<path d="M76.2246 22.1603C76.6111 22.7374 77.4615 23.0836 78.9303 22.0065C80.4378 20.8908 79.9739 22.2373 81.9066 21.0447C83.8779 19.8906 85.0762 17.967 84.1099 18.3517C83.1435 18.7365 81.636 18.2748 80.747 19.1596C79.858 20.0445 79.5874 19.275 79.3555 18.5056C79.1236 17.7362 78.4665 18.1594 78.3118 17.4284C78.1572 16.6975 79.3555 14.2739 79.5874 12.6196C79.8193 10.9654 80.2445 9.00337 79.2395 10.8115C78.2345 12.6196 77.6934 15.6973 77.3069 17.3515C76.9203 19.0057 75.7221 21.4294 76.2246 22.1603Z" fill="#FBB809"/>
<path d="M74.4466 5.38725C76.1473 5.15643 78.0027 7.1569 77.5389 9.69597C76.8431 13.62 75.4902 15.6974 75.3743 16.2745C75.1037 17.4286 75.3356 19.5829 74.8331 20.814C74.4852 21.6219 74.0214 22.0451 73.8281 21.8912L74.4466 5.38725Z" fill="#FBB809"/>
<path d="M73.9827 34.8172C74.1759 35.0096 74.3305 35.2789 74.4079 35.5866C74.4852 35.8944 74.4852 36.1637 74.4852 36.433C74.4852 36.9716 74.5238 37.4717 74.7171 37.9333C74.7557 38.0488 74.7944 38.1642 74.833 38.2796C74.8717 38.395 74.949 38.5489 74.9877 38.6643C75.065 38.9336 75.1809 39.2029 75.2196 39.4722C75.3355 40.0108 75.4128 40.5878 75.2969 41.1649C75.1423 40.6263 74.949 40.1262 74.7557 39.6261C74.6398 39.3952 74.5625 39.1259 74.4465 38.8951L74.2919 38.5104C74.2532 38.3565 74.1759 38.2411 74.1373 38.0872C74.06 37.8179 73.9827 37.5102 73.9827 37.2024C73.9827 36.8946 73.9827 36.6253 74.0213 36.3561C74.06 36.0868 74.0986 35.8175 74.1373 35.5866C74.0986 35.3558 74.06 35.0865 73.9827 34.8172Z" fill="#FFCE61"/>
<path d="M73.7894 31.278C73.9827 31.4704 74.1373 31.6243 74.2919 31.7782C74.4465 31.932 74.6398 32.0859 74.7944 32.3167C75.1036 32.7784 75.181 33.317 75.2583 33.7402C75.3742 34.1633 75.4902 34.625 75.6061 35.0482C75.7608 35.4713 75.9154 35.8945 76.1086 36.3562C75.7221 36.0484 75.4129 35.6637 75.1423 35.2405C74.9104 34.8173 74.7171 34.3557 74.6011 33.8556C74.4852 33.3555 74.4852 32.9323 74.3306 32.5476C74.2533 32.3552 74.0987 32.1629 73.9827 31.932C73.9054 31.7782 73.8281 31.5473 73.7894 31.278Z" fill="#FFCE61"/>
<path d="M74.6011 46.3967C74.1759 46.0505 73.9054 45.5119 73.7507 44.9349C73.6734 44.6656 73.6734 44.3578 73.6734 44.05C73.6734 43.7807 73.6734 43.5884 73.6348 43.3576C73.5188 42.8959 73.2869 42.3958 73.2096 41.8187C73.1709 41.511 73.1709 41.2032 73.2482 40.9339C73.3256 40.6646 73.4802 40.3953 73.6734 40.203C73.6348 40.4723 73.5575 40.7416 73.5575 40.9724C73.5575 41.2417 73.5961 41.4725 73.6734 41.7033C73.828 42.165 74.1373 42.6266 74.2532 43.2421C74.3305 43.5499 74.3305 43.8577 74.2919 44.127C74.2532 44.3578 74.2532 44.6271 74.2532 44.8579C74.2919 45.3965 74.4078 45.8966 74.6011 46.3967Z" fill="#FFCE61"/>
<path d="M75.7222 37.5096C76.1474 37.8943 76.5725 38.279 76.8431 38.7791C77.1523 39.3177 77.2297 39.8948 77.2683 40.4334C77.307 41.0104 77.3843 41.5106 77.5002 42.0491C77.6162 42.5877 77.8095 43.1263 78.0027 43.6264C77.6935 43.1648 77.4229 42.6262 77.2683 42.1261C77.191 41.8568 77.1137 41.5875 77.0364 41.3182C76.9977 41.0489 76.9591 40.7411 76.9204 40.4718C76.8818 39.9333 76.8431 39.3562 76.6112 38.8945C76.4179 38.3944 76.0314 37.9713 75.7222 37.5096Z" fill="#FFCE61"/>
<path d="M77.5775 35.4334C78.0414 35.7027 78.5052 35.9336 78.9304 36.2798C79.3942 36.6645 79.6648 37.1261 79.9354 37.5493C80.4765 38.3957 81.0563 39.242 81.5588 40.2038C81.095 39.896 80.7084 39.5498 80.3606 39.1651C80.0127 38.7804 79.6648 38.3572 79.3942 37.8956L79.0077 37.2416C78.8917 37.0107 78.7758 36.8184 78.6212 36.6645C78.2733 36.2413 77.8867 35.8566 77.5775 35.4334Z" fill="#FFCE61"/>
<path d="M78.2346 40.242C78.5825 40.5497 78.9304 40.896 79.2396 41.2037L80.2059 42.127C80.3606 42.2809 80.5152 42.4348 80.7084 42.6271C80.8631 42.8195 81.0177 42.9734 81.1336 43.1657C81.4042 43.5504 81.6748 43.9351 81.8294 44.3968C81.4429 44.1275 81.095 43.8197 80.7471 43.512C80.3992 43.2042 80.09 42.8964 79.7421 42.5887C79.3942 42.2809 79.085 41.8962 78.8144 41.5115C78.5825 41.1268 78.3892 40.7036 78.2346 40.242Z" fill="#FFCE61"/>
<path d="M76.1086 42.8192C76.3019 43.0885 76.4178 43.3578 76.5725 43.5886C76.7271 43.8194 76.843 44.0887 76.959 44.358C77.075 44.6273 77.1909 44.8966 77.2682 45.2044C77.3455 45.5121 77.3455 45.8584 77.1909 46.1661C77.075 45.8584 76.959 45.6275 76.8044 45.3967C76.6498 45.1659 76.4952 44.9351 76.3792 44.6658C76.1086 44.0887 75.9154 43.4732 76.1086 42.8192Z" fill="#FFCE61"/>
<path d="M81.2495 41.1651C81.5201 41.5113 81.752 41.9345 81.9066 42.3577C82.0999 42.7809 82.2545 43.2041 82.3318 43.6272C82.0999 43.2425 81.9066 42.8193 81.7134 42.4346C81.5587 42.0115 81.4041 41.6268 81.2495 41.1651Z" fill="#FFCE61"/>
<path d="M80.5538 31.0854C80.8244 31.1624 81.095 31.3163 81.3269 31.5086C81.5588 31.701 81.7134 31.9703 81.9067 32.2011C82.2159 32.6627 82.5638 33.0474 82.989 33.3937C83.0663 33.4706 83.1823 33.5476 83.2982 33.6245C83.4142 33.7014 83.5302 33.7784 83.6461 33.8938C83.878 34.0861 84.11 34.2785 84.3032 34.4709C84.7284 34.894 85.1149 35.3172 85.3469 35.8943C84.9217 35.5096 84.4578 35.2018 83.994 34.894C83.7621 34.7401 83.5301 34.5863 83.2982 34.4324L82.9503 34.2016C82.8344 34.1246 82.7184 34.0477 82.6025 33.9323C82.3705 33.7399 82.1386 33.5091 81.984 33.2783C81.7907 33.0474 81.6361 32.7781 81.5202 32.5088C81.4042 32.2396 81.2882 32.0087 81.1336 31.7779C80.9404 31.4701 80.7858 31.2778 80.5538 31.0854Z" fill="#FFCE61"/>
<path d="M78.3119 28.1618C78.5438 28.2388 78.8144 28.2773 79.0463 28.3542C79.2782 28.3927 79.5488 28.4311 79.7807 28.5466C80.3219 28.7774 80.6697 29.2006 80.979 29.5083C81.3269 29.8546 81.6747 30.1623 82.0226 30.4701C82.4092 30.7779 82.7957 31.0471 83.1822 31.3549C82.6797 31.3164 82.1772 31.1241 81.7134 30.8933C81.2496 30.6624 80.8244 30.3547 80.4765 29.97C80.09 29.5853 79.858 29.239 79.4715 28.9697C79.3169 28.8543 79.085 28.7389 78.853 28.6235C78.6984 28.5081 78.5052 28.3542 78.3119 28.1618Z" fill="#FFCE61"/>
<path d="M83.4142 35.8552C83.5301 36.1245 83.6461 36.3553 83.8007 36.5862C83.9553 36.7785 84.1486 36.9709 84.3419 37.1247C84.7671 37.4325 85.2696 37.7018 85.6947 38.125C85.9267 38.3558 86.1199 38.6251 86.2359 38.8944C86.3518 39.1252 86.5065 39.356 86.6611 39.5484C86.9703 39.9716 87.3568 40.3563 87.8207 40.7025C87.2409 40.6256 86.6997 40.3178 86.2745 39.8946C86.0426 39.7023 85.888 39.433 85.6947 39.2022C85.5401 38.9713 85.4242 38.779 85.2309 38.6251C84.883 38.2789 84.3805 37.9711 83.9553 37.5094C83.7621 37.2786 83.5688 37.0093 83.4915 36.74C83.4142 36.4323 83.4142 36.1245 83.4142 35.8552Z" fill="#FFCE61"/>
<path d="M83.5688 32.5086C84.1486 32.624 84.7284 32.7394 85.2696 33.0472C85.8107 33.3549 86.2359 33.8166 86.5838 34.2782C86.9317 34.7399 87.3182 35.1631 87.7434 35.5478C88.1686 35.9325 88.5938 36.3172 89.0963 36.6634C88.5551 36.4326 88.0526 36.0864 87.5888 35.7401C87.3569 35.5478 87.125 35.3554 86.9317 35.1631C86.7384 34.9707 86.5452 34.7014 86.3519 34.5091C86.004 34.0474 85.6175 33.6242 85.1536 33.3165C84.6511 32.9702 84.0713 32.7394 83.5688 32.5086Z" fill="#FFCE61"/>
<path d="M83.9166 29.816C84.4964 29.816 84.9989 29.7775 85.5787 29.8545C86.1972 29.9314 86.661 30.2007 87.1249 30.4315C88.0912 30.8932 89.0189 31.3548 89.9852 31.8934C89.4441 31.8549 88.9029 31.7395 88.3618 31.5857C87.8206 31.4318 87.3181 31.2394 86.8156 31.0086L86.1199 30.6239C85.888 30.5085 85.656 30.3931 85.4241 30.3161C84.9603 30.2007 84.3805 30.0468 83.9166 29.816Z" fill="#FFCE61"/>
<path d="M87.2408 33.6238C87.7433 33.7007 88.1685 33.8161 88.6324 33.9315L89.9852 34.2393C90.2172 34.3162 90.4491 34.3547 90.681 34.4316C90.9129 34.5086 91.1448 34.5855 91.3768 34.6625C91.8406 34.8548 92.2658 35.0856 92.6523 35.3934C92.1498 35.3549 91.686 35.2395 91.2221 35.1626C90.7583 35.0856 90.2945 34.9702 89.8306 34.8548C89.3668 34.7394 88.9029 34.5855 88.4391 34.3932C88.0526 34.2008 87.6274 33.9315 87.2408 33.6238Z" fill="#FFCE61"/>
<path d="M86.9703 36.8943C87.2796 37.0482 87.5501 37.1636 87.7821 37.3175C88.0526 37.4714 88.2846 37.5868 88.5551 37.7791C88.8257 37.933 89.0576 38.1254 89.2895 38.3562C89.5215 38.587 89.7147 38.8948 89.7534 39.241C89.4828 39.0487 89.2509 38.8948 88.9803 38.7794C88.7097 38.664 88.4392 38.5101 88.2073 38.3562C87.7048 38.01 87.1636 37.5483 86.9703 36.8943Z" fill="#FFCE61"/>
<path d="M90.2946 32.9314C90.7584 33.0853 91.1449 33.3546 91.5315 33.5854C91.918 33.8547 92.3045 34.124 92.6138 34.4702C92.1886 34.2779 91.802 34.0086 91.4155 33.7393C91.029 33.5084 90.6424 33.2391 90.2946 32.9314Z" fill="#FFCE61"/>
<path d="M80.5538 26.3149C80.7858 26.1225 81.095 26.0456 81.4042 26.0071C81.7134 25.9686 82.0227 26.0071 82.2932 26.0456C82.873 26.084 83.3755 26.1225 83.9167 26.0071C84.1873 25.9686 84.4578 25.8917 84.7284 25.8532C85.0376 25.8147 85.3082 25.7378 85.6174 25.7378C86.1972 25.6993 86.8157 25.6993 87.3955 25.8917C86.8157 25.9686 86.2745 26.084 85.6947 26.2379C85.4242 26.3149 85.1536 26.3918 84.883 26.4688C84.7284 26.5072 84.6124 26.5457 84.4578 26.5842C84.3032 26.6226 84.1486 26.6611 83.994 26.6996C83.3755 26.7765 82.7571 26.738 82.1773 26.5842C81.6361 26.3533 81.1336 26.1995 80.5538 26.3149Z" fill="#FFCE61"/>
<path d="M76.8044 26.0466C76.9977 25.8927 77.2296 25.7773 77.4229 25.6234C77.6162 25.4695 77.8094 25.3156 78.08 25.2002C78.6212 24.9694 79.1623 24.9694 79.5875 24.9694C80.0513 24.9309 80.5152 24.8925 80.979 24.8155C81.4429 24.7386 81.9067 24.6232 82.4092 24.5077C82.0227 24.854 81.5975 25.1233 81.095 25.2772C80.6311 25.4695 80.09 25.5465 79.5875 25.5849C79.0463 25.6234 78.6212 25.5849 78.196 25.6619C78.0027 25.7003 77.7708 25.8157 77.5389 25.8927C77.3069 25.9696 77.0364 26.0466 76.8044 26.0466Z" fill="#FFCE61"/>
<path d="M86.236 27.2386C86.8158 27.431 87.3183 27.4694 87.8594 27.3925C88.3619 27.2771 88.9031 27.0847 89.5602 27.0463C89.8694 27.0078 90.2173 27.0463 90.4878 27.1232C90.7584 27.2001 90.9903 27.2386 91.2609 27.2386C91.8021 27.2771 92.3432 27.2386 92.923 27.1232C92.4592 27.5079 91.8794 27.7003 91.2609 27.7387C90.9517 27.7772 90.6425 27.7387 90.3332 27.7003C90.0627 27.6618 89.8307 27.6618 89.5602 27.6618C89.0577 27.7003 88.4779 27.8541 87.8594 27.8926C87.5502 27.8926 87.241 27.8541 86.9317 27.7387C86.6612 27.6233 86.4292 27.4694 86.236 27.2386Z" fill="#FFCE61"/>
<path d="M83.5688 25.0069C84.0327 24.6607 84.4965 24.276 85.0763 24.0837C85.6561 23.8913 86.2746 23.8913 86.8544 23.9298C87.4342 23.9682 88.014 23.9682 88.5938 23.8913C89.1736 23.8528 89.7534 23.7374 90.3332 23.622C89.7921 23.8528 89.2123 24.0452 88.6324 24.1221C88.0526 24.2375 87.4342 24.2375 86.8544 24.2375C86.2746 24.1991 85.6948 24.1991 85.1536 24.3145C84.6125 24.4684 84.11 24.7377 83.5688 25.0069Z" fill="#FFCE61"/>
<path d="M81.5588 23.0065C81.7135 22.7757 81.9067 22.5834 82.0613 22.391C82.2546 22.1987 82.4092 22.0063 82.6411 21.8139C83.105 21.4292 83.6075 21.2369 84.0713 21.0445C84.999 20.6214 85.9653 20.2366 87.009 19.8904C86.6224 20.2751 86.1973 20.6214 85.7721 20.8907C85.3082 21.1984 84.8444 21.4292 84.3419 21.6216L83.6075 21.8909C83.3756 21.9678 83.1436 22.0832 82.9504 22.1987C82.5252 22.4679 82.0613 22.7757 81.5588 23.0065Z" fill="#FFCE61"/>
<path d="M86.7384 23.0069C87.1249 22.6992 87.5115 22.4299 87.8594 22.1606L88.9803 21.3527C89.1736 21.2373 89.3668 21.0834 89.5601 20.968C89.7534 20.8526 89.9853 20.7371 90.1786 20.6217C90.6037 20.4294 91.0289 20.237 91.5314 20.1601C91.1836 20.5063 90.8357 20.7756 90.4491 21.0449C90.1013 21.3142 89.7534 21.622 89.3668 21.8913C88.9803 22.1606 88.5938 22.4299 88.1299 22.6222C87.6661 22.7761 87.2022 22.93 86.7384 23.0069Z" fill="#FFCE61"/>
<path d="M89.2509 25.3149C89.5601 25.161 89.8307 25.0841 90.1399 24.9687C90.4105 24.8532 90.681 24.7763 90.9903 24.6609C91.2995 24.5839 91.6087 24.507 91.9179 24.4685C92.2272 24.4301 92.6137 24.507 92.8843 24.6994C92.5364 24.7763 92.3045 24.8532 92.0339 24.9687C91.7633 25.0841 91.4928 25.1995 91.1835 25.2764C90.5651 25.4688 89.8693 25.5842 89.2509 25.3149Z" fill="#FFCE61"/>
<path d="M88.014 20.3139C88.4392 20.083 88.9031 19.9291 89.3283 19.8137C89.7921 19.6983 90.2559 19.6214 90.7198 19.5829C90.2946 19.7753 89.8308 19.8907 89.3669 20.0061C88.9417 20.16 88.4779 20.2369 88.014 20.3139Z" fill="#FFCE61"/>
<path d="M79.2009 20.6605C79.2782 20.3912 79.4328 20.1219 79.6261 19.8911C79.8194 19.6603 80.09 19.5064 80.3219 19.3525C80.7857 19.0447 81.1723 18.737 81.5201 18.3523C81.6747 18.1599 81.8294 17.9291 82.0226 17.6983C82.2159 17.4674 82.3705 17.2751 82.6024 17.0443C83.0276 16.6596 83.4528 16.2749 83.994 16.044C83.6074 16.4672 83.2982 16.8904 82.989 17.352C82.8344 17.5829 82.6797 17.8137 82.5251 18.0445C82.4478 18.1599 82.3705 18.2753 82.2932 18.3907C82.2159 18.5062 82.1386 18.6216 82.0226 18.737C81.6361 19.1986 81.0949 19.5449 80.5924 19.7757C80.0126 20.0065 79.5488 20.1989 79.2009 20.6605Z" fill="#FFCE61"/>
<path d="M76.2246 22.8147C76.2633 22.5838 76.3406 22.353 76.3792 22.1222C76.4179 21.8914 76.4565 21.6605 76.5725 21.3912C76.8044 20.8911 77.2296 20.5449 77.5388 20.2371C77.8481 19.9294 78.1573 19.5831 78.4665 19.2369C78.7757 18.8906 79.0463 18.5059 79.3169 18.1212C79.2782 18.6213 79.1236 19.083 78.8917 19.5062C78.6598 19.9294 78.3505 20.3525 78.0027 20.6988C77.6548 21.045 77.2682 21.3143 77.0363 21.6221C76.9204 21.7759 76.8431 22.0068 76.6884 22.1991C76.5338 22.4299 76.3792 22.6223 76.2246 22.8147Z" fill="#FFCE61"/>
<path d="M84.0713 17.8133C84.6124 17.6209 85.0376 17.3131 85.3855 16.9284C85.6947 16.5437 85.9653 16.0436 86.3905 15.582C86.6224 15.3511 86.893 15.1973 87.1636 15.0434C87.3955 14.928 87.6274 14.8126 87.8207 14.6587C88.2459 14.3509 88.6324 14.0047 88.9803 13.543C88.903 14.1201 88.5551 14.6202 88.1686 15.0434C87.9753 15.2357 87.7047 15.4281 87.4728 15.582C87.2409 15.6974 87.0476 15.8513 86.893 16.0436C86.5451 16.3899 86.2359 16.89 85.772 17.2747C85.5401 17.467 85.2696 17.6209 84.999 17.6979C84.6511 17.8517 84.3805 17.8517 84.0713 17.8133Z" fill="#FFCE61"/>
<path d="M80.5151 17.775C80.5924 17.2364 80.7084 16.6594 81.0176 16.1208C81.3269 15.5822 81.7907 15.2359 82.2159 14.8897C82.6797 14.5435 83.1049 14.1972 83.4915 13.8125C83.878 13.4278 84.2645 13.0046 84.5738 12.543C84.3418 13.0816 84.0326 13.5432 83.6461 14.0049C83.4528 14.2357 83.2595 14.4281 83.0663 14.6204C82.873 14.8128 82.6024 15.0051 82.4092 15.159C81.9453 15.5052 81.5201 15.8515 81.2109 16.2747C80.9403 16.7363 80.7471 17.2749 80.5151 17.775Z" fill="#FFCE61"/>
<path d="M77.6161 17.5057C77.5775 17.2364 77.5775 17.0056 77.5775 16.7363C77.5775 16.467 77.5388 16.2362 77.5775 15.9669C77.6548 15.3899 77.9254 14.9282 78.1186 14.4666C78.5438 13.5817 78.969 12.6584 79.4715 11.7736C79.4715 12.3122 79.3555 12.8123 79.2396 13.3124C79.1236 13.8126 78.9304 14.3127 78.6984 14.7743L78.3506 15.4668C78.2346 15.6976 78.1186 15.89 78.0413 16.1208C77.964 16.5055 77.8481 17.0441 77.6161 17.5057Z" fill="#FFCE61"/>
<path d="M81.4816 14.2739C81.5589 13.8123 81.6748 13.3891 81.7521 12.9659L82.0227 11.6579C82.0614 11.4271 82.1 11.2347 82.1773 11.0039C82.2546 10.7731 82.2933 10.5807 82.4093 10.3499C82.6025 9.92672 82.7958 9.50355 83.0664 9.15731C83.0277 9.61896 82.9504 10.0806 82.8731 10.5038C82.7958 10.927 82.7185 11.3501 82.6412 11.8118C82.5639 12.235 82.4093 12.6966 82.216 13.1198C82.0227 13.543 81.7908 13.9277 81.4816 14.2739Z" fill="#FFCE61"/>
<path d="M84.9989 14.4666C85.1535 14.1588 85.2695 13.928 85.4241 13.6587C85.5787 13.3894 85.6947 13.1586 85.8493 12.9277C86.0039 12.6969 86.1972 12.4276 86.4291 12.1968C86.661 11.966 86.9702 11.7736 87.2795 11.7736C87.0862 12.0429 86.9702 12.2737 86.8156 12.5046C86.6997 12.7354 86.545 13.0047 86.3904 13.274C86.0812 13.7741 85.6174 14.2742 84.9989 14.4666Z" fill="#FFCE61"/>
<path d="M80.5538 11.4658C80.7084 11.0426 80.9404 10.6579 81.2109 10.2732C81.4815 9.88846 81.7521 9.54222 82.1 9.23446C81.9067 9.65764 81.6748 10.0423 81.4042 10.3886C81.1336 10.7348 80.8631 11.1195 80.5538 11.4658Z" fill="#FFCE61"/>
<path d="M74.6785 19.9297C74.5626 19.6604 74.5239 19.3911 74.5239 19.0834C74.5626 18.7756 74.6399 18.5063 74.7558 18.2755C74.9491 17.7754 75.0651 17.3137 75.0651 16.8136C75.0651 16.6982 75.0651 16.5443 75.0651 16.4289V16.0057C75.0651 15.7364 75.0651 15.4286 75.1424 15.1594C75.2197 14.6208 75.3357 14.0437 75.6449 13.5821C75.6062 14.1206 75.6062 14.6592 75.6449 15.1978C75.6449 15.4671 75.6835 15.7364 75.6835 16.0057C75.6835 16.1211 75.7222 16.275 75.7222 16.3904C75.7222 16.5443 75.7222 16.6982 75.7222 16.8136C75.7222 17.1214 75.6449 17.3907 75.5676 17.6984C75.4903 17.9677 75.3743 18.237 75.2197 18.4678C74.9491 18.9679 74.6785 19.3911 74.6785 19.9297Z" fill="#FFCE61"/>
<path d="M75.0265 14.4286C74.7559 13.9285 74.4853 13.4284 74.408 12.8513C74.3307 12.2743 74.4467 11.6972 74.6013 11.1586C74.7559 10.62 74.8719 10.1199 74.9492 9.54286C75.0265 9.00427 75.0265 8.46568 75.0265 7.88862C75.1811 8.42721 75.2198 9.00427 75.2198 9.54286C75.2198 9.81215 75.1811 10.1199 75.1424 10.3892C75.1038 10.6585 75.0265 10.9663 74.9492 11.1971C74.7946 11.7357 74.64 12.2358 74.6786 12.7744C74.6786 13.3515 74.8719 13.89 75.0265 14.4286Z" fill="#FFCE61"/>
<path d="M76.0701 9.04239C75.9928 8.73462 75.9541 8.46533 75.9155 8.15756C75.8768 7.88827 75.8382 7.61897 75.7995 7.31121C75.7608 7.04191 75.7608 6.73414 75.7995 6.42638C75.8382 6.11861 75.9541 5.77238 76.2247 5.58002C76.2247 5.88779 76.2633 6.15708 76.3406 6.42638C76.3793 6.69567 76.4566 6.96497 76.4953 7.27273C76.4953 7.8498 76.418 8.5038 76.0701 9.04239Z" fill="#FFCE61"/>
<path d="M74.5626 17.8909C74.408 17.4678 74.3693 17.0061 74.3307 16.5829C74.292 16.1213 74.292 15.6981 74.3693 15.2365C74.4853 15.6596 74.524 16.1213 74.524 16.5445C74.6013 17.0061 74.6013 17.4678 74.5626 17.8909Z" fill="#FFCE61"/>
<path d="M90.2945 7.00319C90.0239 6.77237 89.7534 6.54155 89.4828 6.27225C89.4828 6.23378 88.787 5.73366 88.7484 5.69519C88.7097 5.69519 87.782 4.96425 86.8157 4.34872C81.0177 0.57859 77.9641 1.54036 74.6012 1.42495L74.6399 0.0400009C86.9317 0.886356 89.5988 4.88731 90.3332 5.27201C92.6524 7.19555 94.2372 8.84979 95.5127 10.504C95.6287 10.8887 95.7833 11.2734 96.0152 11.7351C98.605 16.5824 100.847 26.8925 99.3394 32.6247C97.8706 38.3953 95.6287 42.3962 87.2409 48.59C85.7334 49.3209 84.883 49.9749 82.4479 50.5135C79.6262 51.1675 76.8045 51.6292 72.6299 51.3599L72.6685 49.975C73.5576 49.898 74.2147 50.1673 75.9927 50.2058C81.1723 50.3212 83.6848 48.1284 84.0713 48.1668C91.2995 44.2428 95.9766 38.6646 97.4454 30.7396C97.4841 30.3164 100.847 16.8902 90.2945 7.00319Z" fill="#F46E00"/>
<path d="M76.3792 29.2016C77.4229 30.2788 79.0463 34.9722 81.095 36.8573C78.3506 34.549 78.4665 33.4334 76.8044 30.9713C76.4565 30.4327 74.2533 27.2011 73.5962 27.1242L73.7508 22.8924C74.0214 22.9309 75.4129 21.6229 75.4516 20.4688C75.4902 19.2377 75.9541 19.1608 77.1523 14.5058C75.7608 22.7385 74.8331 22.7385 75.4516 23.3541C76.6885 24.6621 77.8867 22.0845 79.7034 22.3923C80.5925 22.5462 81.5975 21.8153 81.5975 21.8153C81.5975 21.8153 80.5925 22.777 80.1673 22.7385C79.7421 22.7001 79.085 22.5462 78.3892 23.0078C77.6548 23.4695 76.3792 24.085 76.1473 24.5082C75.9154 24.9314 75.6062 25.9316 76.7658 26.4702C77.9254 26.9703 79.085 26.3163 80.3992 26.8164C81.5975 27.2781 83.4915 28.1629 83.878 28.3553C80.09 26.8164 80.8244 27.0857 77.8481 26.9703C76.6498 26.9319 75.7221 26.124 75.1423 26.3933C74.5625 26.6241 75.6835 28.4707 76.3792 29.2016Z" fill="#FFF6D3"/>
<path d="M72.3207 25.6992C71.9729 25.8531 71.5863 26.007 71.1998 26.1608C69.6536 26.7379 67.6437 27.315 65.1312 27.8536C58.0576 29.3539 48.6262 30.2003 38.6149 30.2003C28.565 30.2003 19.1722 29.3539 12.0986 27.8536C4.90908 26.3147 2.04872 24.4681 1.70084 23.1986C1.66219 23.1217 1.66219 23.0447 1.66219 22.9678V22.9293C1.66219 21.6213 4.21331 19.1207 11.9054 17.5049C18.9789 16.0046 28.4104 15.1582 38.4216 15.1582C42.0551 15.1582 45.6112 15.2736 49.0127 15.466L49.4379 14.4273C45.8818 14.1965 42.2097 14.0811 38.6149 14.0811C23.6947 14.0811 8.00136 16.0815 2.31929 19.7747C1.93276 20.044 1.58488 20.2748 1.3143 20.5441C0.502581 21.2751 0.0773926 22.083 0.0773926 22.9293C0.0773926 23.0063 0.0773926 23.1217 0.0773926 23.1986C0.463927 28.8153 14.3405 33.0471 38.5763 33.0471C53.7671 33.0471 64.822 31.3929 71.1225 28.8153C71.6636 28.5845 72.1661 28.3537 72.63 28.1229L72.3207 25.6992Z" fill="#D8D8D8"/>
</svg>
