<svg width="75" height="131" viewBox="0 0 75 131" fill="none" xmlns="http://www.w3.org/2000/svg">
<g filter="url(#filter0_d_1_3412)">
<path opacity="0.5" d="M33.6454 116.223C32.6211 116.277 31.5429 116.304 30.4646 116.304C21.1918 116.304 13.698 114.093 13.698 111.344C13.698 108.594 21.2187 106.384 30.4646 106.384C31.5429 106.384 32.6211 106.411 33.6454 106.465C52.2451 107.516 51.3286 115.225 33.6454 116.223Z" fill="#EDEDED"/>
<path opacity="0.5" d="M33.6454 116.223C25.8821 116.223 20.0596 113.77 20.0596 111.344C20.0596 108.918 25.909 106.465 33.6454 106.465C52.245 107.516 51.3285 115.226 33.6454 116.223Z" fill="#D8D8D8"/>
<path d="M30.4647 116.304C22.8092 116.304 16.3667 114.794 14.345 112.719C15.8275 115.037 22.7552 117.328 30.4647 117.328C37.9854 117.328 44.6435 115.199 46.3417 112.961C44.0505 114.902 37.8236 116.304 30.4647 116.304Z" fill="#BCBCBC"/>
<path opacity="0.5" d="M38.8478 110.643C38.8478 111.533 35.3166 112.557 30.9497 112.557C30.3567 112.557 29.7637 112.53 29.1976 112.503C25.6663 112.287 23.0247 111.398 23.0247 110.643C23.0247 110.104 24.2916 109.646 26.2324 109.349C29.0089 108.244 28.7663 106.734 28.8741 103.608C28.955 100.831 28.9011 99.8876 28.8741 93.9303C28.8741 93.2564 28.8741 92.7982 28.8741 92.6095C29.5211 92.6634 30.195 92.6904 30.8689 92.6904C31.5967 92.6904 32.2975 92.6634 32.9984 92.6095C32.9984 92.7982 32.9984 93.2564 32.9984 93.9303C32.9714 99.8607 32.9175 100.831 32.9984 103.608C33.0792 106.734 32.8636 108.244 35.6401 109.349C37.5809 109.646 38.8478 110.104 38.8478 110.643Z" fill="#EDEDED"/>
<path d="M38.8479 110.643C38.8479 111.533 35.3166 112.557 30.9498 112.557C30.3567 112.557 29.7637 112.53 29.1976 112.503C33.0523 112.476 35.5053 111.425 36.1253 110.778C36.7992 110.104 34.2923 109.834 33.1063 108.514C31.9202 107.193 32.1089 106.034 32.1089 103.311V92.6634C32.4054 92.6634 32.7019 92.6365 32.9984 92.6095C32.9984 92.8251 32.9984 93.2834 32.9984 93.9303C32.9715 96.3564 32.9445 101.208 33.0254 103.608C33.1063 106.734 32.8906 108.244 35.6671 109.349C37.5809 109.646 38.8479 110.104 38.8479 110.643Z" fill="#BCBCBC"/>
<path d="M31.8932 108.945C30.9497 108.028 30.7341 105.656 30.7341 105.656C30.7341 105.656 30.6263 108.028 29.6289 108.891C28.3889 109.996 26.5559 110.508 26.5559 110.508C26.5559 110.508 27.9307 110.913 30.761 110.913C31.8123 110.913 34.9662 110.508 34.9662 110.508C34.9662 110.508 32.9175 109.969 31.8932 108.945Z" fill="white"/>
<path d="M30.7612 103.957C30.4647 100.992 30.4377 95.7359 30.7612 92.7168C31.0577 95.682 31.0846 100.938 30.7612 103.957Z" fill="white"/>
<path opacity="0.5" d="M32.9984 92.6367C32.9984 92.8254 32.9984 93.2837 32.9984 93.9576H28.8741C28.8741 93.2837 28.8741 92.8254 28.8741 92.6367C29.5211 92.6906 30.195 92.7176 30.8689 92.7176C31.3002 92.7176 31.7045 92.7176 32.1089 92.6906C32.4054 92.6637 32.7019 92.6637 32.9984 92.6367Z" fill="#BCBCBC"/>
<path opacity="0.2" d="M49.091 84.3874C47.1771 87.3256 41.8938 92.6899 30.8688 92.6899C21.0568 92.6899 15.1265 87.0561 13.2126 84.1179C7.74054 75.7346 10.1666 68.5373 14.2908 59.8305C18.4151 51.1237 19.8977 44.6004 19.5742 39.8022C19.4125 37.1336 17.7143 35.3006 16.2586 34.2223C15.0995 33.3597 14.0752 32.9554 14.0752 32.9554L14.3717 31.6615C14.5065 31.5537 14.6682 31.4728 14.83 31.365C17.3099 30.0711 24.2376 29.3972 30.8688 29.3972C37.1495 29.3972 43.7537 30.0172 46.5033 31.1763C46.9076 31.338 47.2311 31.5267 47.4467 31.7154L47.6354 32.9285C47.6354 32.9285 46.5302 33.3597 45.2902 34.3032C43.8616 35.4084 42.2981 37.1875 42.1364 39.7753C41.8129 44.6004 43.2955 51.1237 47.4198 59.8036C51.571 68.5643 54.5631 76.0041 49.091 84.3874Z" fill="#D8D8D8"/>
<path d="M25.9089 71.4761L28.5776 72.1769L43.1338 17.5372C43.6729 15.4885 45.2094 13.8172 47.2311 13.1164L60.2509 8.58777L59.3344 6L46.3146 10.5286C43.4573 11.526 41.2738 13.8981 40.4921 16.8363L25.9089 71.4761Z" fill="#D32A32"/>
<path d="M25.9089 71.4761L27.3376 71.8535L41.9208 16.4589C42.4599 14.4103 43.9964 12.739 46.0181 12.0381L59.7657 7.18606L59.3344 6L46.3146 10.5286C43.4573 11.526 41.2738 13.8981 40.4921 16.8363L25.9089 71.4761Z" fill="#F95F75"/>
<path d="M22.0812 32.7675C22.0542 32.7675 21.596 33.0909 21.4073 33.2257C21.1917 33.3874 20.8951 33.4953 20.5986 33.6031H20.5717C20.2212 33.7109 19.8708 33.8187 19.736 33.8726C15.8274 35.49 13.9135 32.5788 13.9944 29.8292C14.0483 27.6997 15.477 27.0797 16.5013 26.891C16.7978 26.8371 17.0404 26.8371 17.2291 26.8371C17.3909 26.8371 17.4987 26.8371 17.5256 26.8371C17.5256 26.8371 17.6065 26.6754 17.8491 26.4867C18.0917 26.2711 18.523 25.9745 19.17 25.8128C19.2508 25.7859 19.3047 25.7859 19.3856 25.7589C19.4395 25.7319 19.5204 25.7319 19.5743 25.7319C20.0865 25.6241 20.5986 25.6241 21.0299 25.705C22.3238 25.8937 23.2673 26.7024 23.6177 27.8615C24.1029 29.5058 24.3994 31.4197 22.0812 32.7675Z" fill="#D32A32"/>
<path d="M22.0812 32.7675C22.0542 32.7675 21.596 33.091 21.4073 33.2258C21.1916 33.3875 20.8951 33.4953 20.5986 33.6031H20.5717C21.4882 32.9292 22.2429 31.5814 22.2699 30.5571C22.3508 28.6702 21.7038 27.565 20.5717 26.8372C19.8438 26.4059 18.9273 26.2981 17.8221 26.4598C18.0647 26.2442 18.496 25.9476 19.143 25.7859C19.2239 25.7589 19.2778 25.7589 19.3586 25.732C19.4125 25.705 19.4934 25.705 19.5473 25.705C20.0325 25.6242 20.5447 25.6242 21.003 25.6781C22.2968 25.8668 23.2403 26.6754 23.5907 27.8346C24.1029 29.5058 24.3994 31.4197 22.0812 32.7675Z" fill="#BE2225"/>
<path d="M19.0352 26.999C17.5256 27.6459 17.0674 26.8911 16.4744 26.8911C16.7709 26.8372 17.0135 26.8372 17.2022 26.8372C17.283 26.8372 17.3909 26.8372 17.4987 26.8372C18.0378 26.8372 17.7143 26.8372 18.2535 26.7833C18.7656 26.7294 19.4934 26.0555 19.8978 25.8938C20.3021 25.7051 20.0595 26.5677 19.0352 26.999Z" fill="#870F16"/>
<path d="M15.2882 28.7513C14.6952 29.2904 14.0213 30.746 15.3152 32.0669C16.6091 33.3877 18.523 33.5225 19.9247 32.4173C21.3264 31.3121 21.4342 29.8295 20.5986 28.5626C19.7629 27.2957 18.9273 28.3739 17.5256 28.2122C16.0969 28.0504 15.5578 28.5356 15.2882 28.7513Z" fill="#E04655"/>
<path d="M15.6387 29.5329C15.2074 30.2608 15.6118 31.7164 16.9326 32.2016C18.2535 32.6868 19.4395 31.9051 19.8978 30.6651C20.356 29.4251 18.6308 28.913 17.6065 28.7782C16.5822 28.6164 15.8813 29.0747 15.6387 29.5329Z" fill="#F95F75"/>
<path d="M16.717 29.2904C16.151 29.6947 15.9623 29.9912 16.5014 30.5573C17.0405 31.0964 17.4718 30.5573 17.5527 29.9912C17.6066 29.3982 16.9327 29.1286 16.717 29.2904Z" fill="white"/>
<path d="M15.1265 28.4542C14.803 28.6968 14.6683 28.8855 14.9917 29.2089C15.3152 29.5324 15.5848 29.2089 15.6117 28.8585C15.6656 28.5081 15.2613 28.3463 15.1265 28.4542Z" fill="white"/>
<path d="M18.7657 27.8348C18.6848 27.7539 18.6578 27.727 18.577 27.8079C18.4961 27.8887 18.6039 27.9426 18.6848 27.9696C18.7387 27.9696 18.7926 27.8618 18.7657 27.8348Z" fill="white"/>
<path d="M21.623 32.1205C21.5421 32.0396 21.5151 32.0126 21.4343 32.0935C21.3534 32.1744 21.4612 32.2283 21.5421 32.2552C21.623 32.2552 21.6499 32.1474 21.623 32.1205Z" fill="white"/>
<path d="M22.0273 27.161C21.8926 26.9993 21.8117 26.9723 21.6769 27.1341C21.5421 27.2958 21.7039 27.4036 21.8656 27.4306C22.0273 27.4036 22.0813 27.2149 22.0273 27.161Z" fill="white"/>
<path d="M17.7682 23.9264C17.7413 23.9264 17.2021 24.1151 16.9865 24.169C16.7439 24.2499 16.4204 24.3038 16.1239 24.3038C16.0969 24.3038 16.0969 24.3038 16.0969 24.3038C15.7196 24.3308 15.3691 24.3038 15.2074 24.3308C11.0023 24.8429 9.97793 21.5004 10.7866 18.8857C11.4066 16.837 12.97 16.6214 13.9944 16.7292C14.2909 16.7561 14.5335 16.81 14.7222 16.864C14.8839 16.9179 14.9648 16.9448 14.9917 16.9448C14.9917 16.9448 15.1265 16.81 15.3961 16.7022C15.6926 16.5674 16.1778 16.4057 16.8517 16.4327C16.9326 16.4327 16.9865 16.4327 17.0674 16.4327C17.1482 16.4327 17.2021 16.4327 17.283 16.4596C17.8221 16.5135 18.2804 16.6483 18.7117 16.81C19.8977 17.3492 20.5986 18.4004 20.6255 19.5865C20.6255 21.3386 20.3829 23.2795 17.7682 23.9264Z" fill="#D32A32"/>
<path d="M17.7683 23.9265C17.7413 23.9265 17.2022 24.1152 16.9865 24.1692C16.7439 24.25 16.4205 24.3039 16.124 24.3039C16.097 24.3039 16.097 24.3039 16.097 24.3039C17.1752 23.9265 18.2535 22.7944 18.5769 21.8509C19.17 20.0449 18.8465 18.8049 17.957 17.8075C17.3909 17.1875 16.5013 16.8371 15.4231 16.7023C15.7196 16.5676 16.2048 16.4058 16.8787 16.4328C16.9596 16.4328 17.0135 16.4328 17.0944 16.4328C17.1752 16.4328 17.2291 16.4328 17.31 16.4597C17.7952 16.5136 18.2804 16.6484 18.7387 16.8102C19.9247 17.3493 20.6256 18.4006 20.6526 19.5866C20.6256 21.3388 20.383 23.2796 17.7683 23.9265Z" fill="#BE2225"/>
<path d="M16.4204 17.5646C14.7761 17.7533 14.5605 16.9446 13.9944 16.7559C14.2909 16.7829 14.5335 16.8368 14.7222 16.8907C14.8031 16.9176 14.9109 16.9446 14.9918 16.9716C15.5039 17.1063 15.2074 17.0255 15.7196 17.1063C16.2317 17.1872 17.0943 16.7559 17.5526 16.702C17.9839 16.6481 17.5256 17.4298 16.4204 17.5646Z" fill="#870F16"/>
<path d="M12.3231 18.2388C11.5953 18.5893 10.571 19.8023 11.4605 21.4197C12.3501 23.037 14.1561 23.684 15.8004 23.0101C17.4447 22.3362 17.9569 20.9344 17.4987 19.4788C17.0404 18.0232 15.9622 18.8319 14.6144 18.2928C13.2935 17.7536 12.6466 18.0771 12.3231 18.2388Z" fill="#E04655"/>
<path d="M12.4579 19.0476C11.8379 19.6406 11.8379 21.1232 12.9701 21.9588C14.1023 22.7944 15.477 22.3631 16.2318 21.3119C17.0135 20.2606 15.477 19.2902 14.5335 18.8589C13.617 18.4545 12.8353 18.6971 12.4579 19.0476Z" fill="#F95F75"/>
<path d="M13.5631 19.128C12.9162 19.3706 12.6466 19.5863 12.9971 20.2871C13.3745 20.961 13.9405 20.5297 14.1562 20.0176C14.3988 19.4785 13.8327 19.0202 13.5631 19.128Z" fill="white"/>
<path d="M12.2693 17.8885C11.8919 18.0233 11.7032 18.1581 11.9458 18.5624C12.1614 18.9668 12.5119 18.7241 12.6466 18.4007C12.7545 18.1042 12.431 17.8346 12.2693 17.8885Z" fill="white"/>
<path d="M15.9352 18.2657C15.8813 18.1848 15.8544 18.1309 15.7465 18.1848C15.6387 18.2387 15.7196 18.3196 15.8005 18.3465C15.8813 18.4004 15.9352 18.3196 15.9352 18.2657Z" fill="white"/>
<path d="M17.4987 23.1983C17.4448 23.1174 17.4178 23.0635 17.31 23.1174C17.2022 23.1713 17.2831 23.2522 17.3639 23.2791C17.4718 23.3061 17.5257 23.2252 17.4987 23.1983Z" fill="white"/>
<path d="M19.2778 18.5082C19.197 18.3195 19.1161 18.2656 18.9274 18.3734C18.7387 18.4813 18.8735 18.643 19.0352 18.6969C19.197 18.7778 19.3048 18.5891 19.2778 18.5082Z" fill="white"/>
<path d="M15.8543 16.4859C15.9621 16.8094 16.043 17.1059 16.1508 17.4293C16.1239 17.4563 15.9621 17.5641 15.3422 17.3754C15.2882 17.1328 15.2074 16.9172 15.1535 16.7015C14.183 13.1433 13.2665 9.58515 12.4309 6C13.6439 9.47732 14.7491 12.9816 15.8543 16.4859Z" fill="#C9A273"/>
<path d="M18.9544 26.8634C18.9544 26.8634 18.8196 27.2678 18.0379 27.106L17.1753 24.0869L18.0379 23.8174L18.9544 26.8634Z" fill="#C9A273"/>
<path d="M20.0056 33.7647L20.8413 33.4951C21.2186 34.8699 21.623 36.2716 21.9734 37.6733C22.9169 41.2315 23.8603 44.7897 24.696 48.3748C23.4829 44.8975 22.3508 41.3932 21.2725 37.8889C20.8413 36.4872 20.4369 35.1394 20.0056 33.7647Z" fill="#C9A273"/>
<path d="M20.976 43.2802C23.6446 44.4123 27.3915 45.1132 30.8689 45.0054C34.6966 44.8975 37.6618 44.0619 40.6539 43.3341C40.573 42.4715 40.573 41.6628 40.6 40.935C40.6808 39.3446 41.0582 37.9968 41.5434 36.8916C39.4678 37.8351 35.4514 38.482 30.8419 38.482C26.3402 38.482 22.3777 37.862 20.2751 36.9455C20.6525 37.889 20.9221 38.9403 21.0299 40.1263C21.1108 41.0428 21.0838 42.0941 20.976 43.2802Z" fill="white"/>
<path opacity="0.95" d="M47.4468 82.4198C40.9504 92.3935 21.7038 92.69 14.857 82.2041C9.89709 74.6025 12.0805 68.0522 15.8274 60.1541C18.7926 53.9003 20.5447 47.7544 20.976 43.3066C23.6446 44.4388 27.3915 45.1397 30.8689 45.0318C34.6966 44.924 37.6618 44.0884 40.6539 43.3606C41.0043 47.6735 42.7834 53.5769 45.9372 60.1541C49.6841 68.0253 52.4067 74.7912 47.4468 82.4198Z" fill="#FFE885"/>
<path opacity="0.8" d="M38.8748 33.0636L38.3357 35.2201C36.0983 35.1392 35.8018 34.3305 35.8018 34.3305L36.2601 32.6323C34.6157 32.4167 32.7827 32.3088 30.8419 32.3088C24.0759 32.3088 18.6039 33.6836 18.6039 35.4088C18.6039 37.107 24.0759 38.5087 30.8419 38.5087C37.6079 38.5087 43.0799 37.134 43.0799 35.4088C43.0799 34.4653 41.4626 33.6297 38.8748 33.0636Z" fill="url(#paint0_linear_1_3412)"/>
<path d="M65.0221 36.7297C64.9952 36.7297 64.9412 36.7567 64.8604 36.8106C63.4587 37.4845 53.431 42.3635 50.6276 44.0348C47.6355 45.7869 45.3173 46.2182 44.8321 45.9217C42.9452 44.6548 38.9826 36.6219 37.8774 34.3306C36.7722 32.0394 35.9905 30.2063 35.7479 29.5055C35.5323 28.8585 34.5079 27.4568 34.2114 26.729C34.1845 26.6482 34.1575 26.5942 34.1575 26.5403C34.0766 26.1629 34.2114 25.9743 34.4271 25.8664C34.5888 25.7856 34.7775 25.7856 34.9662 25.7586C35.3975 25.7317 36.6914 24.8151 36.934 25.0308C37.1766 25.2734 37.7696 25.0038 38.2009 24.7882C38.6592 24.5725 39.36 24.276 39.7104 24.276C40.0609 24.276 40.6809 24.0334 41.6782 23.7908C42.6756 23.5482 43.5921 23.2247 44.1582 23.09C44.7243 22.9552 44.913 22.5508 45.6138 22.8743C46.3147 23.1978 47.2312 23.3865 47.8242 23.4674C48.4172 23.5482 48.6329 23.1978 49.2259 23.2787C49.8189 23.3595 50.6815 23.71 51.2746 23.71C51.8406 23.71 52.5415 23.4674 53.0267 24.0065C53.485 24.5186 55.0214 25.7047 55.5875 25.8934C56.1536 26.0821 57.5823 26.0821 57.8518 26.4864C58.1214 26.8908 57.9866 27.0255 58.7414 27.7534C59.4961 28.4812 59.8466 29.2898 60.1431 29.6133C60.4396 29.9368 60.3857 30.449 61.0596 30.7724C61.7335 31.0959 62.2187 31.4733 62.623 32.0124C63.0543 32.5515 63.9978 33.6837 64.483 34.9506C64.6447 35.3549 64.7795 35.6515 64.8873 35.8941C65.103 36.4332 65.2108 36.6488 65.0221 36.7297Z" fill="#FEE38A"/>
<path d="M64.8604 35.8938C63.0813 36.7564 54.105 41.1502 51.0589 42.8754H51.032C50.9511 42.9293 50.8433 42.9832 50.7624 43.0371C47.7703 44.7893 45.4521 45.2206 44.9669 44.924C43.08 43.6571 39.1174 35.6242 38.0122 33.333C37.5001 32.2547 37.0418 31.2574 36.6914 30.4487C36.2871 29.5591 36.0175 28.8583 35.8827 28.4809C35.694 27.8609 34.7506 26.594 34.4001 25.8392C34.5619 25.7583 34.7506 25.7583 34.9393 25.7314C35.3706 25.7044 36.6644 24.7879 36.9071 25.0036C37.1497 25.2462 37.7427 24.9766 38.174 24.761C38.6322 24.5453 39.3331 24.2488 39.6835 24.2488C40.0339 24.2488 40.6539 24.0062 41.6513 23.7636C42.6487 23.521 43.5652 23.1975 44.1313 23.0627C44.6973 22.928 44.886 22.5236 45.5869 22.8471C46.2877 23.1706 47.2042 23.3593 47.7973 23.4401C48.3903 23.521 48.606 23.1706 49.199 23.2514C49.792 23.3323 50.6546 23.6827 51.2476 23.6827C51.8137 23.6827 52.5146 23.4401 52.9998 23.9792C53.458 24.4914 54.9945 25.6775 55.5606 25.8662C56.1267 26.0549 57.5553 26.0549 57.8249 26.4592C58.0945 26.8635 57.9597 26.9983 58.7144 27.7261C59.4692 28.4539 59.8196 29.2626 60.1162 29.5861C60.4127 29.9096 60.3588 30.4217 61.0327 30.7452C61.7066 31.0687 62.1918 31.4461 62.5961 31.9852C63.0274 32.5243 63.9709 33.6564 64.4561 34.9234C64.6178 35.3277 64.7526 35.6242 64.8604 35.8938Z" fill="#FFC931"/>
<path d="M52.865 41.2041C54.4015 39.7215 51.0051 36.8911 51.8137 35.2199C52.6224 33.5755 50.3312 30.9878 47.6356 34.519C44.94 38.0502 44.7513 35.0851 43.2687 30.3947C41.7861 25.7313 39.4679 29.1817 36.7184 30.3947C36.314 29.5052 36.0445 28.8043 35.9097 28.4269C35.721 27.807 34.7776 26.54 34.4271 25.7853C34.5889 25.7044 34.7776 25.7044 34.9662 25.6774C35.3975 25.6505 36.6914 24.734 36.934 24.9496C37.1766 25.1922 37.7697 24.9227 38.201 24.707C38.6592 24.4914 39.3601 24.1949 39.7105 24.1949C40.0609 24.1949 40.6809 23.9522 41.6783 23.7096C42.6757 23.467 43.5922 23.1436 44.1582 23.0088C44.7243 22.874 44.913 22.4697 45.6139 22.7931C46.3147 23.1166 47.2312 23.3053 47.8242 23.3862C48.4173 23.467 48.6329 23.1166 49.226 23.1975C49.819 23.2783 50.6816 23.6288 51.2746 23.6288C51.8407 23.6288 52.5415 23.3862 53.0268 23.9253C53.485 24.4375 55.0215 25.6235 55.5876 25.8122C56.1537 26.0009 57.5823 26.0009 57.8519 26.4052C58.1214 26.8096 57.9867 26.9444 58.7414 27.6722C59.4962 28.4 59.8466 29.2087 60.1431 29.5321C60.4397 29.8556 60.3857 30.3678 61.0596 30.6912C61.7335 31.0147 62.2188 31.3921 62.6231 31.9312C63.0544 32.4703 63.9978 33.6025 64.4831 34.8694C64.6448 35.2738 64.7796 35.5703 64.8874 35.8129C63.1083 36.6755 54.132 41.0693 51.0859 42.7945C51.1398 42.8214 51.5442 42.5249 52.865 41.2041Z" fill="#FABF00"/>
<path d="M34.6428 26.5397C35.4515 26.5936 35.6132 26.5397 35.8019 26.351C35.9906 26.1353 36.7184 26.917 36.9071 26.4318C37.0689 25.9466 37.1767 25.6501 37.5541 25.5692C37.9315 25.4884 38.4436 25.3266 38.794 25.084C39.1445 24.8414 40.0879 24.5449 40.0879 24.5449C40.0879 24.5449 38.4706 24.7875 38.1741 24.9493C37.8775 25.084 37.2306 25.5153 36.7723 25.4614C36.3141 25.4075 35.4785 25.704 35.2359 25.9197C34.9124 26.1084 34.6428 26.5397 34.6428 26.5397Z" fill="#999704"/>
<path d="M50.1963 23.9248C50.8432 24.0057 50.7354 24.437 51.3554 24.6526C51.9754 24.8683 52.2719 25.5961 52.1641 26.1352C52.0563 26.6743 52.2719 26.5934 52.6223 26.1891C52.9728 25.8117 53.5388 25.5422 53.9162 25.7848C54.2936 26.0543 54.1858 26.6743 54.9675 26.7282C55.7492 26.7821 56.2075 26.9439 56.5849 27.1595C56.9892 27.3752 57.6361 27.3213 57.9596 27.9412C58.2831 28.5612 59.1457 28.723 59.1457 28.723C59.1457 28.723 57.9327 27.1595 57.2857 26.8091C56.6388 26.4856 55.3718 25.9465 54.5092 25.4613C53.6467 24.9761 52.5954 24.2752 52.1102 24.1944C51.571 24.0865 50.1963 23.9248 50.1963 23.9248Z" fill="#999704"/>
<path d="M65.0221 36.7294C64.9952 36.7294 64.9413 36.7564 64.8604 36.8103C64.5639 36.1364 64.0787 35.0851 63.6474 34.546C62.9735 33.7104 62.0839 32.3895 61.9222 31.8774C61.7874 31.3652 60.5205 30.6104 60.0622 29.8557C59.604 29.1278 58.6605 28.1305 57.6092 27.4566C56.558 26.7827 55.6415 26.3244 55.3449 26.0818C55.0484 25.8392 53.8354 25.1653 53.3502 24.8958C52.865 24.6262 52.5685 24.8958 52.3259 24.6801C52.0833 24.4645 51.5172 24.3297 51.0589 24.1949C50.6007 24.0601 50.2503 23.7906 50.0346 23.9792C49.792 24.1679 49.6842 24.3027 49.4955 24.0332C49.2798 23.7636 49.0103 23.7097 48.8216 23.7906C48.6059 23.8714 48.552 24.3297 48.4712 24.0601C48.3903 23.8175 46.7999 23.548 46.0182 23.2784C45.2364 22.9819 44.6165 23.1436 43.7 23.3323C42.7834 23.521 41.193 24.141 40.2226 24.4914C39.2522 24.8418 38.6322 24.9497 37.9853 25.1114C37.3383 25.2731 37.0688 25.8662 36.5027 25.7853C35.9366 25.7044 35.5592 25.7853 35.5053 26.1896C35.4514 26.5131 34.9662 26.3514 34.2384 26.7018C34.2114 26.6209 34.1845 26.567 34.1845 26.5131C34.1036 26.1357 34.2384 25.947 34.454 25.8392C34.6158 25.7583 34.8045 25.7583 34.9932 25.7314C35.4245 25.7044 36.7184 24.7879 36.961 25.0036C37.2036 25.2462 37.7966 24.9766 38.2279 24.761C38.6861 24.5453 39.387 24.2488 39.7374 24.2488C40.0878 24.2488 40.7078 24.0062 41.7052 23.7636C42.7026 23.521 43.6191 23.1975 44.1852 23.0627C44.7512 22.928 44.9399 22.5236 45.6408 22.8471C46.3416 23.1706 47.2581 23.3593 47.8512 23.4401C48.4442 23.521 48.6599 23.1706 49.2529 23.2514C49.8459 23.3323 50.7085 23.6827 51.3015 23.6827C51.8676 23.6827 52.5685 23.4401 53.0537 23.9792C53.5119 24.4914 55.0484 25.6775 55.6145 25.8662C56.1806 26.0549 57.6092 26.0549 57.8788 26.4592C58.1484 26.8635 58.0136 26.9983 58.7684 27.7261C59.5231 28.4539 59.8735 29.2626 60.1701 29.5861C60.4666 29.9096 60.4127 30.4217 61.0866 30.7452C61.7605 31.0687 62.2457 31.4461 62.65 31.9852C63.0813 32.5243 64.0248 33.6564 64.51 34.9234C64.6717 35.3277 64.8065 35.6242 64.9143 35.8668C65.103 36.4329 65.2108 36.6486 65.0221 36.7294Z" fill="#8B4625"/>
<path d="M44.6703 23.6015C44.5086 23.9519 44.8321 24.1137 44.4277 24.5719C43.9964 25.0032 43.8077 24.7606 44.2929 25.6502C44.7782 26.5667 44.5895 27.8066 45.1286 26.8362C45.6677 25.8658 46.3416 25.8658 45.9642 25.138C45.5868 24.3832 45.5329 24.0059 45.2634 23.6824C44.9399 23.3589 44.8321 23.2241 44.6703 23.6015Z" fill="#8B4625"/>
<path d="M57.097 28.2655C56.7466 27.4838 56.5579 27.4029 55.884 27.5377C55.2101 27.6455 55.0214 27.8342 55.0753 29.0203C55.1292 30.2064 56.2344 29.6133 56.7736 29.2359C57.3396 28.8855 57.2049 28.5081 57.097 28.2655Z" fill="#8B4625"/>
<path d="M46.9617 27.0515C46.5843 28.2375 46.207 28.3723 46.3148 29.6662C46.4226 30.9601 45.6139 34.9765 46.1261 33.3322C46.6382 31.6879 46.773 30.6905 46.9887 29.8549C47.1774 29.0193 46.9078 28.4801 47.0426 27.4828C47.1774 26.4854 47.1774 26.3776 46.9617 27.0515Z" fill="#F09500"/>
<path d="M56.8815 31.0142C56.6659 31.3916 56.5041 31.8499 56.3155 32.2272C56.1268 32.5777 54.6172 34.5455 55.1294 33.9524C55.6416 33.3594 56.5311 32.6585 56.612 32.362C56.6928 32.0655 56.3694 32.2812 56.8276 31.3916C57.3128 30.529 57.205 30.4482 56.8815 31.0142Z" fill="#F09500"/>
<path d="M54.9675 34.4652C54.644 34.4921 54.2667 34.8156 53.8623 35.166C53.458 35.5434 53.1615 35.4356 52.1371 36.4329C51.1128 37.4303 51.1937 37.5381 51.7598 37.026C52.3258 36.5138 52.8919 36.5408 53.2423 36.1095C53.5928 35.6782 53.8623 35.4625 54.1858 35.166C54.5093 34.8695 55.8032 34.0069 55.3988 34.2495L54.9675 34.4652Z" fill="#F09500"/>
<path d="M52.3529 29.6674C52.0564 30.3682 50.8434 32.3629 51.3825 31.6351C51.9216 30.9073 52.6764 30.8534 52.7842 29.9908C52.892 29.1013 53.5929 27.7265 53.2425 28.4004C52.892 29.1013 52.3529 29.6674 52.3529 29.6674Z" fill="#F09500"/>
<path opacity="0.2" d="M36.3409 65.3296C36.0444 64.3862 34.9931 62.2836 34.5888 61.4749C32.8366 58.0245 31.0845 52.7412 30.3836 48.4821C29.4132 42.417 30.9497 35.8398 30.9767 35.678L21.3534 35.1928C21.3534 35.1928 23.8333 37.7267 23.6446 44.3848C23.456 51.0429 20.6256 54.8168 17.903 60.8549L16.663 63.3618C15.1535 66.5696 14.3448 68.5374 14.3448 71.4486C14.3448 78.9963 19.2778 83.444 25.3429 83.444C31.4349 83.444 36.5027 78.0528 36.9609 71.4486C37.1496 69.1843 36.907 67.1087 36.3409 65.3296ZM47.4468 59.8575C43.3225 51.1508 41.8399 44.6274 42.1634 39.8292C42.3251 37.2415 43.9156 35.4624 45.3173 34.3572C45.479 34.2224 45.6407 34.1146 45.8025 34.0068L46.4764 33.3059C46.4225 33.3329 46.3955 33.3329 46.3416 33.3598C43.7269 34.438 38.147 34.8693 35.3166 35.0041C33.834 35.085 32.3514 35.1119 30.8958 35.1119C26.4211 35.1119 22.216 34.8154 19.0621 34.2763C17.9569 34.0876 15.6926 33.6563 14.7222 32.9824H14.0753C14.1831 33.0363 15.1535 33.4407 16.2587 34.2494C17.7143 35.3276 19.3856 37.1336 19.5473 39.8292C19.8708 44.6544 18.3882 51.1777 14.264 59.8575C10.5171 67.7287 8.17191 74.3868 11.8379 81.7997C12.2153 82.5814 12.6736 83.3632 13.1857 84.1449C15.0996 87.0831 21.0299 92.7169 30.8419 92.7169C41.8939 92.7169 47.1503 87.3526 49.0641 84.4144C54.5632 76.0042 51.5711 68.5643 47.4468 59.8575Z" fill="#D8D8D8"/>
<path opacity="0.3" d="M49.0912 84.3875C47.1773 87.3257 41.894 92.6899 30.869 92.6899C21.057 92.6899 15.1267 87.0561 13.2128 84.1179C12.7006 83.3362 12.2424 82.5545 11.865 81.7727C13.1319 82.2849 14.4528 82.851 15.8545 83.4979C37.6619 93.229 41.9748 72.1764 38.821 61.0436C36.2602 52.0403 34.3732 46.2447 35.2897 34.9502C36.6915 34.9502 43.8078 34.438 46.4495 33.252C46.4226 33.2789 45.7217 34.0067 45.7756 33.9798C45.6139 34.0876 45.4521 34.1954 45.2904 34.3302C43.8617 35.4354 42.2983 37.2145 42.1366 39.8023C41.8131 44.6274 43.2957 51.1507 47.4199 59.8306C51.5712 68.5643 54.5633 76.0041 49.0912 84.3875Z" fill="#D8D8D8"/>
<path d="M20.0325 86.9751C20.0325 86.9751 23.0785 88.889 26.8793 89.2933C30.6801 89.6977 35.5591 89.6168 39.926 87.7029C44.2929 85.7891 47.6084 81.7726 48.8754 77.7831C50.1423 73.7937 48.8754 67.9442 46.4763 62.8226C44.0772 57.7009 41.8399 52.6602 40.4651 46.7029C39.0904 40.7456 40.6808 36.837 42.1364 34.6536L44.2389 34.1953C44.2389 34.1953 41.8668 35.8935 41.4086 39.91C40.9503 43.9264 43.3764 52.3367 43.9155 53.7654C44.4546 55.194 48.0667 63.3886 49.091 65.5721C50.1154 67.7555 51.8405 74.6023 50.5197 78.9692C49.1989 83.363 42.5407 90.2907 38.2008 90.6951C33.8609 91.0994 25.3967 90.6411 23.0246 89.5629C20.6794 88.5116 20.0325 86.9751 20.0325 86.9751Z" fill="white"/>
<path d="M49.0911 84.3875C43.9965 92.2047 31.8663 94.4151 23.2943 91.4769C17.957 89.6439 14.5875 86.2205 13.2127 84.1449C7.74066 75.7616 10.1667 68.5643 14.291 59.8575C18.4152 51.1508 19.8978 44.6274 19.5743 39.8292C19.4126 37.1606 17.7144 35.3545 16.2588 34.2494C15.1536 33.4137 14.1562 33.0094 14.0753 32.9824H14.6953C14.911 33.1442 15.2614 33.3059 15.6927 33.4676C15.7735 33.4946 15.8544 33.5215 15.9622 33.5485C16.0161 33.5755 16.0431 33.5755 16.097 33.6024C16.3396 33.6833 16.6361 33.7641 16.9327 33.845C17.0135 33.872 17.0944 33.8989 17.2022 33.8989C17.4179 33.9528 17.6605 34.0067 17.9031 34.0607C17.9031 34.0607 18.4152 34.1685 18.577 34.1954C18.7657 34.438 18.9544 34.6807 19.143 34.9233C20.0865 36.298 20.8413 37.9962 21.03 40.1527C21.3804 44.5196 19.5743 52.229 15.8275 60.1541C12.0806 68.0522 9.87018 74.6025 14.857 82.2041C21.7039 92.6899 40.9504 92.3934 47.4468 82.4197C52.4067 74.8181 49.7111 68.0252 45.9373 60.1271C42.1904 52.229 40.3574 45.3283 40.627 40.9344C40.7887 38.2119 41.7052 36.2711 42.7295 34.8693C42.9182 34.5998 43.1339 34.3572 43.3226 34.1146H43.3495C43.4573 34.0876 43.5382 34.0876 43.646 34.0607C44.4817 33.8989 45.7216 33.6024 46.4764 33.252C46.4495 33.2789 45.7486 34.0068 45.8025 33.9798C45.6408 34.0876 45.479 34.1954 45.3173 34.3302C43.8886 35.4354 42.3252 37.2145 42.1635 39.8023C41.84 44.6274 43.3226 51.1508 47.4468 59.8306C51.5711 68.5643 54.5632 76.0042 49.0911 84.3875Z" fill="#E5E5E5"/>
<path d="M49.091 84.3878C47.1771 87.3261 41.8938 92.6903 30.8688 92.6903C30.1949 92.6903 29.521 92.6633 28.874 92.6094L30.0331 89.9408C30.3027 89.9408 30.5992 89.9677 30.8957 89.9677C40.9234 89.9677 45.7215 85.0887 47.4467 82.4201C52.4066 74.8185 49.711 68.0256 45.9372 60.1275C42.1903 52.2294 40.3573 45.3286 40.6268 40.9348C40.7886 38.2122 41.7051 36.2714 42.7294 34.8697C42.9181 34.6001 43.1337 34.3575 43.3224 34.1149H43.3494C44.2659 33.9532 45.452 33.6836 46.3146 33.3332C46.3685 33.3063 46.4224 33.2793 46.4763 33.2793C46.4493 33.3063 45.7485 34.0341 45.8024 34.0071C45.6406 34.1149 45.4789 34.2228 45.3172 34.3575C43.8885 35.4627 42.3251 37.2418 42.1633 39.8296C41.8399 44.6547 43.3224 51.1781 47.4467 59.8579C51.571 68.5647 54.5631 76.0045 49.091 84.3878Z" fill="#D6D6D6"/>
<path d="M49.0911 84.3882C47.1772 87.3264 41.8938 92.6907 30.8688 92.6907C30.1949 92.6907 29.521 92.6637 28.8741 92.6098C26.8254 92.4481 24.9655 92.0437 23.2942 91.4777C26.8254 92.3672 31.0306 92.7716 35.4244 92.0437C39.8182 91.289 45.2633 88.9977 47.9859 85.1969C50.7084 81.4231 52.3527 76.9484 51.571 72.3928C50.7893 67.8373 48.6328 63.3356 46.5033 58.807C44.3738 54.2784 42.5138 48.2672 42.1095 45.2481C41.7051 42.2291 41.5704 39.7761 42.1903 37.8892C42.5677 36.7301 43.5112 35.517 44.6433 34.5197C45.1555 34.0884 45.7216 33.684 46.2876 33.3606C46.3416 33.3336 46.3955 33.3066 46.4494 33.3066L45.7755 34.0345C45.6138 34.1423 45.452 34.2501 45.2903 34.3849C43.8616 35.4901 42.2982 37.2692 42.1364 39.8569C41.813 44.6821 43.2955 51.2054 47.4198 59.8852C51.571 68.5651 54.5631 76.0049 49.0911 84.3882Z" fill="#BCBCBC"/>
<path opacity="0.3" d="M36.3409 65.3294C36.0444 64.386 34.9931 62.2834 34.5888 61.4747C32.8367 58.0243 31.0845 52.741 30.3837 48.4819C29.4132 42.3629 30.9767 35.6778 30.9767 35.6778L21.3534 35.1926C21.3534 35.1926 23.8334 37.7265 23.6447 44.3846C23.456 51.0427 20.6256 54.8166 17.903 60.8547L16.6631 63.3616C15.1535 66.5694 14.3448 68.5372 14.3448 71.4484C14.3448 78.9961 19.2778 83.4438 25.3429 83.4438C31.4349 83.4438 36.5027 78.0526 36.9609 71.4484C37.1496 69.1841 36.907 67.1085 36.3409 65.3294Z" fill="white"/>
<path d="M23.2942 35.4092C23.2942 35.4092 25.2889 39.183 25.3428 44.709C25.3428 44.709 26.7985 40.5847 26.6637 35.4092H23.2942Z" fill="white"/>
<path d="M37.1495 35.7868C37.1495 35.7868 35.4513 39.965 35.9365 49.8578C35.9365 49.8578 34.7774 43.1188 35.0739 39.1563C35.3704 35.1938 35.3704 35.2207 35.3704 35.2207H37.3652L37.1495 35.7868Z" fill="white"/>
<path d="M19.4935 62.8499C16.4205 70.6671 18.7117 75.007 18.7117 75.1957C21.2995 81.2069 28.5237 80.3173 30.9498 78.08C29.9793 80.1556 26.7985 81.3417 24.2377 81.3147C15.2075 81.1799 13.6979 69.0767 19.4935 62.8499Z" fill="white"/>
<path d="M46.4764 33.2787C45.8833 33.8987 45.5599 34.2491 45.506 34.2761C45.452 34.303 45.2903 34.33 45.2903 34.33C44.4816 34.5456 43.5382 34.7343 42.7025 34.8691C40.573 35.2195 37.9583 35.4621 35.2357 35.5699C33.834 35.6238 32.4053 35.6508 30.9767 35.6508C27.6611 35.6508 24.2377 35.516 21.3534 35.1656C20.5717 35.0847 19.8439 34.9769 19.143 34.8691C18.0378 34.6804 17.0404 34.4647 16.2587 34.1952C15.7196 34.0065 14.884 33.683 14.4257 33.2787C14.2909 33.1709 14.1831 33.0361 14.1022 32.9283C13.8327 32.5239 13.8596 32.1196 14.2909 31.7422L14.4257 32.0926C14.1561 32.4161 14.3179 32.6587 14.6953 32.9283C15.6926 33.6022 17.9569 34.0065 19.0352 34.2221C22.189 34.7613 26.3942 35.0578 30.8689 35.0578C34.6157 35.0578 42.8373 34.7613 46.3146 33.3326C46.3686 33.3326 46.4225 33.3056 46.4764 33.2787Z" fill="#D8D8D8"/>
<path d="M23.9681 29.9092C26.1246 29.7474 28.4698 29.6666 30.8958 29.6666C32.621 29.6666 34.3192 29.7205 35.9096 29.8014L35.8288 29.5857C34.2114 29.5048 32.5401 29.4509 30.8958 29.4509C28.5507 29.4509 26.1785 29.5318 23.9951 29.6935C23.9681 29.7744 23.9681 29.8553 23.9681 29.9092Z" fill="#D8D8D8"/>
</g>
<defs>
<filter id="filter0_d_1_3412" x="0.7" y="0.7" width="73.7207" height="129.928" filterUnits="userSpaceOnUse" color-interpolation-filters="sRGB">
<feFlood flood-opacity="0" result="BackgroundImageFix"/>
<feColorMatrix in="SourceAlpha" type="matrix" values="0 0 0 0 0 0 0 0 0 0 0 0 0 0 0 0 0 0 127 0" result="hardAlpha"/>
<feOffset dy="4"/>
<feGaussianBlur stdDeviation="4.65"/>
<feComposite in2="hardAlpha" operator="out"/>
<feColorMatrix type="matrix" values="0 0 0 0 0 0 0 0 0 0 0 0 0 0 0 0 0 0 1 0"/>
<feBlend mode="normal" in2="BackgroundImageFix" result="effect1_dropShadow_1_3412"/>
<feBlend mode="normal" in="SourceGraphic" in2="effect1_dropShadow_1_3412" result="shape"/>
</filter>
<linearGradient id="paint0_linear_1_3412" x1="18.6303" y1="35.4064" x2="43.0849" y2="35.4064" gradientUnits="userSpaceOnUse">
<stop stop-color="white"/>
<stop offset="0.2508" stop-color="#FFFEFB"/>
<stop offset="0.4887" stop-color="#FFFDF0"/>
<stop offset="0.7215" stop-color="#FFF9DD"/>
<stop offset="0.9498" stop-color="#FFF5C2"/>
<stop offset="1" stop-color="#FFF4BB"/>
</linearGradient>
</defs>
</svg>
