<svg width="120" height="132" viewBox="0 0 120 132" fill="none" xmlns="http://www.w3.org/2000/svg">
<g filter="url(#filter0_d_1_3509)">
<path opacity="0.5" d="M65.8758 112.294C65.1916 112.896 64.2223 113.441 63.025 113.928C63.025 113.928 62.7399 114.043 62.5118 114.129C61.2575 114.617 60.2882 114.875 59.661 115.018C56.126 115.936 51.0516 116.652 45.1789 116.652C39.962 116.652 33.0915 116.05 28.1597 114.244C26.8483 113.785 25.0808 112.954 24.14 111.95C23.5699 111.377 23.2848 110.774 23.2848 110.144C23.2848 106.674 32.3788 103.835 43.8391 103.635C44.2952 103.635 45.5781 103.635 45.6066 103.635C46.0912 103.635 46.6043 103.635 47.089 103.663C47.317 103.663 47.5451 103.663 47.8017 103.692C48.3148 103.721 48.828 103.721 49.3411 103.749C62.3978 104.495 70.209 108.538 65.8758 112.294Z" fill="#EDEDED"/>
<path opacity="0.5" d="M65.8758 112.294C65.1916 112.897 64.2224 113.441 63.025 113.929C63.025 113.929 62.7399 114.043 62.5119 114.129C61.2575 114.617 60.2883 114.875 59.6611 115.018C48.4574 117.943 31.5807 115.506 31.5807 110.115C31.5807 107.563 36.4841 104.983 43.6681 104.065C44.2382 103.979 44.8369 103.95 45.4356 103.864C45.5211 103.864 45.5781 103.864 45.6636 103.836C46.1483 103.807 46.6329 103.778 47.1461 103.75C47.3741 103.75 47.6022 103.721 47.8303 103.721C48.3149 103.692 48.828 103.692 49.3412 103.692C62.3978 104.495 70.209 108.538 65.8758 112.294Z" fill="#D8D8D8"/>
<path d="M65.9043 112.266C65.8757 112.266 65.8757 112.266 65.9043 112.266C63.6521 115.219 54.9857 118 45.1789 118C35.1156 118 26.0786 114.99 24.14 111.95C25.1093 112.954 26.9053 113.785 28.1596 114.244C33.063 116.051 39.9049 116.653 45.1789 116.653C51.0801 116.653 56.1545 115.936 59.661 115.018C60.2027 114.875 61.1719 114.617 62.5118 114.13C62.7399 114.043 63.0249 113.929 63.0249 113.929C64.2223 113.413 65.1916 112.868 65.9043 112.266Z" fill="#BCBCBC"/>
<path opacity="0.5" d="M56.126 109.225C56.126 110.4 51.5077 111.748 45.8061 111.748C45.0364 111.748 44.2667 111.719 43.5255 111.691C38.9357 111.404 35.4862 110.228 35.4862 109.225C35.4862 108.537 37.1397 107.906 39.6769 107.533C41.7865 106.702 43.0123 105.669 43.668 104.121C43.725 103.978 43.782 103.834 43.8391 103.662C44.1811 102.659 44.3237 101.483 44.3522 100.021C44.4662 96.3791 44.3522 56.8671 44.3522 56.8671H46.7469C46.9179 56.8671 47.26 56.8671 47.26 56.8957C47.26 56.9818 47.2315 99.2178 47.26 100.049C47.317 101.54 47.4596 102.716 47.8017 103.748C47.8017 103.777 47.8302 103.806 47.8302 103.834C48.4573 105.555 49.6547 106.673 51.9353 107.59C54.4725 107.906 56.126 108.508 56.126 109.225Z" fill="#EDEDED"/>
<path d="M56.1261 109.224C56.1261 110.4 51.5078 111.747 45.8062 111.747C45.0364 111.747 44.2667 111.719 43.5255 111.69C48.5714 111.661 51.7643 110.256 52.5626 109.425C53.4463 108.565 50.1679 108.192 48.6284 106.443C47.8872 105.583 47.4311 104.78 47.1175 103.805C47.089 103.748 47.089 103.719 47.089 103.662C46.8039 102.629 46.7184 101.368 46.7184 99.6186V56.8377L47.2601 56.8664C47.2601 56.9524 47.2316 99.1885 47.2601 100.02C47.3171 101.511 47.4596 102.687 47.8017 103.719C47.8017 103.748 47.8302 103.776 47.8302 103.805C48.4574 105.525 49.6547 106.644 51.9354 107.561C54.4726 107.905 56.1261 108.507 56.1261 109.224Z" fill="#BCBCBC"/>
<path d="M46.8895 106.904C45.8062 105.814 45.5496 103.061 45.5496 103.061C45.5496 103.061 45.4071 105.814 44.2667 106.846C42.8413 108.137 40.7032 108.739 40.7032 108.739C40.7032 108.739 42.2712 109.198 45.5781 109.198C46.804 109.198 50.453 108.739 50.453 108.739C50.453 108.739 48.0583 108.079 46.8895 106.904Z" fill="white"/>
<path d="M45.578 56.8377C45.635 60.4792 45.6635 64.0921 45.692 67.7336L45.7205 78.6296L45.692 89.5255L45.635 94.9735L45.5495 100.421L45.4639 94.9735L45.4069 89.5255L45.3784 78.6296L45.4069 67.7336C45.4639 64.0921 45.4925 60.4506 45.578 56.8377Z" fill="white"/>
<path opacity="0.5" d="M47.26 56.8381C47.26 56.9241 47.26 57.5836 47.26 58.6732H44.3807V56.8094H46.7754C46.918 56.8381 47.26 56.8381 47.26 56.8381Z" fill="#BCBCBC"/>
<path opacity="0.2" d="M10.0571 28.5951C10.0571 35.5341 12.5088 40.2365 20.32 42.6451V42.7025C20.7191 48.7239 26.2497 52.7669 31.8087 54.9747C39.3634 57.9281 49.8258 58.2435 58.8914 54.5733C61.3715 53.5697 63.9088 51.9067 65.3627 50.559C65.3627 50.559 65.3627 50.559 65.3912 50.559C67.7003 48.4085 69.2398 45.8852 69.3253 42.7311C70.6652 42.3584 72.0335 41.8136 73.2309 41.1541C73.9721 40.7527 74.6848 40.2939 75.0839 39.9498C75.2264 39.8925 76.6233 38.6595 77.108 38C78.2483 36.423 79.4741 30.2868 79.8162 28.5664C77.4786 20.9106 12.3378 20.968 10.0571 28.5951Z" fill="#D8D8D8"/>
<path d="M13.9626 33.9287C15.1315 37.4556 17.6117 39.4053 21.2607 40.667H21.2892C22.458 40.9537 22.9427 41.5845 23.0567 42.1007C23.0852 42.2727 23.2278 43.1903 23.2563 43.4483C23.7124 47.4053 28.3592 51.4482 34.9445 53.5701C35.5717 53.7708 36.2274 53.9715 36.9116 54.1435C46.4333 56.4087 58.2356 54.7743 64.992 47.8927C66.1038 46.5451 66.731 44.6239 66.7025 43.0182C66.7025 42.9895 66.7025 42.9609 66.7025 42.9322C66.7025 42.8748 66.7025 42.8175 66.7025 42.7602V42.7315C67.2156 39.0039 73.6014 40.8677 75.8535 34.2154C71.7769 36.2799 59.5755 37.771 45.1504 37.771C30.0982 37.771 17.4121 36.1366 13.9626 33.9287Z" fill="#FBB809"/>
<path d="M77.3358 32.7243C77.3358 35.5056 62.9393 37.7708 45.1788 37.7708C27.4183 37.7708 13.0217 35.5056 13.0217 32.7243C13.0217 29.9429 27.4183 27.6777 45.1788 27.6777C62.9393 27.6777 77.3358 29.9143 77.3358 32.7243Z" fill="url(#paint0_linear_1_3509)"/>
<path d="M75.939 23.5479C73.1737 20.4225 72.8316 20.8813 70.9216 21.3114C69.0116 21.7128 66.9875 26.0138 65.9042 28.5944C64.8494 31.1751 64.3077 31.6052 64.3077 31.6052C64.3077 31.6052 67.073 31.6052 68.0708 30.5729C69.0686 29.512 75.939 23.5479 75.939 23.5479Z" fill="#729409"/>
<path d="M74.9127 24.1799C74.9127 23.9218 73.8294 22.1154 71.5202 21.3985C69.2111 20.7104 64.9634 22.2874 63.424 22.3734C61.8845 22.4595 60.9723 24.0652 59.2333 24.3232C57.4943 24.5813 56.2114 26.7031 55.0996 27.1046C53.9878 27.506 53.8168 27.592 53.8168 27.592C53.8168 27.592 54.6435 26.1583 55.5273 23.205C56.3825 20.2516 60.2311 17.7857 63.3099 16.9828C66.3888 16.18 69.2396 16.8681 70.9786 17.4416C72.7176 18.0151 74.4851 19.4201 75.3688 20.8537C76.2526 22.2874 75.5969 23.9792 75.5969 23.9792L74.9127 24.1799Z" fill="#C4CE32"/>
<path d="M54.615 26.8465C55.0711 25.9289 55.3562 24.9253 56.0404 24.0938C56.9241 23.0042 58.036 22.8035 58.6631 22.5168C60.8868 21.4558 61.1148 20.3089 64.2222 20.0222C69.6672 19.506 72.0049 18.0437 74.3995 20.9397C74.7416 21.3411 75.0267 21.7713 75.1693 22.2874C75.0267 21.7999 74.7131 21.3698 74.371 20.9684C71.9764 18.2157 69.9523 19.6494 64.2222 20.1942C61.1433 20.4809 60.8297 21.6852 58.6916 22.6315C58.036 22.9469 56.9812 23.0902 56.0689 24.1512C55.4132 24.9253 55.0711 25.9289 54.615 26.8465Z" fill="#729409"/>
<path d="M56.4396 23.3201C56.24 22.6033 56.5536 21.571 57.0097 20.9689C56.9242 21.313 56.5251 22.2305 56.4396 23.3201Z" fill="#729409"/>
<path d="M57.4658 22.7184C57.5228 22.0876 57.8934 21.8582 58.15 21.6001C58.8342 20.8833 59.1193 19.3636 60.4877 18.3887C59.2618 19.6503 58.8627 21.17 58.264 21.7148C57.8934 22.0302 57.6369 22.1449 57.4658 22.7184Z" fill="#729409"/>
<path d="M58.8344 21.9431C59.4045 21.4556 59.7181 21.6563 60.4593 20.5667C61.5426 18.9897 62.4834 18.7029 63.7377 17.7567C64.0228 17.556 64.2794 17.2693 64.593 17.0972C64.9066 16.9252 65.2772 16.7818 65.6193 16.8105C65.2487 16.8105 64.9351 16.9825 64.6215 17.1833C64.3079 17.384 64.0798 17.642 63.7947 17.8714C62.4264 19.0184 61.8847 18.9037 60.5448 20.6527C59.7751 21.6563 59.6041 21.4556 58.8344 21.9431Z" fill="#729409"/>
<path d="M63.0819 19.8213C63.367 19.2478 63.9086 18.9898 64.5073 18.7891C66.7594 18.0149 66.9305 17.4414 69.5817 17.298C65.7332 18.0149 67.2441 18.1582 64.5643 18.9038C63.9657 19.1045 63.424 19.3339 63.0819 19.8213Z" fill="#729409"/>
<path d="M67.8428 19.1906C68.641 18.4737 71.3493 17.9003 73.0597 18.6745C71.2352 18.187 68.641 18.7031 67.8428 19.1906Z" fill="#729409"/>
<path d="M69.2966 31.1192C69.7527 33.9865 71.7483 36.0224 74.1429 36.6245C74.8556 32.0367 75.3688 27.449 76.0815 22.8899C72.1189 23.0906 68.5269 26.2734 69.2966 31.1192Z" fill="#DD5900"/>
<path d="M69.2966 31.1192C69.7527 33.9865 71.7483 36.0224 74.1429 36.6245C74.8556 32.0367 75.3688 27.449 76.0815 22.8899C72.1189 23.0906 68.5269 26.2734 69.2966 31.1192Z" fill="#ED6407"/>
<path d="M75.0553 24.3804C73.0312 24.2371 71.1497 25.8141 70.6935 26.5596C69.5247 28.4807 69.4392 30.9467 71.3492 33.4126C72.0904 34.3588 73.2308 34.5882 74.4566 34.3875C74.9127 31.09 75.3403 27.7926 75.825 24.5238C75.5969 24.4378 75.3403 24.3804 75.0553 24.3804Z" fill="#F77823"/>
<path d="M73.9148 25.1836C72.746 25.0976 71.6627 26.0151 71.4061 26.4452C70.7504 27.5348 70.6934 28.9685 71.7767 30.3735C72.4894 31.291 73.9148 31.0616 75.0267 30.3448C75.2262 28.8825 75.4258 27.4488 75.6253 26.0151C75.1692 25.5563 74.5705 25.2409 73.9148 25.1836Z" fill="#FF9327"/>
<path d="M74.086 27.1335C74.3711 26.388 73.7439 25.4418 72.9457 25.3844C72.4041 25.3557 71.8909 25.7859 71.7769 25.9866C71.4633 26.5027 71.4348 27.1622 71.9479 27.8503C72.4326 28.5098 73.7724 27.879 74.086 27.1335Z" fill="#FFE7D2"/>
<path d="M72.0335 33.1546C72.0905 33.0399 72.0335 32.9252 72.0049 32.8678C71.9194 32.7531 71.8054 32.6958 71.6343 32.7531C71.4633 32.8105 71.4918 33.0972 71.6058 33.2119C71.7199 33.3553 71.9479 33.2979 72.0335 33.1546Z" fill="#FFE7D2"/>
<path d="M75.5683 24.5523C75.5968 24.495 75.5683 24.409 75.5683 24.3803C75.5113 24.323 75.4543 24.2943 75.3402 24.323C75.2262 24.3516 75.2547 24.5523 75.3117 24.6097C75.3687 24.6957 75.5113 24.667 75.5683 24.5523Z" fill="#FFE7D2"/>
<path opacity="0.5" d="M79.8446 28.9971C79.8446 29.3698 79.8446 29.7426 79.8161 30.1153C79.1319 43.6779 65.5621 44.5381 48.3433 44.5668C48.3718 44.5668 48.4003 44.5381 48.4288 44.5381C51.1656 43.5632 59.4329 40.2084 58.3781 33.9576C62.5403 33.6709 66.3318 33.2407 69.6102 32.696C72.7176 32.1798 74.9697 31.6064 76.5377 31.0616C78.6758 30.3161 79.531 29.5705 79.531 28.9971H79.8446Z" fill="#D8D8D8"/>
<path opacity="0.3" d="M69.3251 40.209C69.3251 40.2377 69.3251 40.2664 69.3251 40.2664C69.1826 49.1552 61.4284 54.5458 52.7619 56.4096C46.0911 57.8432 38.1658 57.3845 31.8371 54.9759C26.1925 52.8254 20.7474 48.7537 20.3198 42.6463C20.2628 41.9295 20.2913 41.1839 20.3768 40.4098L21.2606 40.6965C27.7604 42.7897 32.0936 44.6534 44.8937 44.5674C56.468 44.4814 60.2025 44.338 69.3251 40.209Z" fill="#D8D8D8"/>
<path opacity="0.5" d="M69.1256 42.3027C69.0971 42.4748 69.0686 42.6468 69.0401 42.7902C67.6147 49.7578 61.2574 54.575 52.762 56.4101C49.227 57.1556 45.2644 57.385 42.214 57.1556C38.9641 56.9549 35.8282 56.3528 32.9774 55.3779C32.6068 55.2632 32.2077 55.1198 31.8656 54.9764C31.8656 54.9764 31.8656 54.9478 31.8371 54.9478C31.324 54.2022 32.1507 53.7148 34.9445 53.5714C50.0822 52.9119 48.3432 44.5393 48.3432 44.5393L69.1256 42.3027Z" fill="#D8D8D8"/>
<path d="M77.3359 30.5732C77.2789 30.8313 77.1934 31.1467 77.1079 31.5195C76.5377 33.8133 75.6255 37.6556 75.5399 37.799C75.4259 37.971 68.641 40.5516 68.2134 40.695C71.6058 39.29 74.143 36.7094 75.0553 34.6736C75.4259 33.8133 75.6255 32.8671 75.6825 32.0643C75.711 31.7489 75.711 31.4621 75.711 31.2327C75.8535 31.1754 75.9961 31.1467 76.1386 31.0894C76.5947 30.8887 76.9938 30.7453 77.3359 30.5732Z" fill="white"/>
<path d="M66.7309 42.7316C66.7309 42.7316 66.845 46.8319 60.5447 50.6168C55.6698 53.5702 50.6809 54.7745 36.8831 54.1437C36.8831 54.1437 42.2711 55.7781 47.6591 55.7781C53.0471 55.7781 58.2926 53.3408 61.7991 51.477C65.3055 49.6419 66.7309 46.8033 66.7309 46.8033L67.1586 43.0757L66.7309 42.7316Z" fill="white"/>
<path opacity="0.2" d="M79.8446 28.9971C79.8446 29.0831 79.8446 29.1978 79.8446 29.2838C79.8446 29.5705 79.8446 29.8573 79.8161 30.1153C79.6451 33.4701 78.7043 36.0508 77.0794 38.0292C76.6517 38.6027 75.1978 39.9217 75.0553 39.979C74.6277 40.3231 73.915 40.7819 73.2023 41.1833C71.9479 41.8715 70.665 42.3303 69.2967 42.7604C68.6125 42.9611 67.4721 43.2191 66.6739 43.4198C66.6739 43.4198 66.6454 43.4198 66.6169 43.4198C58.8342 44.9969 29.5565 45.5417 20.2914 42.703C15.5591 41.2693 12.1666 38.7461 10.7412 34.3303C10.3136 32.8967 10 31.2336 10 28.9971H10.4276C10.4276 29.5705 11.2829 30.3161 13.3639 31.0616C14.1052 31.3196 14.9889 31.5777 16.0437 31.8644C16.1007 32.1225 16.1862 32.3805 16.2718 32.6673C16.7849 34.3017 17.6401 36.0221 19.037 37.1403C22.7716 40.2371 29.414 42.1295 36.9116 42.3302C45.1789 42.5596 48.0297 40.9539 50.9375 38.8894C52.648 37.6851 53.7883 36.3088 54.5865 34.9612C54.7576 34.7031 54.9001 34.4164 55.0141 34.1583C59.718 33.9289 64.992 33.4701 69.6388 32.7246C71.6628 32.3805 78.5618 31.1476 79.474 29.3125C79.5025 29.2265 79.531 29.1404 79.531 29.0257H79.8446V28.9971Z" fill="#D8D8D8"/>
<path opacity="0.3" d="M55.0141 34.1299C54.8716 34.388 54.729 34.6747 54.5865 34.9328C53.7882 36.2804 52.6194 37.6281 50.9375 38.861C48.0296 40.9255 45.1503 42.5312 36.9115 42.3019C29.4139 42.1011 22.7715 40.2087 19.037 37.1119C17.6401 35.965 16.7849 34.2446 16.2717 32.6389C16.1862 32.3521 16.1007 32.0654 16.0151 31.75C17.2695 32.0654 18.7804 32.3808 20.5764 32.6962C27.0762 33.7858 35.7427 34.388 44.9508 34.388C48.4002 34.388 51.7927 34.3019 55.0141 34.1299Z" fill="white"/>
<path d="M69.3252 42.7018C69.2397 45.8559 67.6718 48.3791 65.3911 50.5296C65.3911 50.5296 65.3911 50.5296 65.3626 50.5296C59.8321 55.7195 49.8543 57.5833 42.1856 57.1245C33.3481 56.6084 21.3177 51.9633 20.3485 43.0745C20.3485 42.9598 20.32 42.8165 20.32 42.6731V42.6158C13.1359 40.4366 10.1141 36.0209 10.0286 29.2539C10.0286 29.3113 10.0571 29.3399 10.0571 29.3686C10.4277 30.5442 12.3092 31.3184 13.421 31.7485C13.4495 31.8345 13.478 32.1499 13.7631 33.2109C14.989 37.7986 17.8113 39.4617 22.0875 40.9527C22.8572 41.2394 23.0567 42.0996 23.0567 42.0996C23.3133 42.5297 22.5151 49.5547 34.9446 53.569C47.7732 57.7554 64.9635 52.9956 67.8428 43.0745C68.4415 42.9598 68.9261 42.8165 69.3252 42.7018Z" fill="#E5E5E5"/>
<path d="M79.8731 28.9971C79.8731 29.3698 79.8731 29.7426 79.8446 30.0867C79.474 37.2837 75.5113 40.8966 69.3251 42.7317C69.3251 43.0758 69.2966 43.3338 69.2681 43.5632C69.2681 44.9682 68.1563 47.9216 65.391 50.5309C65.391 50.5309 65.391 50.5309 65.3625 50.5309C64.4502 51.3911 62.9108 52.5093 61.3999 53.3409C58.4065 55.0613 53.7027 56.4663 48.6853 57.0398C47.1174 57.2118 45.0078 57.2118 43.7534 57.2118C45.0933 55.6921 45.6635 55.0613 45.6064 55.1186C51.7642 55.1186 61.2288 52.5954 64.9919 47.9216C68.0422 44.1367 65.391 42.0148 68.1848 40.7245C71.1781 39.3195 75.7394 38.2013 76.4521 31.8071C76.4806 31.4917 76.5091 31.2336 76.5376 31.0902C77.3073 30.8035 79.1604 30.0867 79.474 29.3125C79.5025 29.2551 79.531 29.1404 79.531 29.0257H79.8731V28.9971Z" fill="#D6D6D6"/>
<path d="M18.7805 34.7039C18.7805 34.7039 28.7868 38.03 46.9464 37.1411C46.9464 37.1411 43.497 39.7504 29.6421 38.5174C21.7454 37.8006 18.7805 34.7039 18.7805 34.7039Z" fill="white"/>
<path d="M26.1641 45.7422C26.1641 45.7422 32.4358 48.5522 43.839 47.8067C43.839 47.8067 41.6724 50.0432 32.9775 48.9823C28.0171 48.3802 26.1641 45.7422 26.1641 45.7422Z" fill="white"/>
<path d="M79.8731 28.9971C79.8731 36.4809 76.2811 40.6959 69.3252 42.7317C69.3252 43.0758 69.3252 43.8213 68.9261 45.1689C68.5269 46.5453 68.0708 48.0076 65.3626 50.5309C65.3626 50.5309 65.3626 50.5309 65.3341 50.5309C63.8801 51.9072 61.3429 53.5416 58.8627 54.5452C56.8957 55.348 55.1567 55.9502 52.4199 56.495C52.5054 56.4663 52.6195 56.4376 52.705 56.4089C55.9834 55.5201 58.7487 54.2584 61.0293 52.9968C64.2507 51.2477 66.7309 48.1796 67.6147 46.5166C68.4699 44.9395 68.3274 42.1869 68.3274 42.1582C68.3274 42.1582 68.641 42.1009 69.1256 41.9575C69.9238 41.7281 71.2352 41.298 72.404 40.6672C74.6277 39.4916 76.3667 37.9719 77.507 36.1941C78.6758 34.3303 78.9324 32.4952 79.0179 30.4307C79.5025 30.0293 79.8731 29.5992 79.8731 28.9971Z" fill="#BCBCBC"/>
<path d="M75.6254 25.9013L75.5399 26.4748C78.0771 27.3923 79.1034 28.3672 79.1034 28.9694C79.1034 29.3708 78.6758 29.8869 77.6495 30.403C75.4829 31.5213 71.6913 32.2668 69.2966 32.6683C61.7705 33.9299 52.5624 34.36 44.9223 34.36C35.7142 34.36 27.0478 33.7578 20.5479 32.6683C18.6379 32.3528 10.7412 30.8905 10.7412 28.9694C10.7412 27.9658 13.3069 26.1307 20.5479 24.9264C30.8393 23.206 44.7227 22.9479 55.4132 23.5214L55.5558 23.0913C39.3062 22.2024 14.0766 23.5214 10.3991 27.9658C10.228 28.1665 10.1425 28.2812 10.057 28.5966C9.80041 29.6289 10.8267 30.4604 11.3398 30.8045C11.9385 31.2059 12.8793 31.5787 13.4209 31.7794C21.4887 34.7041 36.3129 35.1628 44.9223 35.1628C74.2 35.1628 87.5132 29.7436 75.6254 25.9013Z" fill="#D8D8D8"/>
<path d="M60.4591 23.8643C63.0818 24.0936 65.5335 24.3517 67.7857 24.6958L68.0422 24.2657C65.9041 23.9503 63.595 23.6922 61.1433 23.4628C60.9437 23.5775 60.6587 23.7496 60.4591 23.8643Z" fill="#D8D8D8"/>
<path d="M68.0422 14.1142C72.2044 15.7199 74.8842 16.7522 76.3096 18.0998C77.735 19.4762 77.849 22.0568 77.2218 23.1464L76.5946 24.236L78.0771 24.7808C78.0771 24.7808 79.2744 23.175 79.5025 22.0281C79.7305 20.8812 79.759 19.4475 77.849 17.8991C75.939 16.3507 73.1452 14.4296 71.7768 14.2289C70.3514 14.0282 68.0422 14.1142 68.0422 14.1142Z" fill="#729409"/>
<path d="M79.5312 25.7554C82.1824 24.9813 84.6341 26.7303 88.7107 26.0708C92.7874 25.4114 95.9518 29.1676 99.0591 28.8808C102.167 28.5941 105.16 28.3934 107.212 27.7913C109.237 27.2178 110.434 26.1855 110.434 26.1855C110.434 26.1855 107.241 26.7877 105.587 25.8415C103.963 24.8952 103.307 22.3146 99.4583 23.1175C95.6097 23.9203 91.6756 22.372 89.1954 22.8881C86.7152 23.4042 79.3601 25.1246 79.3601 25.1246L79.5312 25.7554Z" fill="#729409"/>
<path d="M49.1985 12.1928C51.3651 13.139 52.9901 11.734 54.1874 11.9921C55.3847 12.2501 56.4965 12.3075 58.093 12.1354C59.6894 11.9634 61.3144 12.9096 62.9393 12.7663C64.5643 12.6516 67.5862 14.1999 70.0378 14.4867C72.4895 14.7734 75.2548 16.2071 76.9653 17.8128C78.6758 19.4185 79.7021 20.5368 78.9894 22.3719C78.2767 24.2357 78.0201 24.7231 78.0201 24.7231L78.5617 25.0959C78.5617 25.0959 80.3292 21.6837 80.0727 20.3074C79.8161 18.9311 79.2459 19.1891 79.3885 17.7841C79.531 16.3505 77.9061 13.1103 75.7965 11.0459C73.6869 8.95269 67.8427 5.22513 63.7661 6.14269C59.6609 7.06024 59.2333 7.20361 56.6676 7.3183C54.1019 7.43299 53.1041 10.243 52.2203 10.9598C51.3936 11.7053 49.1985 12.1928 49.1985 12.1928Z" fill="#C4CE32"/>
<path d="M51.9353 12.3079C52.534 11.7631 53.2752 11.3903 53.9594 10.9889C57.1238 9.18245 57.9505 7.69142 59.9746 7.06061C58.1215 7.83479 57.6939 9.15377 52.9616 11.677C52.591 11.8778 52.2489 12.0785 51.9353 12.3079Z" fill="#729409"/>
<path d="M54.5295 11.7043C55.6128 11.1308 55.9264 11.0161 56.3826 9.55377C56.3541 10.672 55.8124 11.4749 54.5295 11.7043Z" fill="#729409"/>
<path d="M56.1544 11.7332C56.3255 11.4752 56.6105 11.2745 56.8386 11.0738C57.4373 10.5863 57.8649 10.0989 57.5513 8.57916C58.0074 9.61141 57.8649 10.5576 56.9241 11.1885C56.6676 11.3605 56.3825 11.5039 56.1544 11.7332Z" fill="#729409"/>
<path d="M59.0338 11.5049C58.093 10.358 59.0338 9.46912 59.1193 8.46555C59.1478 8.09279 59.2048 7.80606 59.4899 7.46198C59.1193 8.15014 59.4614 8.32218 59.0338 9.52647C58.9198 9.84188 58.8057 10.186 58.7772 10.53C58.7487 10.8454 58.8627 11.1895 59.0338 11.5049Z" fill="#729409"/>
<path d="M59.8605 11.5039C60.06 10.9304 60.4306 10.7584 60.7157 10.443C61.1718 9.89817 61.0863 7.94837 62.4262 6.74408C61.2574 8.20643 61.3714 9.95551 60.8297 10.529C60.4877 10.8157 60.1456 10.9591 59.8605 11.5039Z" fill="#729409"/>
<path d="M64.5643 12.565C63.9941 12.1923 63.5665 11.8195 63.4525 11.16C63.1959 9.52566 62.1696 8.46474 64.0797 6.97372C64.3077 6.773 64.5928 6.62963 64.8494 6.48627C62.1126 8.20668 63.4525 9.43964 63.5665 11.1314C63.652 11.7048 64.1082 12.1636 64.5643 12.565Z" fill="#729409"/>
<path d="M65.3056 12.5367C64.3363 10.7589 66.7595 8.03493 68.812 7.26074C65.8757 8.83778 65.7332 10.4435 65.3911 10.9023C65.1345 11.3897 65.0775 11.9919 65.3056 12.5367Z" fill="#729409"/>
<path d="M66.5599 9.41229C67.0161 9.95709 67.2441 10.6453 67.5007 11.2761C68.1279 12.7671 68.7836 12.5377 69.9239 12.1936C73.1738 11.19 75.1409 14.4588 76.2242 15.0896C77.4785 15.8065 78.4193 16.2366 79.2745 17.871C78.3623 16.3226 77.3645 15.8925 76.1386 15.233C74.9983 14.6022 73.0598 11.4194 69.9524 12.3657C68.7551 12.7384 67.9853 12.9105 67.3867 11.3334C67.1871 10.6739 66.9876 9.98576 66.5599 9.41229Z" fill="#729409"/>
<path d="M68.9545 7.49133C68.6409 8.35154 67.7287 9.12572 68.7265 9.92858C69.3821 10.4447 69.6957 10.158 70.3799 11.2476C70.494 11.4483 70.608 11.6777 70.665 11.9071C69.9523 10.1866 68.6124 10.5594 68.2133 9.44113C67.8997 8.69562 68.4984 8.35154 68.9545 7.49133Z" fill="#729409"/>
<path d="M72.233 11.992C71.5488 10.1569 72.7461 9.84146 71.8909 9.75544C71.4633 9.72677 70.7506 9.78411 70.4085 9.49738C69.9523 9.09595 70.0379 8.32177 70.8646 7.89166C70.4655 8.1784 70.0949 8.63717 70.323 9.09595C70.7791 10.0708 72.7746 9.0386 72.29 10.1855C72.0619 10.7303 72.119 11.3898 72.233 11.992Z" fill="#729409"/>
<path d="M69.9238 12.6221C69.4391 13.2242 68.3273 13.7117 67.5576 13.5683C68.3558 13.4536 69.2396 13.0522 69.9238 12.6221Z" fill="#729409"/>
<path d="M79.3601 25.1245C80.7 21.4543 82.8951 16.8952 85.4893 15.0027C88.0836 13.1103 90.5352 10.4436 93.6711 9.41139C96.7785 8.37914 99.2872 8.37914 101.254 9.35404C103.221 10.3289 104.219 9.84149 106.186 10.5297C108.153 11.1891 109.351 11.1891 109.351 11.1891C109.351 11.1891 107.041 13.7698 105.587 14.4866C104.134 15.2034 103.335 18.6729 100.057 19.9059C96.7785 21.1675 91.533 23.4901 88.7677 23.8628C86.0025 24.2356 80.0728 25.9273 80.0728 25.9273L79.3601 25.1245Z" fill="#C4CE32"/>
<path d="M81.9827 23.203C83.6646 20.9091 85.2326 20.1922 87.7128 18.9306C88.2544 18.6726 88.7961 18.3858 89.3092 18.0991C89.8224 17.8123 90.3355 17.4683 90.8487 17.1529C91.9035 16.5507 93.0153 16.0633 94.1271 15.6332C99.344 13.626 98.7739 13.3106 100.712 12.6798C103.25 11.8483 104.475 12.7658 107.811 11.5615C104.59 12.8232 103.164 11.9916 100.741 12.8232C98.7454 13.5113 99.4296 13.7981 94.1841 15.8052C93.0723 16.2353 91.9605 16.6941 90.9057 17.2962C89.8794 17.8697 89.7654 18.0704 87.7413 19.0453C85.3181 20.2496 83.6931 20.9951 81.9827 23.203Z" fill="#729409"/>
<path d="M82.9519 21.3388C83.465 18.6434 87.8268 18.7295 85.6317 15.7188C87.7127 17.8979 84.7479 19.1596 83.9212 19.8764C83.4936 20.2778 83.123 20.7653 82.9519 21.3388Z" fill="#729409"/>
<path d="M87.3423 18.5284C87.6844 18.1843 87.998 17.8115 88.3116 17.4388C88.4541 17.238 88.5966 17.066 88.7107 16.8653C88.8247 16.6646 88.9102 16.4352 88.9387 16.2345C88.9672 16.0051 88.8817 15.8044 88.7107 15.661C88.5396 15.489 88.3401 15.3169 88.226 15.1162C87.941 14.7148 87.7414 14.256 87.6559 13.7686C87.8269 14.2273 88.055 14.6574 88.3401 15.0302C88.4826 15.2309 88.6537 15.3743 88.8247 15.5463C89.0243 15.7184 89.1668 15.9764 89.1383 16.2631C89.1098 16.5212 88.9958 16.7793 88.8817 16.98C88.7392 17.1807 88.5966 17.3814 88.4256 17.5535C88.0835 17.8975 87.7129 18.2416 87.3423 18.5284Z" fill="#729409"/>
<path d="M91.0768 16.5221C91.1054 16.264 91.1624 16.006 91.2764 15.7766C91.3904 15.5472 91.5615 15.3178 91.761 15.1458C91.9321 14.9451 92.1316 14.773 92.1316 14.5436C92.1316 14.3142 91.9891 14.0849 91.8466 13.9128C91.533 13.5114 91.0483 13.3393 90.5637 13.196C90.3071 13.1386 90.0506 13.0526 89.8225 12.9666C89.5944 12.8806 89.3379 12.7372 89.1953 12.5078C89.3664 12.7085 89.6229 12.7945 89.851 12.8806C90.1076 12.9379 90.3356 12.9953 90.5922 13.0526C91.1054 13.1673 91.6185 13.368 91.9891 13.7981L92.1031 13.9702L92.1887 14.1422C92.2172 14.1995 92.2457 14.2856 92.2742 14.3429C92.2742 14.4003 92.3027 14.4863 92.3027 14.5723C92.3027 14.7157 92.2172 14.859 92.1316 14.9737C92.0461 15.0884 91.9606 15.1744 91.8466 15.2605C91.647 15.4325 91.476 15.6332 91.3619 15.8339C91.2194 16.006 91.1339 16.264 91.0768 16.5221Z" fill="#729409"/>
<path d="M94.2697 15.033C93.2434 13.4846 95.7521 12.1369 92.4167 11.6208C91.9036 11.5348 91.3619 11.5348 90.8488 11.4774C91.3904 11.4488 91.9036 11.4488 92.4452 11.4774C95.7521 11.8215 93.5855 13.5133 94.2697 15.033Z" fill="#729409"/>
<path d="M96.4364 14.143C96.4078 12.5947 95.5811 12.5086 94.4408 11.5051C93.9562 11.075 93.1864 10.7596 92.5878 10.5588C93.2435 10.6735 94.0132 10.9316 94.5548 11.3904C95.5811 12.2506 96.2368 12.4513 96.4364 13.4549C96.4649 13.6842 96.4649 13.9136 96.4364 14.143Z" fill="#729409"/>
<path d="M98.4318 13.3969C98.3463 13.1675 98.2893 12.9381 98.1753 12.7087C97.8047 11.9632 97.1775 11.7625 96.5503 11.3897C96.0087 11.0457 95.6666 10.3575 94.2126 9.72668C95.638 10.0994 96.1512 10.931 96.6643 11.2464C97.0634 11.5044 97.5196 11.7052 97.8617 12.0779C98.2038 12.422 98.3748 12.9094 98.4318 13.3969Z" fill="#729409"/>
<path d="M100.228 12.1354C100.057 11.734 99.8002 11.3612 99.4867 11.1031C99.1446 10.8451 98.774 10.6444 98.4034 10.3576C98.2323 10.2143 98.0613 10.0422 97.9472 9.8415C97.8332 9.66946 97.6907 9.52609 97.5196 9.38273C97.1775 9.12466 96.7499 9.00997 96.3223 8.92395C96.7499 8.92395 97.206 9.03864 97.6051 9.26803C97.8047 9.38273 97.9757 9.55477 98.0898 9.75548C98.2038 9.92752 98.3463 10.0709 98.5174 10.2143C98.8595 10.4723 99.2586 10.673 99.5722 10.9884C99.9143 11.3039 100.142 11.7053 100.228 12.1354Z" fill="#729409"/>
<path d="M100.085 9.49719C100.37 9.55454 100.598 9.69791 100.827 9.86995C101.482 10.3861 102.908 12.68 105.758 11.9058C105.245 12.1065 104.675 12.1638 104.133 12.1065C101.539 11.9058 101.425 9.92729 100.085 9.49719Z" fill="#729409"/>
<path d="M82.1538 23.8352C83.6077 22.1721 85.2327 22.4876 86.373 21.656C87.8839 20.3657 89.851 19.6489 90.4781 21.3406C90.4496 21.3406 89.5659 19.2188 86.9432 21.398C85.0901 22.9463 83.9213 22.1148 82.1538 23.8352Z" fill="#729409"/>
<path d="M88.7106 19.2763C90.3925 19.4483 90.7346 18.2153 92.1885 19.1329C93.2148 19.7924 92.6447 20.6239 92.7587 21.1114C92.5877 20.6526 93.1578 19.4483 91.4758 19.0182C90.5921 18.7888 90.136 19.6203 88.7106 19.2763Z" fill="#729409"/>
<path d="M92.5876 16.8662C93.1008 16.8662 93.6424 16.9236 94.1271 17.0956C94.3836 17.1816 94.6117 17.2963 94.8398 17.497C95.0393 17.6691 95.1819 17.9558 95.2104 18.2425C95.2389 18.5293 95.1534 18.7873 95.0678 19.0454C94.9823 19.2748 94.9253 19.5328 94.8968 19.7909C94.8683 20.049 94.8398 20.307 94.8683 20.5651C94.8968 20.8232 94.9538 21.0812 95.0963 21.2819C94.9253 21.0812 94.8398 20.8232 94.7828 20.5651C94.7257 20.307 94.7257 20.049 94.7542 19.7622C94.7828 19.5042 94.8398 19.2461 94.9253 18.9881C95.0108 18.73 95.0678 18.5006 95.0393 18.2712C95.0108 18.0418 94.9253 17.8124 94.7257 17.6404C94.5547 17.4684 94.3266 17.3537 94.0986 17.2676C93.6139 17.0669 93.1008 16.9522 92.5876 16.8662Z" fill="#729409"/>
<path d="M95.5239 15.8359C95.8945 16.008 96.2366 16.2374 96.5217 16.5528C96.8068 16.8682 96.9778 17.2983 97.0063 17.6997C97.0349 18.1298 96.9493 18.5312 97.0063 18.904C97.0634 19.2768 97.2629 19.6782 97.5765 19.9362C97.2059 19.7355 96.9778 19.3628 96.8638 18.9327C96.8068 18.732 96.8353 18.5026 96.8353 18.3019C96.8353 18.1011 96.8353 17.9004 96.8353 17.6997C96.8068 17.2983 96.6642 16.9255 96.4362 16.6101C96.1796 16.3234 95.866 16.0653 95.5239 15.8359Z" fill="#729409"/>
<path d="M96.8354 15.0886C100.77 14.085 100.513 16.637 100.541 18.9595C100.114 16.1208 100.684 14.6298 96.8354 15.0886Z" fill="#729409"/>
<path d="M99.8003 13.7404C101.368 13.2529 102.708 13.1096 102.509 14.744C102.48 14.9733 102.452 15.2027 102.423 15.4608C102.395 15.6902 102.395 15.9196 102.423 16.1776C102.423 16.407 102.452 16.6364 102.537 16.8658C102.309 16.4357 102.28 15.9482 102.28 15.4608C102.28 14.9733 102.423 14.4859 102.28 14.0845C102.052 13.2816 100.741 13.597 99.8003 13.7404Z" fill="#729409"/>
<path d="M76.4807 22.918C76.3666 22.918 76.2241 22.918 76.1101 22.918C75.3974 27.4771 74.8842 32.0648 74.1715 36.6526C75.4544 36.968 76.8228 36.8533 78.1626 36.2511C81.9542 34.5021 83.6077 31.1186 83.066 28.2799C82.6099 25.7566 79.7876 22.9753 76.4807 22.918Z" fill="#DD5900"/>
<path d="M76.4807 22.918C76.3666 22.918 76.2241 22.918 76.1101 22.918C75.3974 27.4771 74.8842 32.0648 74.1715 36.6526C75.0553 36.6813 75.9675 36.4805 76.8513 36.0791C80.6428 34.33 82.2963 30.9752 81.7546 28.1079C81.327 25.9287 79.1889 23.5488 76.4807 22.918Z" fill="#ED6407"/>
<path d="M75.8535 24.4942C75.3689 27.763 74.9697 31.0604 74.4851 34.3579C76.4807 34.0138 78.6473 32.4941 79.303 30.7737C80.3007 28.2504 78.4192 25.1824 75.8535 24.4942Z" fill="#F77823"/>
<path d="M78.7328 25.7565C78.5048 25.4411 78.1342 25.2691 77.621 25.4124C77.1079 25.5558 77.1649 26.502 77.507 26.8461C77.8776 27.1902 78.5618 27.0468 78.7898 26.5881C78.9324 26.2726 78.8183 25.8712 78.7328 25.7565Z" fill="#FFE7D2"/>
<path d="M75.0269 30.3435C75.6255 29.9707 76.1387 29.4259 76.3382 28.8811C76.7373 27.9062 76.3667 26.7593 75.597 26.0138C75.426 27.4475 75.2264 28.9098 75.0269 30.3435Z" fill="#FF9327"/>
</g>
<defs>
<filter id="filter0_d_1_3509" x="0.7" y="0.7" width="119.034" height="130.6" filterUnits="userSpaceOnUse" color-interpolation-filters="sRGB">
<feFlood flood-opacity="0" result="BackgroundImageFix"/>
<feColorMatrix in="SourceAlpha" type="matrix" values="0 0 0 0 0 0 0 0 0 0 0 0 0 0 0 0 0 0 127 0" result="hardAlpha"/>
<feOffset dy="4"/>
<feGaussianBlur stdDeviation="4.65"/>
<feComposite in2="hardAlpha" operator="out"/>
<feColorMatrix type="matrix" values="0 0 0 0 0 0 0 0 0 0 0 0 0 0 0 0 0 0 1 0"/>
<feBlend mode="normal" in2="BackgroundImageFix" result="effect1_dropShadow_1_3509"/>
<feBlend mode="normal" in="SourceGraphic" in2="effect1_dropShadow_1_3509" result="shape"/>
</filter>
<linearGradient id="paint0_linear_1_3509" x1="13.0246" y1="32.7208" x2="77.3295" y2="32.7208" gradientUnits="userSpaceOnUse">
<stop stop-color="#FFF0C7"/>
<stop offset="0.1283" stop-color="#FFEEC0"/>
<stop offset="0.308" stop-color="#FFE9AE"/>
<stop offset="0.5181" stop-color="#FEE190"/>
<stop offset="0.7513" stop-color="#FED567"/>
<stop offset="1" stop-color="#FDC732"/>
</linearGradient>
</defs>
</svg>
