<svg width="79" height="128" viewBox="0 0 79 128" fill="none" xmlns="http://www.w3.org/2000/svg">
<path opacity="0.5" d="M43.3208 125.55C41.8073 125.628 40.255 125.706 38.6639 125.706C25.0813 125.706 14.0988 122.29 14.0988 118.022C14.0988 113.792 25.1201 110.338 38.6639 110.338C40.255 110.338 41.8073 110.377 43.3208 110.493C70.3308 112.123 69.4771 123.998 43.3208 125.55Z" fill="#EDEDED"/>
<path opacity="0.5" d="M43.321 125.55C31.9504 125.55 23.4127 121.747 23.4127 118.022C23.4127 114.296 31.9504 110.493 43.321 110.493C70.331 112.123 69.4772 123.998 43.321 125.55Z" fill="#D8D8D8"/>
<path d="M38.6641 125.706C27.4487 125.706 18.0185 123.378 15.0691 120.157C17.2423 123.727 27.3711 127.259 38.6641 127.259C49.6854 127.259 59.4261 123.96 61.9098 120.506C58.6111 123.533 49.4525 125.706 38.6641 125.706Z" fill="#BCBCBC"/>
<path opacity="0.5" d="M53.9541 117.324C53.9541 118.915 47.6672 120.739 39.9057 120.739C38.8579 120.739 37.8101 120.7 36.8011 120.661C30.5531 120.273 25.8574 118.682 25.8574 117.324C25.8574 116.392 28.1083 115.538 31.5621 115.034C36.4907 113.094 37.7713 110.416 37.9266 104.828C38.0818 99.899 37.9266 46.5775 37.9266 46.5775C38.9744 46.7327 40.061 46.7327 41.1476 46.5775C41.3804 46.5387 41.6521 46.4999 41.8849 46.4611C41.8849 46.8491 41.7685 101.18 41.8849 104.828C42.0402 110.377 43.3208 113.055 48.2494 115.034C51.7032 115.538 53.9541 116.353 53.9541 117.324Z" fill="#EDEDED"/>
<path d="M53.9541 117.324C53.9541 118.915 47.6672 120.739 39.9057 120.739C38.8579 120.739 37.8101 120.7 36.8011 120.661C43.6701 120.622 48.0165 118.721 49.1031 117.595C50.2674 116.431 45.8433 115.926 43.7477 113.559C41.6521 111.192 41.1088 109.135 41.1088 104.323V46.5775C41.3416 46.5387 41.6133 46.4999 41.8461 46.4611C41.8461 46.8491 41.7297 101.18 41.8461 104.828C42.0014 110.377 43.282 113.055 48.2106 115.034C51.7032 115.538 53.9541 116.353 53.9541 117.324Z" fill="#BCBCBC"/>
<path d="M41.3418 114.18C39.8671 112.705 39.5178 108.979 39.5178 108.979C39.5178 108.979 39.3238 112.705 37.7715 114.102C35.8311 115.848 32.9205 116.663 32.9205 116.663C32.9205 116.663 35.0549 117.284 39.5566 117.284C41.2253 117.284 46.1927 116.663 46.1927 116.663C46.1927 116.663 42.9717 115.771 41.3418 114.18Z" fill="white"/>
<path d="M39.5565 105.41C39.1684 84.3375 39.4013 66.8741 39.5565 46.6942C39.7117 67.1458 39.9446 84.4539 39.5565 105.41Z" fill="white"/>
<path opacity="0.5" d="M41.8463 46.4611C41.8463 46.6551 41.8463 47.5089 41.8463 48.9059H37.9268V46.5387C39.2462 46.7715 40.5657 46.7327 41.8463 46.4611Z" fill="#BCBCBC"/>
<path opacity="0.2" d="M78.9072 7.07049L77.9371 9.36013L46.5418 43.9764C42.7387 47.6631 36.6847 47.7019 32.8815 43.9764C-0.337676 7.30333 3.81473 12.3095 0.981779 8.73921L0.865356 6.41076C4.2028 2.68524 22.4423 0.706055 39.6729 0.706055C45.7656 0.706055 76.7728 1.40459 78.9072 7.07049Z" fill="#D8D8D8"/>
<g opacity="0.8">
<path d="M9.01485 14.7151C8.93723 14.6762 8.89843 14.6374 8.85962 14.5986L9.13127 14.9091C9.05366 14.8315 9.01485 14.7927 9.01485 14.7151Z" fill="url(#paint0_linear_1_3344)"/>
</g>
<g opacity="0.8">
<path d="M70.7189 15.0248C68.7785 16.8487 55.7392 18.2458 39.9833 18.2458C24.0722 18.2458 10.9553 16.8099 9.17017 14.986L32.8427 41.4527C36.6847 45.217 42.7775 45.1006 46.503 41.4527L71.9607 14.6367C71.6502 14.7143 71.2622 14.8696 70.7189 15.0248Z" fill="url(#paint1_linear_1_3344)"/>
</g>
<path d="M36.8399 25.5047C36.7623 25.5047 36.6847 25.4659 36.6071 25.3883C36.4907 25.2331 33.5801 21.8568 32.3383 16.5402C31.0964 11.2624 31.0188 6.95474 31.0188 6.91593C31.0188 6.7607 31.1352 6.60547 31.3293 6.60547C31.4845 6.60547 31.6397 6.7607 31.6397 6.91593C31.6397 6.95474 31.7173 11.2236 32.9592 16.4238C34.1622 21.5852 37.034 24.9614 37.0728 25.0002C37.1892 25.1166 37.1892 25.3107 37.034 25.4271C36.9952 25.4659 36.9175 25.5047 36.8399 25.5047Z" fill="#3A182A"/>
<path d="M46.3866 35.6726C46.3478 35.7114 45.494 36.41 45.1447 36.6816C44.7567 36.9921 44.2134 37.3026 43.6701 37.5354C43.6312 37.5354 43.6312 37.5742 43.5924 37.5742C42.9327 37.8847 42.273 38.0787 42.0013 38.2339C34.7055 42.0759 30.4755 36.6816 30.165 31.4038C29.9322 27.2514 32.5711 25.7767 34.5115 25.2334C35.0548 25.0782 35.5593 25.0006 35.9086 24.9618C36.219 24.923 36.413 24.923 36.4519 24.923C36.4519 24.923 36.6071 24.6125 36.9952 24.1856C37.4609 23.7199 38.237 23.099 39.4788 22.6721C39.6341 22.6333 39.7505 22.5945 39.9057 22.5169C40.0221 22.4781 40.1774 22.4393 40.2938 22.4005C41.3028 22.1288 42.2342 22.0124 43.1267 22.09C45.688 22.2452 47.6672 23.6423 48.521 25.8155C49.8016 28.9977 50.6942 32.7233 46.3866 35.6726Z" fill="#771251"/>
<path d="M46.3867 35.672C46.3479 35.7108 45.4941 36.4094 45.1448 36.681C44.7568 36.9915 44.2134 37.3019 43.6701 37.5348C43.6313 37.5348 43.6313 37.5736 43.5925 37.5736C45.2613 36.1377 46.4643 33.3436 46.3867 31.3644C46.2314 27.6777 44.7956 25.6209 42.4283 24.4567C40.9536 23.7193 39.1297 23.7193 37.0341 24.2238C37.4997 23.7581 38.2759 23.1372 39.5177 22.7103C39.673 22.6715 39.7894 22.6327 39.9446 22.5551C40.061 22.5163 40.2163 22.4775 40.3327 22.4387C41.2641 22.2058 42.2343 22.0894 43.1656 22.1282C45.7269 22.2834 47.7061 23.6805 48.5599 25.8537C49.8017 28.9971 50.6943 32.7227 46.3867 35.672Z" fill="#660642"/>
<path d="M39.5176 25.04C36.6847 26.5147 35.7145 25.1953 34.5115 25.2729C35.0548 25.1177 35.5593 25.04 35.9085 25.0012C36.1026 25.0012 36.2966 25.0012 36.4519 24.9624C37.4608 24.8848 36.8787 24.9236 37.8877 24.7296C38.8967 24.5355 40.1774 23.0997 40.9535 22.7116C41.7685 22.2847 41.4192 24.031 39.5176 25.04Z" fill="#3F0027"/>
<path d="M32.5322 29.1148C31.4456 30.2402 30.4366 33.1896 33.1531 35.5568C35.8697 37.9241 39.634 37.8077 42.1953 35.4404C44.7178 33.0732 44.679 30.1626 42.855 27.8341C40.9922 25.5057 39.5564 27.7177 36.7622 27.6789C34.0069 27.5625 33.0367 28.5715 32.5322 29.1148Z" fill="#A31D70"/>
<path d="M33.3473 30.5112C32.6488 32.0246 33.6578 34.7412 36.2967 35.4397C38.9356 36.1382 41.1476 34.4307 41.8074 31.9858C42.4671 29.541 39.0132 28.8036 37.034 28.726C35.0548 28.6096 33.7742 29.6186 33.3473 30.5112Z" fill="#D6188A"/>
<path d="M35.4041 29.891C34.3951 30.7836 34.0459 31.4045 35.1713 32.3747C36.2967 33.3449 37.0728 32.1807 37.1116 31.0553C37.1505 29.9686 35.831 29.503 35.4041 29.891Z" fill="white"/>
<path d="M39.1296 26.6685C38.9744 26.5133 38.8967 26.4744 38.7415 26.6685C38.6251 26.8625 38.7803 26.9401 38.9744 26.9401C39.1296 26.9401 39.1684 26.7461 39.1296 26.6685Z" fill="white"/>
<path d="M45.4164 34.5473C45.2612 34.392 45.1836 34.3532 45.0283 34.5473C44.8731 34.7413 45.0671 34.8189 45.2612 34.8189C45.4164 34.8189 45.4552 34.5861 45.4164 34.5473Z" fill="white"/>
<path d="M45.3777 24.807C45.106 24.5353 44.912 24.4577 44.6791 24.807C44.4463 25.1563 44.7955 25.3503 45.106 25.3115C45.4165 25.3115 45.4941 24.9234 45.3777 24.807Z" fill="white"/>
<g opacity="0.8">
<path d="M39.9833 18.2476C57.1081 18.2476 70.9905 16.597 70.9905 14.5609C70.9905 12.5247 57.1081 10.8741 39.9833 10.8741C22.8585 10.8741 8.97607 12.5247 8.97607 14.5609C8.97607 16.597 22.8585 18.2476 39.9833 18.2476Z" fill="url(#paint2_linear_1_3344)"/>
</g>
<path opacity="0.3" d="M11.8091 12.5801C11.8091 12.5801 22.8304 29.0345 29.777 35.3989C36.7235 41.7633 37.6937 40.0946 38.3146 37.4557C38.9355 34.8168 37.3444 21.5834 35.0936 14.5205L11.8091 12.5801Z" fill="white"/>
<path opacity="0.2" d="M39.6728 14.5603C38.1593 14.5603 36.607 14.5603 35.0935 14.5215C37.3444 21.6233 38.8967 34.8178 38.3145 37.4567C37.6936 40.0956 36.7622 41.7644 29.7769 35.3999C22.8303 29.0355 11.809 12.5811 11.809 12.5811C8.97607 12.1154 3.81467 11.1064 1.52502 9.3989C3.11613 11.4169 -0.260123 7.49733 32.8427 43.9376C36.6458 47.6631 42.7386 47.6243 46.5029 43.9376L77.8982 9.32129C72.1159 13.7453 47.6283 14.5603 39.6728 14.5603Z" fill="#D8D8D8"/>
<path opacity="0.5" d="M77.8981 9.36035L46.5029 43.9766C42.8161 47.5469 36.995 47.6634 33.1531 44.2871C34.589 44.1707 36.5293 43.5886 37.3831 43.3169C44.4849 41.1049 48.5985 31.9463 54.5748 13.2411C59.8914 12.8918 71.5337 11.7664 76.2682 9.39916H77.8981V9.36035Z" fill="#D8D8D8"/>
<path d="M29.7769 38.1549C29.7769 38.1549 33.4636 42.0356 35.5592 42.8118C37.6548 43.5879 40.7982 44.4417 43.6699 42.8118C46.5417 41.1818 48.3657 38.6205 50.4613 36.2145C52.5569 33.8084 73.7846 10.5627 73.8234 10.4851C73.8622 10.4075 75.6473 10.0194 75.6473 10.0194L65.0141 22.205C65.0141 22.205 47.4731 41.8804 45.067 43.7431C42.6609 45.6059 38.7026 45.9164 36.6846 45.179C34.6666 44.4417 31.8725 41.3759 31.1739 40.3669C30.4366 39.3967 29.7769 38.1549 29.7769 38.1549Z" fill="white"/>
<path d="M77.8984 9.36042L46.5031 43.9767C42.6999 47.6634 36.646 47.6634 32.8428 43.9767C32.3383 43.4334 37.4609 49.0217 0.787842 8.7395C0.826649 8.7395 2.1461 8.7395 2.02968 8.7395C2.45656 9.04996 4.16409 9.7873 4.97905 10.0978L32.804 41.4154C36.6072 45.1021 42.6611 45.1021 46.4643 41.4154L74.949 9.86492C75.1818 9.7485 75.9968 9.43804 76.1908 9.36042C76.3072 9.36042 78.0148 9.36042 77.8984 9.36042Z" fill="#E5E5E5"/>
<path d="M77.8981 9.36035L46.5028 43.9766C42.8161 47.5469 38.3921 46.6544 38.3145 46.6544L39.1682 44.2095C41.6519 44.3647 44.4072 43.4721 46.5028 41.4542L74.9875 9.90366C75.2204 9.78723 76.0353 9.47677 76.2294 9.39916H77.8981V9.36035Z" fill="#D6D6D6"/>
<path d="M77.8981 9.36035L46.5028 43.9766C42.8161 47.5469 38.3921 46.6544 38.3145 46.6544C38.3145 46.6544 41.3802 46.7708 43.3206 45.7618C45.261 44.7528 46.076 43.9378 47.5894 42.1915C48.8701 40.7556 70.4471 16.9278 77.2772 9.36035H77.8981Z" fill="#BCBCBC"/>
<path d="M17.7466 12.8535C17.7466 12.8535 26.2454 26.0093 34.8219 37.4575C34.8219 37.4575 31.0964 26.7466 27.7589 14.0954L17.7466 12.8535Z" fill="white"/>
<path d="M51.5478 14.2501L47.1626 32.9165C47.1626 32.9165 49.9955 26.9401 52.1688 20.4981C54.3032 14.056 54.4196 13.668 54.4196 13.668L51.5478 14.2501Z" fill="white"/>
<path d="M78.9072 7.07049C78.8296 6.87645 78.7132 6.68241 78.558 6.48837C75.4922 2.72405 57.0974 0.706055 39.6728 0.706055C22.4423 0.706055 4.20278 2.68524 0.904145 6.41076C0.865337 6.44957 0.865337 6.44957 0.82653 6.48837C0.51607 6.83764 0.36084 7.22572 0.36084 7.6526C0.36084 7.76902 0.36084 7.88544 0.399647 8.00187C0.477262 8.27352 0.593685 8.50636 0.787722 8.73921L0.82653 8.77802C0.865337 8.85563 0.942953 8.89444 1.02057 8.97205C1.1758 9.12728 1.33103 9.24371 1.52507 9.39894C2.26241 9.94224 3.34902 10.4467 4.74609 10.9124C11.7314 13.2797 26.0126 14.5215 39.6728 14.5215C52.5569 14.5215 65.9843 13.3961 73.319 11.3005C73.6294 11.2229 73.9399 11.1065 74.2503 11.0289C74.3668 10.99 74.4444 10.9512 74.5608 10.9124C75.0265 10.7572 75.4534 10.602 75.8803 10.4079C76.734 10.0587 77.3937 9.67059 77.8982 9.28251C77.937 9.24371 77.9759 9.24371 77.9759 9.2049C78.0535 9.12728 78.1311 9.08848 78.1699 9.04967C78.2475 8.97205 78.3251 8.89444 78.4027 8.81682L78.4415 8.77802C78.5968 8.62279 78.7132 8.46756 78.7908 8.27352C78.9072 8.04067 78.9849 7.80783 78.9849 7.53618C79.0237 7.41975 78.9848 7.26452 78.9072 7.07049ZM76.5012 9.24371C73.9787 10.5244 69.9039 11.3393 67.1098 11.805C59.7751 13.008 50.0345 13.7066 39.6728 13.7066C29.3112 13.7066 19.5706 13.0468 12.2359 11.805C8.74326 11.2229 6.22077 10.602 4.47444 9.94224C3.34902 9.55417 2.53406 9.12728 2.02956 8.77802C1.44745 8.38994 1.21461 8.00187 1.21461 7.6526C1.21461 6.52718 4.12517 4.47038 12.2359 3.11212C19.5706 1.90909 29.3112 1.21055 39.6728 1.21055C50.0345 1.21055 59.7751 1.87028 67.1098 3.11212C75.2593 4.47038 78.1311 6.52718 78.1311 7.6526C78.1311 8.07948 77.6654 8.66159 76.5012 9.24371Z" fill="#D8D8D8"/>
<path d="M31.5233 12.1938C31.0576 9.08915 31.0188 6.91593 31.0188 6.91593C31.0188 6.7607 31.1352 6.60547 31.3293 6.60547C31.4845 6.60547 31.6397 6.7607 31.6397 6.91593C31.6397 6.95474 31.6785 9.05034 32.1442 12.1549L31.5233 12.1938Z" fill="#3A182A"/>
<defs>
<linearGradient id="paint0_linear_1_3344" x1="8.96665" y1="14.8912" x2="8.96665" y2="14.5882" gradientUnits="userSpaceOnUse">
<stop stop-color="#FD2FD2"/>
<stop offset="0.367" stop-color="#E52093"/>
<stop offset="1" stop-color="#B9051F"/>
</linearGradient>
<linearGradient id="paint1_linear_1_3344" x1="40.5761" y1="44.1926" x2="40.5761" y2="14.5875" gradientUnits="userSpaceOnUse">
<stop stop-color="#FD2FD2"/>
<stop offset="0.367" stop-color="#E52093"/>
<stop offset="1" stop-color="#B9051F"/>
</linearGradient>
<linearGradient id="paint2_linear_1_3344" x1="8.96276" y1="14.5459" x2="70.9954" y2="14.5459" gradientUnits="userSpaceOnUse">
<stop stop-color="#FD2FD2"/>
<stop offset="0.367" stop-color="#E52093"/>
<stop offset="1" stop-color="#B9051F"/>
</linearGradient>
</defs>
</svg>
