<svg width="98" height="122" viewBox="0 0 98 122" fill="none" xmlns="http://www.w3.org/2000/svg">
<g filter="url(#filter0_d_1_5788)">
<path opacity="0.2" d="M93.5107 17.8421C93.5107 17.887 93.4658 18.6052 93.4658 18.5603C93.4658 18.6052 93.1515 26.9548 93.1515 26.9099C93.1515 26.9548 93.0169 30.2317 93.0169 30.0073C93.0169 30.0971 91.7151 64.1686 91.7151 64.1237C91.7151 64.2135 90.3684 99.4521 90.4133 98.1054C90.4133 98.1503 90.3684 99.3174 90.3684 99.3623C90.3684 99.3623 90.1888 100.215 90.2337 100.17L89.8297 101.113C89.4257 101.607 89.5155 102.684 86.7772 104.57C81.5699 108.026 71.2452 110.764 58.5862 111.662C55.4439 111.887 52.1221 112.021 48.7553 112.021C38.7449 112.021 14.8185 110.36 8.26455 102.774L8.17477 102.594C8.17477 102.55 6.96274 99.6766 7.05252 99.8561C7.05252 99.8112 4 17.887 4 17.887L6.60362 13.8918C13.2473 9.53744 31.4278 7.24805 48.7553 7.24805C65.7238 7.24805 83.5002 9.44766 90.4581 13.6224L93.5107 17.8421Z" fill="#D8D8D8"/>
<path opacity="0.5" d="M90.4133 99.6323C90.4133 99.6323 90.1439 100.71 90.099 100.755C89.7848 101.203 87.9892 109.643 58.6311 111.708C55.4888 111.932 52.167 112.157 48.8002 112.067C7.99521 110.99 7.1423 100.53 7.1423 100.485C7.1423 100.485 7.09741 99.9017 7.09741 99.8568C7.09741 97.747 8.89301 95.7718 12.0802 94.066C19.1279 90.2503 32.9092 87.6467 48.8002 87.6467C52.2119 87.6467 55.4888 87.7814 58.6311 88.0058C66.9358 88.5445 91.4008 91.4175 90.4133 99.6323Z" fill="#BFBFBF"/>
<path d="M15.8509 39.0755C15.6713 39.0755 15.4918 38.9409 15.402 38.7613C15.3571 38.6715 11.9903 28.9304 12.5739 20.7155C13.1126 12.5006 14.9082 6.21605 14.9082 6.12627C14.998 5.85693 15.2224 5.72226 15.4918 5.81204C15.7611 5.90182 15.8958 6.12627 15.806 6.39561C15.806 6.4405 14.0553 12.6802 13.5166 20.7604C12.9779 28.8406 16.2998 38.3573 16.2998 38.4471C16.3896 38.6715 16.2549 38.9409 16.0304 39.0306C15.9407 39.0755 15.8958 39.0755 15.8509 39.0755Z" fill="#3A182A"/>
<path opacity="0.8" d="M9.74585 26.327C12.125 98.4652 11.9455 95.4127 12.4392 96.8941C13.7859 101.024 26.4449 106.231 48.7553 106.231C61.9529 106.231 72.2776 104.66 78.4276 102.191C82.333 100.62 84.4877 98.4203 85.4753 94.0211C85.6099 93.5273 85.6997 90.5646 85.8344 87.6467C86.418 74.3593 87.4056 39.794 87.7647 26.327C81.5699 30.5466 66.4419 33.5094 48.7104 33.5094C31.1135 33.4645 15.9856 30.5466 9.74585 26.327Z" fill="url(#paint0_linear_1_5788)"/>
<g opacity="0.5">
<path d="M90.7726 22.0613C90.7726 23.5426 89.7401 24.9791 87.8099 26.2809C81.6151 30.5006 66.4871 33.4633 48.7556 33.4633C31.1138 33.4633 15.9859 30.5006 9.79104 26.3258C7.81588 25.024 6.73853 23.5875 6.73853 22.0613C6.73853 21.2533 7.05276 20.4452 7.63633 19.727C11.6315 14.5646 28.5102 10.7041 48.7556 10.7041C69.0458 10.7041 85.9245 14.6095 89.9197 19.7719C90.4584 20.4901 90.7726 21.2981 90.7726 22.0613Z" fill="#541202"/>
</g>
<path opacity="0.4" d="M34.5703 103.897L20.1157 90.7441C19.7566 91.0135 19.3077 91.2379 18.8588 91.3277C18.8588 91.3277 18.8588 91.3277 18.8139 91.3277C18.365 91.4175 17.8712 91.4175 17.557 91.1033L32.0116 104.256C32.6849 104.884 33.897 104.301 33.8521 104.301C34.0316 104.211 34.301 104.076 34.5703 103.897Z" fill="#D4D5D6"/>
<path opacity="0.6" d="M54.3668 87.5585L51.0449 73.3732C51 73.1488 50.8653 72.9243 50.7307 72.7896L36.2312 59.6369C36.321 59.7267 36.3659 59.7715 36.4108 59.8613C36.4556 59.9511 36.5005 60.0858 36.5454 60.1756L39.8673 74.3608L54.3668 87.5585Z" fill="#D4D5D6"/>
<path opacity="0.4" d="M37.9371 78.0859L52.3916 91.2386L34.5703 103.898L20.1157 90.7448L37.9371 78.0859Z" fill="#D4D5D6"/>
<path opacity="0.6" d="M54.367 87.5571L39.9124 74.4043C40.092 75.1225 39.7329 75.9306 39.3737 76.559C39.0146 77.1875 38.4759 77.7262 37.9373 78.0853L52.3918 91.238C53.4243 90.4749 54.6363 88.814 54.367 87.5571Z" fill="#F4F4F4"/>
<path opacity="0.4" d="M33.6725 59.9956C35.0192 59.0529 36.321 59.1427 36.5904 60.22L39.9122 74.4053C40.1816 75.4826 39.2838 77.1436 37.9371 78.0862L20.1157 90.7452C18.769 91.6879 17.4672 91.5981 17.1979 90.5208L13.876 76.3355C13.6067 75.2582 14.5045 73.5972 15.8512 72.6545L33.6725 59.9956Z" fill="#F4F4F4"/>
<path opacity="0.4" d="M36.6803 44.5073L22.2257 31.3545C21.8666 31.6239 21.3728 31.8483 20.9239 31.983C20.475 32.0728 19.9812 32.0728 19.667 31.7585L34.1216 44.9113C34.7949 45.4949 35.9621 45.046 36.6803 44.5073Z" fill="#D4D5D6"/>
<path opacity="0.6" d="M56.4767 28.1686L53.1548 13.9834C53.1099 13.7589 52.9752 13.5345 52.8406 13.3998L38.386 0.247063C38.4758 0.336843 38.5207 0.381733 38.5655 0.471513C38.6104 0.561293 38.6553 0.695961 38.7002 0.785741L42.0221 14.971L56.4767 28.1686Z" fill="#D4D5D6"/>
<path opacity="0.4" d="M40.0468 18.6963L54.5014 31.8491L36.6801 44.508L22.2704 31.3553L40.0468 18.6963Z" fill="#D4D5D6"/>
<path opacity="0.6" d="M56.5217 28.2573C56.5217 28.2124 56.5217 28.2124 56.5217 28.1675L42.0223 15.0147C42.0223 15.0596 42.0223 15.1494 42.0672 15.1943V15.2392C42.1569 16.0472 41.6183 16.945 41.6183 16.9001C41.5734 16.945 41.5285 17.0797 41.4836 17.1694C41.1245 17.7979 40.5858 18.3366 40.0471 18.6957L54.5017 31.8485C55.5791 31.0853 56.7462 29.5591 56.5217 28.2573Z" fill="#F4F4F4"/>
<path opacity="0.4" d="M35.8272 0.649866C37.1739 -0.292824 38.4757 -0.203044 38.745 0.874316L42.0669 15.0596C42.3362 16.1369 41.4384 17.7978 40.0917 18.7405L22.2704 31.3995C20.9237 32.3422 19.6219 32.2524 19.3526 31.1751L16.0307 16.9898C15.7614 15.9125 16.6592 14.2515 18.0059 13.3088L35.8272 0.649866Z" fill="#F4F4F4"/>
<path opacity="0.6" d="M72.9064 79.4317L63.1204 96.3553L76.2731 90.0707C76.4976 89.9809 76.6771 89.8462 76.7669 89.6218L86.5529 72.6982C86.1938 73.3267 85.8796 73.1023 72.9064 79.4317Z" fill="#D4D5D6"/>
<path opacity="0.4" d="M42.9198 80.4646L52.7059 63.5411C52.3467 63.2268 52.0325 62.8228 51.8529 62.4188C51.6734 62.0148 51.5836 61.4761 51.8081 61.117L42.022 78.0405C41.7527 78.4894 41.9323 79.073 42.2016 79.5668C42.3812 79.881 42.6056 80.1952 42.9198 80.4646Z" fill="#D4D5D6"/>
<path opacity="0.4" d="M68.8661 78.2649L59.0801 95.1884L42.9197 80.4645L52.7057 63.541L68.8661 78.2649Z" fill="#D4D5D6"/>
<path opacity="0.6" d="M63.1203 96.3112L72.9064 79.3876C72.2779 79.7018 71.3801 79.5672 70.7067 79.2978C70.0334 79.0734 69.4049 78.6694 68.9111 78.2205L59.1251 95.144C59.8883 95.8174 60.7412 96.1316 60.6963 96.1316C60.9656 96.2663 61.235 96.3111 61.4594 96.4009C61.9532 96.5356 62.5816 96.5805 63.1203 96.3112Z" fill="#F4F4F4"/>
<path opacity="0.4" d="M85.6101 70.2746C86.8221 71.3968 87.0017 72.6986 86.0141 73.1475L72.8613 79.4321C71.8738 79.9259 70.0782 79.3873 68.8212 78.265L52.6608 63.5411C51.4488 62.4188 51.2692 61.117 52.2568 60.6681L65.4096 54.3835C66.3972 53.8897 68.1928 54.4284 69.4497 55.5507L85.6101 70.2746Z" fill="#F4F4F4"/>
<path opacity="0.6" d="M58.003 50.9703L44.8502 57.2549L35.0642 74.1784L48.217 67.8938C48.4414 67.804 48.621 67.6694 48.7108 67.4449L58.4968 50.5214C58.407 50.7458 58.2275 50.8805 58.003 50.9703Z" fill="#D4D5D6"/>
<path opacity="0.4" d="M14.8188 58.1983C14.8636 58.2432 14.8636 58.2432 14.9085 58.2881L24.6946 41.3646C24.4252 41.0952 24.111 40.781 23.9314 40.4668C23.6621 40.0179 23.4825 39.4343 23.7519 38.9405L13.9658 55.8641C13.921 55.9089 13.921 55.9538 13.8761 56.0436V56.0885C13.8761 56.1334 13.8312 56.2232 13.8312 56.2681C13.8312 56.313 13.8312 56.4027 13.8312 56.4476V56.4925C13.8312 56.5374 13.8312 56.6272 13.8761 56.6721C13.8761 56.717 13.921 56.8068 13.921 56.8516V56.8965C13.9658 56.9863 13.9658 57.0312 14.0107 57.121C14.0107 57.121 14.0107 57.121 14.0107 57.1659C14.0556 57.2108 14.0556 57.3005 14.1005 57.3454C14.1005 57.3454 14.1005 57.3903 14.1454 57.3903C14.1903 57.4801 14.2352 57.525 14.2801 57.6148C14.2801 57.6148 14.2801 57.6148 14.325 57.6597C14.3699 57.7045 14.4147 57.7494 14.4596 57.8392C14.4596 57.8392 14.4596 57.8392 14.5045 57.8841L14.5494 57.929C14.5943 57.9739 14.5943 57.9739 14.6392 58.0188L14.6841 58.0637L14.729 58.1086L14.8188 58.1983Z" fill="#D4D5D6"/>
<path opacity="0.4" d="M40.8549 56.0881L31.0688 73.0116L14.9084 58.2877L24.6945 41.3642L40.8549 56.0881Z" fill="#D4D5D6"/>
<path opacity="0.6" d="M35.0641 74.1795L44.8501 57.256C44.2216 57.5702 43.3238 57.4355 42.6505 57.1662C41.9771 56.9417 41.3487 56.5377 40.8549 56.0888L31.0688 73.0124C32.0564 73.9102 33.8969 74.7182 35.0641 74.1795Z" fill="#F4F4F4"/>
<path opacity="0.4" d="M57.5989 48.0981C58.8109 49.2204 58.9905 50.5222 58.0029 50.9711L44.8501 57.2557C43.8625 57.7495 42.0669 57.2108 40.81 56.0885L24.6496 41.3646C23.4376 40.2424 23.258 38.9406 24.2456 38.4917L37.3984 32.2071C38.386 31.7133 40.1816 32.252 41.4385 33.3742L57.5989 48.0981Z" fill="#F4F4F4"/>
<path opacity="0.6" d="M54.1872 59.8593C54.1872 59.7695 54.1872 59.6348 54.2321 59.5002L57.8233 45.4047L51.0898 27.0447L47.4986 41.1401C47.4537 41.3646 47.4537 41.589 47.4986 41.8135L54.2321 60.1735C54.1872 60.0837 54.1872 59.9939 54.1872 59.8593Z" fill="#D4D5D6"/>
<path opacity="0.4" d="M76.228 21.703L82.9615 40.063C83.5451 39.9733 83.994 40.0182 84.3531 40.1079C84.9367 40.2426 85.2509 40.6017 85.206 40.5568C85.2958 40.6466 85.3856 40.7813 85.4305 40.916L78.697 22.5559C78.3827 21.703 77.1258 21.6133 76.228 21.703Z" fill="#D4D5D6"/>
<path opacity="0.4" d="M61.2796 43.0715L54.5909 24.7115L76.2279 21.7039L82.9614 40.0639L61.2796 43.0715Z" fill="#D4D5D6"/>
<path opacity="0.6" d="M51.1345 26.9562C51.1345 27.0011 51.1345 27.0011 51.0896 27.046L57.8231 45.406C57.8231 45.3611 57.868 45.2713 57.868 45.2264V45.1815C58.1373 44.5979 58.7209 44.0593 59.2596 43.745C59.888 43.3859 60.6063 43.1615 61.2347 43.0717L54.5012 24.7117C53.783 24.8015 53.1096 25.0708 52.5261 25.385C51.9874 25.7441 51.3589 26.3277 51.1345 26.9562Z" fill="#F4F4F4"/>
<path opacity="0.4" d="M56.7009 61.0268C55.04 61.2513 53.9627 60.5779 54.232 59.5006L57.8232 45.4051C58.0925 44.3277 59.6637 43.2953 61.2797 43.0708L82.9167 40.0632C84.5776 39.8387 85.655 40.5121 85.3857 41.5895L81.7945 55.6849C81.5251 56.7623 79.954 57.7947 78.3379 58.0192L56.7009 61.0268Z" fill="#F4F4F4"/>
<path opacity="0.2" d="M14.7287 26.0579L18.275 82.1703C18.4995 85.4024 19.6666 88.3652 21.552 90.6097C23.4374 92.8991 25.9961 94.5151 28.9588 95.0987C36.4555 96.58 43.5481 90.7443 44.2214 82.4846L48.7104 29.3348L14.7287 26.0579ZM91.6253 17.843C90.907 20.6262 82.3779 22.6911 79.5499 23.2747C74.612 24.3071 68.7314 25.1152 62.3121 25.5641C58.0027 25.8783 53.4239 26.013 48.7553 26.013C37.0839 26.013 26.1757 25.0254 17.9608 23.2747C14.2349 22.4666 11.4966 21.6137 9.56636 20.7608C8.44411 20.267 6.06494 19.0101 5.88538 17.843H4L7.00763 98.9592C7.05252 100.037 7.05252 99.9468 7.09741 100.216C7.09741 100.351 7.1423 100.8 7.23208 100.889C7.36675 101.204 7.86054 102.191 7.86054 102.146C7.95032 102.281 8.08499 102.91 9.16235 103.897C14.1451 108.79 25.5472 111.618 32.3705 112.696C37.6226 113.548 43.6379 113.952 48.6207 113.952C61.1001 113.952 67.6989 112.067 74.8364 110.316C78.697 109.104 86.0589 106.276 88.6177 103.134C88.6626 103.089 89.9644 101.653 90.3684 99.9468C90.4581 99.0939 90.5479 96.2658 90.5479 96.2209C90.5928 94.8742 93.5107 18.1572 93.5107 17.843H91.6253Z" fill="#D8D8D8"/>
<path opacity="0.3" d="M93.5105 18.5603C93.1963 27.3587 92.5678 43.4293 92.5678 43.7436C92.5678 43.4293 92.3883 48.053 91.8047 64.1236C90.9518 86.7931 90.5478 98.8236 90.4131 99.8112C90.3682 100.215 89.8744 101.158 89.9193 101.113L89.4255 102.056C89.3807 102.101 86.6424 106.724 74.7914 110.271C70.1228 111.707 65.993 112.47 61.2346 113.099L62.3569 25.5182C67.1601 25.204 72.9958 24.5306 77.7092 23.6328C81.3004 23.0044 86.8219 21.6128 89.9193 19.6825C89.9193 19.7274 93.735 18.4705 93.5105 18.5603Z" fill="#D8D8D8"/>
<path d="M89.4706 19.9961C89.4706 20.8041 88.6626 53.5738 87.9443 70.0933C86.9568 92.1792 87.9443 97.2069 82.8269 100.978C77.7094 104.748 56.7458 108.429 44.8499 107.891C33.1336 107.352 19.3973 101.965 18.9933 101.831C28.6895 104.569 44.9397 106.185 58.1374 105.287C71.1106 104.389 77.7543 102.279 80.9864 99.227C84.2185 96.1744 84.5327 92.7628 84.802 85.9844C85.0265 80.418 86.5976 22.1957 86.5976 21.3877C87.8097 20.8939 88.7524 20.445 89.4706 19.9961Z" fill="white"/>
<path d="M93.5107 18.4252L92.1191 54.6515C91.8947 60.1729 90.5928 94.7382 90.6377 93.7058C90.6377 93.7955 90.4582 98.1499 90.4582 98.105C90.4582 98.1499 90.4133 98.7783 90.4133 99.3619C90.4133 99.721 90.1439 100.484 90.1439 100.484C89.8297 101.158 89.5604 101.562 89.3808 101.966C89.3359 102.01 88.7524 103.088 86.7772 104.569C84.9367 105.961 81.8842 107.801 76.8565 109.507C71.739 111.303 66.5318 112.29 61.2348 113.008C57.2845 113.502 53.0199 113.816 48.6656 113.816C38.2511 113.816 25.5921 112.2 15.9857 108.026C13.382 106.859 9.79084 104.928 8.21969 102.594C7.90546 102.1 7.23211 100.888 7.09744 100.305C7.00766 99.9006 6.91788 94.828 5.70585 62.193L4.04492 17.707H5.9303C5.9303 17.7519 5.9303 17.7519 5.97519 17.7968C5.97519 17.8417 5.97519 17.8417 6.02008 17.8866C6.02008 17.9314 6.06497 17.9763 6.10986 18.0661C6.10986 18.111 6.15475 18.1559 6.15475 18.2008L6.19964 18.2457C6.24453 18.2906 6.28942 18.3355 6.28942 18.3804C6.33431 18.4252 6.3792 18.515 6.42409 18.5599C6.46898 18.6048 6.51387 18.6946 6.60365 18.7395C6.64854 18.7844 6.73832 18.8741 6.78321 18.919C6.87299 18.9639 6.91788 19.0537 7.00766 19.0986C7.05255 19.1435 7.14233 19.1884 7.18722 19.2333C7.36678 19.3679 7.59123 19.5026 7.81568 19.6373C7.90546 19.6822 7.99524 19.7719 8.12991 19.8168C8.21969 19.9066 8.35436 19.9515 8.48903 19.9964C8.71348 20.1311 8.98282 20.2657 9.25216 20.4004C9.38683 20.4453 9.5215 20.5351 9.65617 20.58L9.74595 23.5876C12.2149 98.105 12.0353 95.1871 12.5291 96.6685C13.9207 100.754 26.5348 106.006 48.8451 106.006C53.379 106.006 57.5538 105.826 61.3695 105.467C68.6416 104.794 74.4773 103.582 78.5174 101.966C86.1487 98.913 85.6549 93.4813 85.9243 87.4212C86.5527 73.191 88.0341 20.58 88.0341 20.58C88.7523 20.2657 89.2013 20.0413 89.9644 19.5475C90.0542 19.5924 92.0742 18.8741 93.5107 18.4252Z" fill="#E5E5E5"/>
<path d="M90.4582 99.1829C90.4582 99.3624 90.4582 99.4971 90.4133 99.6318C90.3684 100.17 90.144 100.889 89.9195 101.338C89.8297 101.427 89.3808 102.325 88.483 103.268C88.4381 103.313 88.3484 103.403 88.3035 103.447C82.6922 108.834 67.1154 113.952 48.6207 113.952C48.1269 113.952 47.5883 113.952 47.0496 113.952C40.9894 113.817 32.191 113.009 24.3352 111.034C24.2455 110.989 24.1108 110.989 24.021 110.944C17.3324 109.238 11.362 106.724 8.39928 103.088C7.95038 102.55 7.41171 101.607 7.23215 100.889C7.23215 100.799 7.18726 100.754 7.18726 100.664V100.619C7.18726 100.574 7.18726 100.53 7.18726 100.485V100.44C7.32193 100.799 7.54638 101.203 7.9055 101.697C12.1252 107.128 28.7793 111.213 48.7105 111.213C69.4497 111.213 86.6426 106.814 89.9644 101.068C90.3235 100.215 90.4133 99.2278 90.4582 99.1829Z" fill="#BCBCBC"/>
<path d="M93.5107 18.5613L90.4582 99.1838C90.4133 98.8246 92.3436 20.6711 92.3436 20.6711L92.3884 18.9653L93.5107 18.5613Z" fill="#BCBCBC"/>
<path opacity="0.3" d="M14.7288 26.0576L18.2751 82.1701C18.6791 88.6343 23.0783 93.9313 28.9589 95.0984C36.4555 96.5798 43.5481 90.7441 44.2215 82.4843L48.7105 29.3346L14.7288 26.0576Z" fill="white"/>
<path d="M21.2377 27.2246L25.1431 65.9198L30.0361 28.1224L21.2377 27.2246Z" fill="white"/>
<path d="M67.6539 28.4812L69.8087 82.5287L70.7513 28.1221L67.6539 28.4812Z" fill="white"/>
<path d="M25.3226 9.89653L24.6941 8.77428C21.058 9.26807 17.6913 9.89653 14.8183 10.6597L14.549 12.0064C15.3121 11.7819 15.5814 11.6921 17.7361 11.1983C20.0704 10.7046 22.6292 10.2557 25.3226 9.89653Z" fill="#D8D8D8"/>
<path d="M89.8744 19.728C89.605 19.9075 88.6174 20.4911 87.9441 20.7604C80.2679 23.813 70.5268 24.9801 62.3119 25.5637C58.0025 25.8779 53.4237 26.0126 48.7551 26.0126C37.0837 26.0126 26.1755 25.025 17.9606 23.2743C-6.23512 18.067 13.5165 12.3211 13.5614 12.2762L13.8307 10.8846C11.1822 11.6029 7.45633 12.8598 5.43628 14.7452C1.97975 17.9773 5.39139 21.7031 9.70083 23.7681C16.7486 27.1348 30.1258 29.3344 48.8 29.3344C51.8076 29.3344 56.7904 29.2446 62.3119 28.8406C75.1505 27.9428 91.0864 25.6534 93.4207 19.0097C93.4207 19.0097 93.5553 18.6057 93.6002 18.5159C93.6002 18.5159 89.9193 19.728 89.8744 19.728Z" fill="#D8D8D8"/>
<path d="M42.65 8.54966L42.1562 7.33762C39.9117 7.4274 37.7121 7.51719 35.5574 7.65186L35.9165 8.86389C38.1161 8.72922 40.3606 8.63944 42.65 8.54966Z" fill="#D8D8D8"/>
</g>
<defs>
<filter id="filter0_d_1_5788" x="0" y="-7.62939e-06" width="97.6002" height="121.952" filterUnits="userSpaceOnUse" color-interpolation-filters="sRGB">
<feFlood flood-opacity="0" result="BackgroundImageFix"/>
<feColorMatrix in="SourceAlpha" type="matrix" values="0 0 0 0 0 0 0 0 0 0 0 0 0 0 0 0 0 0 127 0" result="hardAlpha"/>
<feOffset dy="4"/>
<feGaussianBlur stdDeviation="2"/>
<feComposite in2="hardAlpha" operator="out"/>
<feColorMatrix type="matrix" values="0 0 0 0 0 0 0 0 0 0 0 0 0 0 0 0 0 0 1 0"/>
<feBlend mode="normal" in2="BackgroundImageFix" result="effect1_dropShadow_1_5788"/>
<feBlend mode="normal" in="SourceGraphic" in2="effect1_dropShadow_1_5788" result="shape"/>
</filter>
<linearGradient id="paint0_linear_1_5788" x1="48.782" y1="106.226" x2="48.782" y2="26.2909" gradientUnits="userSpaceOnUse">
<stop stop-color="#FFB000"/>
<stop offset="0.2721" stop-color="#FDAF00"/>
<stop offset="0.3701" stop-color="#F6AA02"/>
<stop offset="0.44" stop-color="#EBA204"/>
<stop offset="0.4965" stop-color="#DA9607"/>
<stop offset="0.545" stop-color="#C4860B"/>
<stop offset="0.5878" stop-color="#A87310"/>
<stop offset="0.6256" stop-color="#895D16"/>
<stop offset="0.6564" stop-color="#69461C"/>
<stop offset="0.6619" stop-color="#64411A"/>
<stop offset="0.6916" stop-color="#4F2B10"/>
<stop offset="0.7267" stop-color="#3F1A09"/>
<stop offset="0.7701" stop-color="#330F04"/>
<stop offset="0.831" stop-color="#2D0801"/>
<stop offset="1" stop-color="#2B0600"/>
</linearGradient>
</defs>
</svg>
