<svg width="20" height="20" viewBox="0 0 20 20" fill="none" xmlns="http://www.w3.org/2000/svg">
<path fill-rule="evenodd" clip-rule="evenodd" d="M1.07143 0.357147C0.479694 0.357147 0 0.836842 0 1.42858C0 2.0203 0.479694 2.5 1.07143 2.5H6.78571C7.37744 2.5 7.85714 2.0203 7.85714 1.42858C7.85714 0.836842 7.37744 0.357147 6.78571 0.357147H1.07143ZM11.4286 0.713593C10.6396 0.713593 10 1.35319 10 2.14216V9.28502C10 10.074 10.6396 10.7136 11.4286 10.7136H18.5714C19.3604 10.7136 20 10.074 20 9.28502V2.14216C20 1.35319 19.3604 0.713593 18.5714 0.713593H11.4286ZM0 5.71429C0 5.12256 0.479694 4.64286 1.07143 4.64286H6.78571C7.37744 4.64286 7.85714 5.12256 7.85714 5.71429C7.85714 6.30602 7.37744 6.78572 6.78571 6.78572H1.07143C0.479694 6.78572 0 6.30602 0 5.71429ZM1.07143 8.92858C0.479694 8.92858 0 9.40828 0 10C0 10.5917 0.479694 11.0714 1.07143 11.0714H6.78571C7.37744 11.0714 7.85714 10.5917 7.85714 10C7.85714 9.40828 7.37744 8.92858 6.78571 8.92858H1.07143ZM0 14.2857C0 13.694 0.479694 13.2143 1.07143 13.2143H18.9286C19.5203 13.2143 20 13.694 20 14.2857C20 14.8774 19.5203 15.3571 18.9286 15.3571H1.07143C0.479694 15.3571 0 14.8774 0 14.2857ZM1.07143 17.5C0.479694 17.5 0 17.9797 0 18.5714C0 19.1631 0.479694 19.6429 1.07143 19.6429H18.9286C19.5203 19.6429 20 19.1631 20 18.5714C20 17.9797 19.5203 17.5 18.9286 17.5H1.07143Z" fill="#33FF00"/>
</svg>
