<svg width="20" height="22" viewBox="0 0 20 22" fill="none" xmlns="http://www.w3.org/2000/svg">
<path fill-rule="evenodd" clip-rule="evenodd" d="M1.2618 0.690391C1.70385 0.248341 2.30341 0 2.92855 0H12.3571C12.5655 0 12.7654 0.0827804 12.9127 0.230131L19.1985 6.51585C19.3457 6.66319 19.4286 6.86304 19.4286 7.07143V19.6429C19.4286 20.268 19.1803 20.8676 18.7382 21.3097C18.2962 21.7517 17.6965 22 17.0714 22H2.92855C2.30339 22 1.70385 21.7517 1.2618 21.3097C0.81976 20.8676 0.571411 20.268 0.571411 19.6429V2.35714C0.571411 1.732 0.81976 1.13244 1.2618 0.690391ZM6.78767 6.20912C7.67667 6.20912 8.39735 5.48845 8.39735 4.59945C8.39735 3.71046 7.67667 2.98978 6.78767 2.98978C5.89868 2.98978 5.17801 3.71046 5.17801 4.59945C5.17801 5.48845 5.89868 6.20912 6.78767 6.20912ZM3.51908 13.3571C3.51828 12.8147 3.95734 12.3749 4.49976 12.3749H15.4998C16.0421 12.3749 16.4826 12.8147 16.4834 13.3571C16.4842 13.8995 16.0451 14.3392 15.5027 14.3392H4.5027C3.96029 14.3392 3.5199 13.8995 3.51908 13.3571ZM3.51908 18.0714C3.51828 17.529 3.95734 17.0893 4.49976 17.0893H10.7855C11.3279 17.0893 11.7683 17.529 11.7691 18.0714C11.7699 18.6137 11.3309 19.0536 10.7884 19.0536H4.5027C3.96029 19.0536 3.5199 18.6137 3.51908 18.0714ZM6.78671 7.28205C5.68698 7.28205 4.68386 7.69562 3.92435 8.3757C3.47353 8.77937 3.82559 9.42827 4.43073 9.42827H9.14269C9.74783 9.42827 10.0999 8.77937 9.64907 8.3757C8.88956 7.69562 7.88643 7.28205 6.78671 7.28205Z" fill="#33FF00"/>
</svg>
