<svg width="24" height="24" viewBox="0 0 24 24" fill="none" xmlns="http://www.w3.org/2000/svg">
<path fill-rule="evenodd" clip-rule="evenodd" d="M0 2.57143C0 1.15127 1.15127 0 2.57143 0H14.5714C15.9916 0 17.1429 1.15127 17.1429 2.57143V5.89479C16.4526 6.44746 15.9959 7.25234 15.8839 8.14282H9.85714C7.7269 8.14282 6 9.86971 6 12C6 14.1302 7.7269 15.8571 9.85714 15.8571H15.8839C15.9958 16.7476 16.4526 17.5526 17.1429 18.1053V21.4286C17.1429 22.8487 15.9916 24 14.5714 24H2.57143C1.15127 24 0 22.8487 0 21.4286V2.57143ZM18.7937 7.38362C18.3132 7.58263 18 8.05145 18 8.57146V10.2857H9.85714C8.91038 10.2857 8.14286 11.0533 8.14286 12C8.14286 12.9468 8.91038 13.7143 9.85714 13.7143H18V15.4286C18 15.9486 18.3132 16.4175 18.7937 16.6165C19.2741 16.8155 19.8271 16.7055 20.1948 16.3377L23.6234 12.9092C24.1255 12.4071 24.1255 11.593 23.6234 11.0909L20.1948 7.66233C19.8271 7.29461 19.2741 7.18462 18.7937 7.38362Z" fill="#33FF00"/>
</svg>
