<svg width="21" height="20" viewBox="0 0 21 20" fill="none" xmlns="http://www.w3.org/2000/svg">
<path d="M10.0422 15.4222L10.3005 15.5782L15.3191 18.6071C15.7326 18.8566 16.2418 18.4855 16.1324 18.0167L16.1324 18.0166L14.8002 12.3071L14.7316 12.0132L14.9597 11.8156L19.3946 7.97353L19.3948 7.97339C19.7591 7.65799 19.5642 7.05908 19.084 7.01854L19.0839 7.01852L13.2461 6.52362L12.9456 6.49815L12.8279 6.22051L10.5444 0.832431L10.0422 15.4222ZM10.0422 15.4222L9.7838 15.5782M10.0422 15.4222L9.7838 15.5782M9.7838 15.5782L4.76519 18.6071C4.35171 18.8566 3.84251 18.4855 3.95195 18.0167L3.95197 18.0166L5.28416 12.3071L5.35273 12.0132L5.12463 11.8156L0.689716 7.97353L0.689563 7.97339C0.325186 7.65799 0.520114 7.05908 1.00029 7.01854L1.00046 7.01852L6.83826 6.52362L7.13873 6.49815M9.7838 15.5782L7.13873 6.49815M7.13873 6.49815L7.25639 6.22051M7.13873 6.49815L7.25639 6.22051M7.25639 6.22051L9.53989 0.832431M7.25639 6.22051L9.53989 0.832431M9.53989 0.832431L9.54 0.832162C9.72826 0.389279 10.3561 0.389279 10.5443 0.832162L9.53989 0.832431Z" stroke="#F2C94C"/>
<mask id="mask0_1_141" style="mask-type:alpha" maskUnits="userSpaceOnUse" x="0" y="0" width="10" height="19">
<rect width="10" height="19" fill="#D9D9D9"/>
</mask>
<g mask="url(#mask0_1_141)">
<path d="M10.0422 16.0062L15.0609 19.0352C15.8527 19.5129 16.8294 18.8029 16.6193 17.903L15.2871 12.1935L19.722 8.35144C20.4209 7.74645 20.0472 6.59808 19.1261 6.52031L13.2883 6.02541L11.0047 0.637057C10.6441 -0.212353 9.44021 -0.212353 9.07964 0.637057L6.79603 6.02541L0.958227 6.52031C0.0371066 6.59808 -0.336594 7.74645 0.362326 8.35144L4.79724 12.1935L3.46505 17.903C3.25497 18.8029 4.23164 19.5129 5.02348 19.0352L10.0422 16.0062Z" fill="#F2C94C"/>
</g>
</svg>
