<svg width="18" height="18" viewBox="0 0 18 18" fill="none" xmlns="http://www.w3.org/2000/svg">
<path d="M13.125 4.36917e-09C13.8424 -3.99579e-05 14.5327 0.274055 15.0546 0.766203C15.5766 1.25835 15.8907 1.93135 15.9328 2.6475L15.9375 2.8125V12.1875H16.6406C17.2472 12.1875 17.7469 12.6488 17.8069 13.2394L17.8125 13.3594V15C17.8125 15.7174 17.5384 16.4077 17.0463 16.9296C16.5541 17.4516 15.8811 17.7657 15.165 17.8078L15 17.8125H5.625C4.90761 17.8125 4.21733 17.5384 3.69538 17.0463C3.17343 16.5541 2.85927 15.8811 2.81719 15.165L2.8125 15V5.625H1.17188C0.881758 5.62513 0.601905 5.51764 0.38647 5.32334C0.171034 5.12903 0.0353329 4.86172 0.00562495 4.57312L4.36917e-09 4.45312V2.8125C-3.99579e-05 2.09511 0.274055 1.40483 0.766204 0.882881C1.25835 0.360931 1.93135 0.046774 2.6475 0.00468743L2.8125 4.36917e-09H13.125ZM15.9375 14.0625H7.5V15C7.5 15.3281 7.44375 15.6441 7.34063 15.9375H15C15.2486 15.9375 15.4871 15.8387 15.6629 15.6629C15.8387 15.4871 15.9375 15.2486 15.9375 15V14.0625ZM9.375 8.4375H7.5C7.26105 8.43777 7.03122 8.52926 6.85747 8.6933C6.68371 8.85733 6.57915 9.08152 6.56515 9.32006C6.55115 9.5586 6.62876 9.79348 6.78212 9.97672C6.93549 10.16 7.15304 10.2777 7.39031 10.3059L7.5 10.3125H9.375C9.61395 10.3122 9.84378 10.2207 10.0175 10.0567C10.1913 9.89267 10.2958 9.66848 10.3098 9.42994C10.3239 9.1914 10.2462 8.95652 10.0929 8.77328C9.93951 8.59004 9.72196 8.47228 9.48469 8.44406L9.375 8.4375ZM11.25 4.6875H7.5C7.25136 4.6875 7.0129 4.78627 6.83709 4.96209C6.66127 5.1379 6.5625 5.37636 6.5625 5.625C6.5625 5.87364 6.66127 6.1121 6.83709 6.28791C7.0129 6.46373 7.25136 6.5625 7.5 6.5625H11.25C11.4986 6.5625 11.7371 6.46373 11.9129 6.28791C12.0887 6.1121 12.1875 5.87364 12.1875 5.625C12.1875 5.37636 12.0887 5.1379 11.9129 4.96209C11.7371 4.78627 11.4986 4.6875 11.25 4.6875ZM2.8125 1.875C2.56386 1.875 2.3254 1.97377 2.14959 2.14959C1.97377 2.3254 1.875 2.56386 1.875 2.8125V3.75H2.8125V1.875Z" fill="white"/>
</svg>
