<svg width="22" height="22" viewBox="0 0 22 22" fill="none" xmlns="http://www.w3.org/2000/svg">
<path d="M11.2469 13.5248L4.98438 5.47168H17.5094L11.2469 13.5248Z" stroke="white" stroke-width="2" stroke-miterlimit="10"/>
<path d="M8.41563 5.47177C8.4994 5.18241 8.54045 4.88237 8.5375 4.58114C8.53748 3.87164 8.32671 3.17814 7.93194 2.58861C7.53717 1.99909 6.97619 1.5401 6.32016 1.26989C5.66413 0.999682 4.94263 0.930423 4.24718 1.0709C3.55172 1.21138 2.91367 1.55526 2.41396 2.05893C1.91425 2.56259 1.57541 3.20334 1.44042 3.89987C1.30543 4.59641 1.38037 5.31735 1.65575 5.97123C1.93112 6.6251 2.39451 7.18245 2.98714 7.57256C3.57976 7.96267 4.2749 8.16796 4.98438 8.16239C5.64818 8.16179 6.29824 7.97327 6.85938 7.61864" stroke="white" stroke-width="2" stroke-miterlimit="10"/>
<path d="M14.8281 5.47187L16.6188 1H21.9906" stroke="white" stroke-width="2" stroke-miterlimit="10"/>
<path d="M11.2469 20.6879V13.5254" stroke="white" stroke-width="2" stroke-miterlimit="10"/>
<path d="M15.7281 20.6875H6.77502" stroke="white" stroke-width="2" stroke-miterlimit="10"/>
</svg>
