<svg width="23" height="23" viewBox="0 0 23 23" fill="none" xmlns="http://www.w3.org/2000/svg">
<path fill-rule="evenodd" clip-rule="evenodd" d="M11.6925 0C17.943 0 23.0101 5.06705 23.0101 11.3176C23.0101 14.5182 21.6812 17.4087 19.5458 19.467C19.9815 20.0383 20.3128 20.5092 20.5622 20.8861C20.7955 21.2387 20.8055 21.6424 20.632 21.9628C20.4589 22.2826 20.1157 22.4961 19.6948 22.4995C18.1628 22.5118 16.4371 22.3296 15.0335 22.1324C14.1741 22.0116 13.5469 21.2641 13.5772 20.3969C13.627 18.9727 13.7482 17.2304 14.0295 15.7181C14.1056 15.3091 14.3709 15.0102 14.712 14.8954C15.054 14.7803 15.4452 14.8596 15.7493 15.1473C16.1239 15.5016 16.6035 15.9863 17.1945 16.6405C18.5278 15.2627 19.3479 13.3861 19.3479 11.3176C19.3479 7.0896 15.9205 3.66216 11.6925 3.66216C7.46459 3.66216 4.03716 7.0896 4.03716 11.3176C4.03716 13.5679 5.00774 15.5911 6.55394 16.9921C7.13799 17.5213 7.35729 18.4224 6.90069 19.1225L6.53879 19.6774C6.09064 20.3646 5.14164 20.5873 4.47982 20.0394C1.97284 17.9639 0.375 14.8272 0.375 11.3176C0.375 5.06705 5.44204 0 11.6925 0ZM12.8755 6.75C12.8755 6.05965 12.3158 5.5 11.6255 5.5C10.9351 5.5 10.3755 6.05965 10.3755 6.75V10.7323L7.74159 13.3661C7.25344 13.8543 7.25344 14.6458 7.74159 15.1339C8.22974 15.6221 9.02124 15.6221 9.50939 15.1339L12.5094 12.1339C12.7438 11.8995 12.8755 11.5815 12.8755 11.25V6.75Z" fill="white"/>
</svg>
