<svg width="22" height="23" viewBox="0 0 22 23" fill="none" xmlns="http://www.w3.org/2000/svg">
<path fill-rule="evenodd" clip-rule="evenodd" d="M8.44953 0.479C8.85203 0.2675 9.62853 0 10.9595 0C12.2905 0 13.067 0.2675 13.4705 0.479C13.7765 0.639 13.9555 0.894 14.0575 1.107C14.2025 1.4095 14.52 2.092 14.7975 2.8315C15.3352 3.07701 15.848 3.37354 16.329 3.717C17.109 3.587 17.8595 3.522 18.1945 3.4955C18.4295 3.4775 18.7395 3.5055 19.032 3.6905C19.417 3.9335 20.037 4.472 20.702 5.625C21.368 6.778 21.524 7.584 21.5425 8.039C21.557 8.384 21.426 8.6665 21.2925 8.8615C20.9387 9.37868 20.5634 9.88078 20.1675 10.3665C20.2232 10.9542 20.2232 11.5458 20.1675 12.1335C20.5634 12.6192 20.9387 13.1213 21.2925 13.6385C21.426 13.8335 21.557 14.1155 21.5425 14.461C21.524 14.916 21.3675 15.722 20.7025 16.875C20.0365 18.028 19.4165 18.5665 19.032 18.81C18.74 18.995 18.43 19.0225 18.1945 19.0045C17.5699 18.9568 16.9475 18.8829 16.329 18.783C15.848 19.1265 15.3352 19.423 14.7975 19.6685C14.5751 20.2534 14.3282 20.8288 14.0575 21.393C13.9555 21.606 13.7765 21.8605 13.4705 22.021C13.067 22.232 12.2905 22.5 10.9595 22.5C9.62853 22.5 8.85203 22.2325 8.44853 22.021C8.14253 21.861 7.96353 21.606 7.86153 21.393C7.71653 21.0905 7.39903 20.408 7.12153 19.6685C6.58388 19.423 6.07103 19.1265 5.59003 18.783C4.81003 18.913 4.05903 18.978 3.72403 19.0045C3.48903 19.0225 3.17903 18.9945 2.88703 18.8095C2.50203 18.5665 1.88203 18.028 1.21703 16.875C0.55103 15.722 0.39453 14.916 0.37603 14.461C0.36203 14.116 0.49303 13.8335 0.626031 13.6385C0.979834 13.1213 1.35516 12.6192 1.75103 12.1335C1.69533 11.5458 1.69533 10.9542 1.75103 10.3665C1.35517 9.88077 0.979836 9.37867 0.626031 8.8615C0.49303 8.6665 0.36203 8.3845 0.37603 8.039C0.39503 7.584 0.551031 6.778 1.21653 5.625C1.88203 4.472 2.50253 3.9335 2.88703 3.69C3.17903 3.505 3.48903 3.4775 3.72453 3.4955C4.05953 3.5215 4.80953 3.5875 5.58953 3.717C6.07069 3.3735 6.58371 3.07698 7.12153 2.8315C7.34403 2.24659 7.59091 1.67126 7.86153 1.107C7.96353 0.894 8.14253 0.6395 8.44853 0.479H8.44953ZM14.9595 11.25C14.9595 12.3109 14.5381 13.3283 13.788 14.0784C13.0378 14.8286 12.0204 15.25 10.9595 15.25C9.89867 15.25 8.88125 14.8286 8.1311 14.0784C7.38096 13.3283 6.95953 12.3109 6.95953 11.25C6.95953 10.1891 7.38096 9.17172 8.1311 8.42157C8.88125 7.67143 9.89867 7.25 10.9595 7.25C12.0204 7.25 13.0378 7.67143 13.788 8.42157C14.5381 9.17172 14.9595 10.1891 14.9595 11.25Z" fill="white"/>
</svg>
